g M_SA_tree_01
v -2.250466 0.01093804 -0.8213571
v 2.250422 7.177488E-08 -0.8213571
v 2.250422 0.01093804 -0.8213571
v -2.250466 7.177488E-08 -0.8213571
v -2.250466 0.01093788 0.983593
v -2.250466 7.177488E-08 -0.8213571
v -2.250466 0.01093804 -0.8213571
v -2.250466 -8.601888E-08 0.983593
v 2.250422 0.01093788 0.983593
v -2.250466 -8.601888E-08 0.983593
v -2.250466 0.01093788 0.983593
v 2.250422 -8.601888E-08 0.983593
v 2.250422 0.01093804 -0.8213571
v 2.250422 -8.601888E-08 0.983593
v 2.250422 0.01093788 0.983593
v 2.250422 7.177488E-08 -0.8213571
v -2.250466 -8.601888E-08 0.983593
v 2.250422 7.177488E-08 -0.8213571
v -2.250466 7.177488E-08 -0.8213571
v 2.250422 -8.601888E-08 0.983593
v 2.250422 0.01093804 -0.8213571
v -2.250466 0.01093788 0.983593
v -2.250466 0.01093804 -0.8213571
v 2.250422 0.01093788 0.983593
v -0.3928692 3.292329 -0.350325
v 0.3727886 3.059596E-08 -0.3503252
v 0.3727886 3.292329 -0.350325
v -0.3928692 3.059596E-08 -0.3503252
v -0.3928692 3.292329 0.4151668
v -0.3928692 3.059596E-08 -0.3503252
v -0.3928692 3.292329 -0.350325
v -0.3928692 -3.632546E-08 0.4151665
v 0.3727886 3.292329 0.4151668
v -0.3928692 -3.632546E-08 0.4151665
v -0.3928692 3.292329 0.4151668
v 0.3727886 -3.632546E-08 0.4151665
v 0.3727886 3.292329 -0.350325
v 0.3727886 -3.632546E-08 0.4151665
v 0.3727886 3.292329 0.4151668
v 0.3727886 3.059596E-08 -0.3503252
v -0.3928692 -3.632546E-08 0.4151665
v 0.3727886 3.059596E-08 -0.3503252
v -0.3928692 3.059596E-08 -0.3503252
v 0.3727886 -3.632546E-08 0.4151665
v 0.3727886 3.292329 -0.350325
v -0.3928692 3.292329 0.4151668
v -0.3928692 3.292329 -0.350325
v 0.3727886 3.292329 0.4151668
v -1.142475 5.429462 -1.084391
v 1.045119 3.241868 -1.084392
v 1.045119 5.429462 -1.084391
v -1.142475 3.241868 -1.084392
v -1.142475 5.429462 1.103203
v -1.142475 3.241868 -1.084392
v -1.142475 5.429462 -1.084391
v -1.142475 3.241868 1.103202
v 1.045119 5.429462 1.103203
v -1.142475 3.241868 1.103202
v -1.142475 5.429462 1.103203
v 1.045119 3.241868 1.103202
v 1.045119 5.429462 -1.084391
v 1.045119 3.241868 1.103202
v 1.045119 5.429462 1.103203
v 1.045119 3.241868 -1.084392
v -1.142475 3.241868 1.103202
v 1.045119 3.241868 -1.084392
v -1.142475 3.241868 -1.084392
v 1.045119 3.241868 1.103202
v 1.045119 5.429462 -1.084391
v -1.142475 5.429462 1.103203
v -1.142475 5.429462 -1.084391
v 1.045119 5.429462 1.103203
v 1.223056 5.944031 -1.680139
v 2.07194 5.095147 -1.680139
v 2.07194 5.944031 -1.680139
v 1.223056 5.095147 -1.680139
v 1.223056 5.944031 -0.8312559
v 1.223056 5.095147 -1.680139
v 1.223056 5.944031 -1.680139
v 1.223056 5.095147 -0.831256
v 2.07194 5.944031 -0.8312559
v 1.223056 5.095147 -0.831256
v 1.223056 5.944031 -0.8312559
v 2.07194 5.095147 -0.831256
v 2.07194 5.944031 -1.680139
v 2.07194 5.095147 -0.831256
v 2.07194 5.944031 -0.8312559
v 2.07194 5.095147 -1.680139
v 1.223056 5.095147 -0.831256
v 2.07194 5.095147 -1.680139
v 1.223056 5.095147 -1.680139
v 2.07194 5.095147 -0.831256
v 2.07194 5.944031 -1.680139
v 1.223056 5.944031 -0.8312559
v 1.223056 5.944031 -1.680139
v 2.07194 5.944031 -0.8312559
v -1.560291 2.845739 0.3743311
v -0.306173 2.073476 0.6714315
v -0.8467398 2.845739 1.161465
v -1.019724 2.073476 -0.1157028
v -2.132452 2.116119 0.8930051
v -1.019724 2.073476 -0.1157028
v -1.560291 2.845739 0.3743311
v -1.591885 1.343856 0.4029714
v -1.4189 2.116119 1.680139
v -1.591885 1.343856 0.4029714
v -2.132452 2.116119 0.8930051
v -0.8783337 1.343856 1.190106
v -0.8467398 2.845739 1.161465
v -0.8783337 1.343856 1.190106
v -1.4189 2.116119 1.680139
v -0.306173 2.073476 0.6714315
v -1.591885 1.343856 0.4029714
v -0.306173 2.073476 0.6714315
v -1.019724 2.073476 -0.1157028
v -0.8783337 1.343856 1.190106
v -0.8467398 2.845739 1.161465
v -2.132452 2.116119 0.8930051
v -1.560291 2.845739 0.3743311
v -1.4189 2.116119 1.680139
v -1.718172 5.735304 -0.1041358
v -2.060799 5.220417 -0.6340057
v -1.5889 5.550482 -0.6340057
v -2.190071 5.405238 -0.1041358
v -1.414474 5.301104 0.1214088
v -2.190071 5.405238 -0.1041358
v -1.718172 5.735304 -0.1041358
v -1.886373 4.971038 0.1214087
v -1.285202 5.116282 -0.4084612
v -1.886373 4.971038 0.1214087
v -1.414474 5.301104 0.1214088
v -1.757101 4.786216 -0.4084612
v -1.5889 5.550482 -0.6340057
v -1.757101 4.786216 -0.4084612
v -1.285202 5.116282 -0.4084612
v -2.060799 5.220417 -0.6340057
v -1.886373 4.971038 0.1214087
v -2.060799 5.220417 -0.6340057
v -2.190071 5.405238 -0.1041358
v -1.757101 4.786216 -0.4084612
v -1.5889 5.550482 -0.6340057
v -1.414474 5.301104 0.1214088
v -1.718172 5.735304 -0.1041358
v -1.285202 5.116282 -0.4084612
vt 0.3180517 0.6403758
vt 0.4457713 0.6403758
vt 0.4457713 0.6403758
vt 0.3180517 0.6403758
vt 0.3180517 0.5738686
vt 0.3180517 0.6403758
vt 0.3180517 0.6403758
vt 0.3180517 0.5738686
vt 0.4457713 0.5738686
vt 0.3180517 0.5738686
vt 0.3180517 0.5738686
vt 0.4457713 0.5738686
vt 0.4457713 0.6403758
vt 0.4457713 0.5738686
vt 0.4457713 0.5738686
vt 0.4457713 0.6403758
vt 0.3180517 0.5738686
vt 0.4457713 0.6403758
vt 0.3180517 0.6403758
vt 0.4457713 0.5738686
vt 0.4457713 0.6403758
vt 0.3180517 0.5738686
vt 0.3180517 0.6403758
vt 0.4457713 0.5738686
vt 0.3518299 0.9352845
vt 0.4383315 0.9352845
vt 0.4383315 0.9352845
vt 0.3518299 0.9352845
vt 0.3518299 0.8221442
vt 0.3518299 0.9352845
vt 0.3518299 0.9352845
vt 0.3518299 0.8221442
vt 0.4383315 0.8221442
vt 0.3518299 0.8221442
vt 0.3518299 0.8221442
vt 0.4383315 0.8221442
vt 0.4383315 0.9352845
vt 0.4383315 0.8221442
vt 0.4383315 0.8221442
vt 0.4383315 0.9352845
vt 0.3518299 0.8221442
vt 0.4383315 0.9352845
vt 0.3518299 0.9352845
vt 0.4383315 0.8221442
vt 0.4383315 0.9352845
vt 0.3518299 0.8221442
vt 0.3518299 0.9352845
vt 0.4383315 0.8221442
vt 0.7956634 0.1886713
vt 0.946506 0.1886713
vt 0.946506 0.1886713
vt 0.7956634 0.1886713
vt 0.7956634 0.03782912
vt 0.7956634 0.1886713
vt 0.7956634 0.1886713
vt 0.7956634 0.03782912
vt 0.946506 0.03782912
vt 0.7956634 0.03782912
vt 0.7956634 0.03782912
vt 0.946506 0.03782912
vt 0.946506 0.1886713
vt 0.946506 0.03782912
vt 0.946506 0.03782912
vt 0.946506 0.1886713
vt 0.7956634 0.03782912
vt 0.946506 0.1886713
vt 0.7956634 0.1886713
vt 0.946506 0.03782912
vt 0.946506 0.1886713
vt 0.7956634 0.03782912
vt 0.7956634 0.1886713
vt 0.946506 0.03782912
vt 0.7956634 0.1886713
vt 0.946506 0.1886713
vt 0.946506 0.1886713
vt 0.7956634 0.1886713
vt 0.7956634 0.03782912
vt 0.7956634 0.1886713
vt 0.7956634 0.1886713
vt 0.7956634 0.03782912
vt 0.946506 0.03782912
vt 0.7956634 0.03782912
vt 0.7956634 0.03782912
vt 0.946506 0.03782912
vt 0.946506 0.1886713
vt 0.946506 0.03782912
vt 0.946506 0.03782912
vt 0.946506 0.1886713
vt 0.7956634 0.03782912
vt 0.946506 0.1886713
vt 0.7956634 0.1886713
vt 0.946506 0.03782912
vt 0.946506 0.1886713
vt 0.7956634 0.03782912
vt 0.7956634 0.1886713
vt 0.946506 0.03782912
vt 0.7956634 0.1886713
vt 0.946506 0.1886713
vt 0.946506 0.1886713
vt 0.7956634 0.1886713
vt 0.7956634 0.03782912
vt 0.7956634 0.1886713
vt 0.7956634 0.1886713
vt 0.7956634 0.03782912
vt 0.946506 0.03782912
vt 0.7956634 0.03782912
vt 0.7956634 0.03782912
vt 0.946506 0.03782912
vt 0.946506 0.1886713
vt 0.946506 0.03782912
vt 0.946506 0.03782912
vt 0.946506 0.1886713
vt 0.7956634 0.03782912
vt 0.946506 0.1886713
vt 0.7956634 0.1886713
vt 0.946506 0.03782912
vt 0.946506 0.1886713
vt 0.7956634 0.03782912
vt 0.7956634 0.1886713
vt 0.946506 0.03782912
vt 0.7956634 0.1886713
vt 0.946506 0.1886713
vt 0.946506 0.1886713
vt 0.7956634 0.1886713
vt 0.7956634 0.03782912
vt 0.7956634 0.1886713
vt 0.7956634 0.1886713
vt 0.7956634 0.03782912
vt 0.946506 0.03782912
vt 0.7956634 0.03782912
vt 0.7956634 0.03782912
vt 0.946506 0.03782912
vt 0.946506 0.1886713
vt 0.946506 0.03782912
vt 0.946506 0.03782912
vt 0.946506 0.1886713
vt 0.7956634 0.03782912
vt 0.946506 0.1886713
vt 0.7956634 0.1886713
vt 0.946506 0.03782912
vt 0.946506 0.1886713
vt 0.7956634 0.03782912
vt 0.7956634 0.1886713
vt 0.946506 0.03782912
vn 0 0 -1
vn 0 0 -1
vn 0 0 -1
vn 0 0 -1
vn -1 0 0
vn -1 0 0
vn -1 0 0
vn -1 0 0
vn 0 0 1
vn 0 0 1
vn 0 0 1
vn 0 0 1
vn 1 0 0
vn 1 0 0
vn 1 0 0
vn 1 0 0
vn 0 -1 0
vn 0 -1 0
vn 0 -1 0
vn 0 -1 0
vn 0 1 0
vn 0 1 0
vn 0 1 0
vn 0 1 0
vn 0 0 -1
vn 0 0 -1
vn 0 0 -1
vn 0 0 -1
vn -1 0 0
vn -1 0 0
vn -1 0 0
vn -1 0 0
vn 0 0 1
vn 0 0 1
vn 0 0 1
vn 0 0 1
vn 1 0 0
vn 1 0 0
vn 1 0 0
vn 1 0 0
vn 0 -1 0
vn 0 -1 0
vn 0 -1 0
vn 0 -1 0
vn 0 1 0
vn 0 1 0
vn 0 1 0
vn 0 1 0
vn 0 0 -1
vn 0 0 -1
vn 0 0 -1
vn 0 0 -1
vn -1 0 0
vn -1 0 0
vn -1 0 0
vn -1 0 0
vn 0 0 1
vn 0 0 1
vn 0 0 1
vn 0 0 1
vn 1 0 0
vn 1 0 0
vn 1 0 0
vn 1 0 0
vn 0 -1 0
vn 0 -1 0
vn 0 -1 0
vn 0 -1 0
vn 0 1 0
vn 0 1 0
vn 0 1 0
vn 0 1 0
vn 0 0 -1
vn 0 0 -1
vn 0 0 -1
vn 0 0 -1
vn -1 0 0
vn -1 0 0
vn -1 0 0
vn -1 0 0
vn 0 0 1
vn 0 0 1
vn 0 0 1
vn 0 0 1
vn 1 0 0
vn 1 0 0
vn 1 0 0
vn 1 0 0
vn 0 -1 0
vn 0 -1 0
vn 0 -1 0
vn 0 -1 0
vn 0 1 0
vn 0 1 0
vn 0 1 0
vn 0 1 0
vn 0.5385447 0.6867532 -0.4882005
vn 0.5385446 0.6867532 -0.4882005
vn 0.5385446 0.6867532 -0.4882005
vn 0.5385447 0.6867532 -0.4882005
vn -0.6716285 0 -0.7408881
vn -0.6716285 0 -0.7408881
vn -0.6716285 0 -0.7408881
vn -0.6716285 0 -0.7408881
vn -0.5385447 -0.6867532 0.4882005
vn -0.5385446 -0.6867532 0.4882005
vn -0.5385447 -0.6867531 0.4882005
vn -0.5385446 -0.6867533 0.4882005
vn 0.6716286 0 0.740888
vn 0.6716287 0 0.740888
vn 0.6716286 0 0.7408881
vn 0.6716287 0 0.740888
vn 0.5088071 -0.7268909 -0.4612429
vn 0.5088071 -0.7268909 -0.4612429
vn 0.5088071 -0.7268909 -0.4612429
vn 0.5088071 -0.7268909 -0.4612429
vn -0.5088071 0.7268909 0.4612429
vn -0.508807 0.7268909 0.461243
vn -0.5088069 0.726891 0.4612428
vn -0.5088069 0.7268908 0.4612431
vn -0.5273671 0.7539831 -0.3916549
vn -0.5273671 0.7539831 -0.3916549
vn -0.527367 0.7539831 -0.3916548
vn -0.5273671 0.7539831 -0.3916549
vn -0.2244792 0.3209405 0.9201121
vn -0.2244792 0.3209405 0.9201121
vn -0.2244791 0.3209405 0.9201121
vn -0.2244792 0.3209405 0.9201121
vn 0.5273669 -0.7539828 0.3916555
vn 0.5273668 -0.7539828 0.3916555
vn 0.5273669 -0.7539829 0.3916555
vn 0.5273669 -0.7539828 0.3916556
vn 0.224479 -0.3209403 -0.9201122
vn 0.224479 -0.3209403 -0.9201123
vn 0.2244791 -0.3209403 -0.9201122
vn 0.2244789 -0.3209403 -0.9201123
vn -0.819447 -0.573155 0
vn -0.819447 -0.573155 0
vn -0.8194468 -0.5731552 0
vn -0.819447 -0.5731549 0
vn 0.819447 0.573155 0
vn 0.819447 0.573155 0
vn 0.8194468 0.5731553 0
vn 0.8194472 0.5731547 0
g M_SA_tree_01_0
f 3/3/3 2/2/2 1/1/1
f 4/4/4 1/1/1 2/2/2
f 7/7/7 6/6/6 5/5/5
f 8/8/8 5/5/5 6/6/6
f 11/11/11 10/10/10 9/9/9
f 12/12/12 9/9/9 10/10/10
f 15/15/15 14/14/14 13/13/13
f 16/16/16 13/13/13 14/14/14
f 19/19/19 18/18/18 17/17/17
f 20/20/20 17/17/17 18/18/18
f 23/23/23 22/22/22 21/21/21
f 24/24/24 21/21/21 22/22/22
f 27/27/27 26/26/26 25/25/25
f 28/28/28 25/25/25 26/26/26
f 31/31/31 30/30/30 29/29/29
f 32/32/32 29/29/29 30/30/30
f 35/35/35 34/34/34 33/33/33
f 36/36/36 33/33/33 34/34/34
f 39/39/39 38/38/38 37/37/37
f 40/40/40 37/37/37 38/38/38
f 43/43/43 42/42/42 41/41/41
f 44/44/44 41/41/41 42/42/42
f 47/47/47 46/46/46 45/45/45
f 48/48/48 45/45/45 46/46/46
f 51/51/51 50/50/50 49/49/49
f 52/52/52 49/49/49 50/50/50
f 55/55/55 54/54/54 53/53/53
f 56/56/56 53/53/53 54/54/54
f 59/59/59 58/58/58 57/57/57
f 60/60/60 57/57/57 58/58/58
f 63/63/63 62/62/62 61/61/61
f 64/64/64 61/61/61 62/62/62
f 67/67/67 66/66/66 65/65/65
f 68/68/68 65/65/65 66/66/66
f 71/71/71 70/70/70 69/69/69
f 72/72/72 69/69/69 70/70/70
f 75/75/75 74/74/74 73/73/73
f 76/76/76 73/73/73 74/74/74
f 79/79/79 78/78/78 77/77/77
f 80/80/80 77/77/77 78/78/78
f 83/83/83 82/82/82 81/81/81
f 84/84/84 81/81/81 82/82/82
f 87/87/87 86/86/86 85/85/85
f 88/88/88 85/85/85 86/86/86
f 91/91/91 90/90/90 89/89/89
f 92/92/92 89/89/89 90/90/90
f 95/95/95 94/94/94 93/93/93
f 96/96/96 93/93/93 94/94/94
f 99/99/99 98/98/98 97/97/97
f 100/100/100 97/97/97 98/98/98
f 103/103/103 102/102/102 101/101/101
f 104/104/104 101/101/101 102/102/102
f 107/107/107 106/106/106 105/105/105
f 108/108/108 105/105/105 106/106/106
f 111/111/111 110/110/110 109/109/109
f 112/112/112 109/109/109 110/110/110
f 115/115/115 114/114/114 113/113/113
f 116/116/116 113/113/113 114/114/114
f 119/119/119 118/118/118 117/117/117
f 120/120/120 117/117/117 118/118/118
f 123/123/123 122/122/122 121/121/121
f 124/124/124 121/121/121 122/122/122
f 127/127/127 126/126/126 125/125/125
f 128/128/128 125/125/125 126/126/126
f 131/131/131 130/130/130 129/129/129
f 132/132/132 129/129/129 130/130/130
f 135/135/135 134/134/134 133/133/133
f 136/136/136 133/133/133 134/134/134
f 139/139/139 138/138/138 137/137/137
f 140/140/140 137/137/137 138/138/138
f 143/143/143 142/142/142 141/141/141
f 144/144/144 141/141/141 142/142/142
