g M_SA_Glass_Fracture_10
v -2.5 5 0.5000001
v -1.858518 5 -0.4999998
v -1.858519 5 0.5000001
v -1.858518 5 -0.4999998
v -2.5 5 0.5000001
v -2.5 5 -0.4999998
v -2.5 5 0.5000001
v -2.5 3.191301 -0.5000001
v -2.5 5 -0.4999998
v -2.5 3.191301 0.4999997
v -2.5 3.191301 -0.5000001
v -1.858518 5 -0.4999998
v -2.5 5 -0.4999998
v -0.8267776 3.374393 -0.5000001
v -1.102874 2.921928 -0.5000002
v -1.858519 5 0.5000001
v -2.5 3.191301 0.4999997
v -2.5 5 0.5000001
v -0.8267777 3.374393 0.4999997
v -1.102874 2.921928 0.4999996
v -2.5 3.191301 0.4999997
v -1.102874 2.921928 -0.5000002
v -2.5 3.191301 -0.5000001
v -1.102874 2.921928 0.4999996
v -1.102874 2.921928 0.4999996
v -0.8267776 3.374393 -0.5000001
v -1.102874 2.921928 -0.5000002
v -0.8267776 3.374393 -0.5000001
v -1.102874 2.921928 0.4999996
v -0.8267777 3.374393 0.4999997
v -0.8267777 3.374393 0.4999997
v -1.858518 5 -0.4999998
v -0.8267776 3.374393 -0.5000001
v -1.858518 5 -0.4999998
v -0.8267777 3.374393 0.4999997
v -1.858519 5 0.5000001
vt 0.1190196 0.8580636
vt 0.05896045 0.9224526
vt 0.121789 0.8678187
vt 0.05896045 0.9224526
vt 0.1190196 0.8580636
vt 0.050121 0.9340984
vt 0.1190196 0.8580636
vt 0.09719323 0.8527323
vt 0.09719323 0.8580636
vt 0.1190196 0.8527323
vt 0.050121 0.8991414
vt 0.05012101 0.9340984
vt 0.050121 0.9340984
vt 0.05012102 0.9229731
vt 0.05012102 0.9127693
vt 0.147791 0.9340984
vt 0.1488485 0.8991414
vt 0.1488485 0.9340984
vt 0.1481348 0.9026801
vt 0.148443 0.8939352
vt 0.1488485 0.9340984
vt 0.05012101 0.9340984
vt 0.050121 0.9340984
vt 0.05896045 0.9224526
vt 0.05896045 0.9224526
vt 0.1190196 0.8527323
vt 0.05012101 0.9340984
vt 0.1190196 0.8527323
vt 0.05896045 0.9224526
vt 0.1488485 0.8991414
vt 0.1488485 0.8991414
vt 0.050121 0.8991414
vt 0.1190196 0.8527323
vt 0.050121 0.8991414
vt 0.1488485 0.8991414
vt 0.09719323 0.8527323
vn 0 1 0
vn 0 1 0
vn 0 1 0
vn 0 1 0
vn 0 1 0
vn 0 1 0
vn -1 0 0
vn -1 0 0
vn -1 0 0
vn -1 0 0
vn 0 0 -1
vn 0 0 -1
vn 0 0 -1
vn 0 0 -1
vn 0 0 -1
vn 0 0 1
vn 0 0 1
vn 0 0 1
vn 0 0 1
vn 0 0 1
vn -0.1893186 -0.9819157 0
vn -0.1893186 -0.9819157 0
vn -0.1893186 -0.9819157 0
vn -0.1893186 -0.9819157 0
vn 0.8536261 -0.5208861 0
vn 0.8536261 -0.5208861 0
vn 0.8536262 -0.5208861 0
vn 0.8536261 -0.5208861 0
vn 0.8536261 -0.5208861 0
vn 0.8536261 -0.5208861 0
vn 0.8443046 0.5358636 0
vn 0.8443046 0.5358636 0
vn 0.8443046 0.5358636 0
vn 0.8443046 0.5358636 0
vn 0.8443046 0.5358636 0
vn 0.8443046 0.5358636 0
g M_SA_Glass_Fracture_10_0
f 3/3/3 2/2/2 1/1/1
f 6/6/6 5/5/5 4/4/4
f 9/9/9 8/8/8 7/7/7
f 10/10/10 7/7/7 8/8/8
f 13/13/13 12/12/12 11/11/11
f 12/12/12 14/14/14 11/11/11
f 14/14/14 15/15/15 11/11/11
f 18/18/18 17/17/17 16/16/16
f 16/16/16 17/17/17 19/19/19
f 17/17/17 20/20/20 19/19/19
f 23/23/23 22/22/22 21/21/21
f 24/24/24 21/21/21 22/22/22
f 27/27/27 26/26/26 25/25/25
f 30/30/30 29/29/29 28/28/28
f 33/33/33 32/32/32 31/31/31
f 36/36/36 35/35/35 34/34/34
