g M_SA_Botany_01
v -0.7499999 -6.556708E-08 0.7499999
v 0.7499999 6.556708E-08 -0.7499999
v -0.7499999 6.556708E-08 -0.7499999
v 0.7499999 -6.556708E-08 0.7499999
v -0.521068 1.5 0.5210681
v 0.521068 1.5 -0.5210679
v 0.521068 1.5 0.5210681
v -0.521068 1.5 -0.5210679
v 0.7499999 1.258668 0.7500001
v -0.7499999 1.127568 0.7500001
v -0.7499999 1.258668 0.7500001
v 0.7499999 1.127568 0.7500001
v 0.7499999 1.258668 -0.7499998
v 0.7499999 1.127568 0.7500001
v 0.7499999 1.258668 0.7500001
v 0.7499999 1.127568 -0.7499998
v -0.7499999 1.258668 -0.7499998
v 0.7499999 1.127568 -0.7499998
v 0.7499999 1.258668 -0.7499998
v -0.7499999 1.127568 -0.7499998
v -0.7499999 1.258668 0.7500001
v -0.7499999 1.127568 -0.7499998
v -0.7499999 1.258668 -0.7499998
v -0.7499999 1.127568 0.7500001
v -0.7499999 1.5 0.7500001
v 0.521068 1.5 0.5210681
v 0.7499999 1.5 0.7500001
v -0.521068 1.5 0.5210681
v 0.7499999 1.5 0.7500001
v 0.521068 1.5 -0.5210679
v 0.7499999 1.5 -0.7499998
v -0.521068 1.5 -0.5210679
v 0.7499999 1.5 -0.7499998
v -0.7499999 1.5 -0.7499998
v -0.521068 1.5 0.5210681
v -0.7499999 1.5 -0.7499998
v 0.521068 1.5 -0.5210679
v 0.7499999 1.5 0.7500001
v 0.521068 1.5 0.5210681
v -0.7499999 1.5 -0.7499998
v -0.521068 1.5 0.5210681
v -0.7499999 1.5 0.7500001
v 0.7499999 1.5 0.7500001
v -0.7499999 1.258668 0.7500001
v -0.7499999 1.5 0.7500001
v 0.7499999 1.258668 0.7500001
v -0.7499999 -6.556708E-08 0.7499999
v 0.7499999 1.127568 0.7500001
v 0.7499999 -6.556708E-08 0.7499999
v -0.7499999 1.127568 0.7500001
v 0.7499999 1.5 -0.7499998
v 0.7499999 1.258668 0.7500001
v 0.7499999 1.5 0.7500001
v 0.7499999 1.258668 -0.7499998
v 0.7499999 -6.556708E-08 0.7499999
v 0.7499999 1.127568 -0.7499998
v 0.7499999 6.556708E-08 -0.7499999
v 0.7499999 1.127568 0.7500001
v -0.7499999 1.5 -0.7499998
v 0.7499999 1.258668 -0.7499998
v 0.7499999 1.5 -0.7499998
v -0.7499999 1.258668 -0.7499998
v 0.7499999 6.556708E-08 -0.7499999
v -0.7499999 1.127568 -0.7499998
v -0.7499999 6.556708E-08 -0.7499999
v 0.7499999 1.127568 -0.7499998
v -0.7499999 1.5 0.7500001
v -0.7499999 1.258668 -0.7499998
v -0.7499999 1.5 -0.7499998
v -0.7499999 1.258668 0.7500001
v -0.7499999 6.556708E-08 -0.7499999
v -0.7499999 1.127568 0.7500001
v -0.7499999 -6.556708E-08 0.7499999
v -0.7499999 1.127568 -0.7499998
v -0.03276147 1.539038 -0.06228352
v 0.3750039 1.610494 -0.6775926
v -0.1761778 1.726538 -0.8543137
v 0.3750039 1.610494 -0.6775926
v -0.03276147 1.539038 -0.06228352
v 0.5175688 1.726538 -0.1786575
v 0.08361256 1.726538 0.4880467
v 0.5175688 1.726538 -0.1786575
v -0.03276147 1.539038 -0.06228352
v 0.5175688 1.726538 -0.1786575
v 0.08361256 1.726538 0.4880467
v 0.734312 1.889968 0.5678964
v -0.03276147 1.539038 -0.06228352
v -0.3542105 1.872371 0.4315715
v 0.08361256 1.726538 0.4880467
v -0.3542105 1.872371 0.4315715
v -0.03276147 1.539038 -0.06228352
v -0.5830916 1.726538 0.05409052
v -0.1761778 1.726538 -0.8543137
v -0.5830916 1.726538 0.05409052
v -0.03276147 1.539038 -0.06228352
v -0.5830916 1.726538 0.05409052
v -0.1761778 1.726538 -0.8543137
v -0.7645999 1.943911 -0.4318595
v 0.2886875 2.705705 -0.5561384
v 0.1510899 3.319315 -0.1308263
v -0.1491355 2.851538 -0.6126135
v 0.1510899 3.319315 -0.1308263
v 0.2886875 2.705705 -0.5561384
v 0.5175688 2.851538 -0.1786575
v -0.1491355 2.851538 -0.6126135
v -0.2666648 3.410367 -0.03967624
v -0.3947099 3.089963 0.01425502
v 0.08361256 2.851538 0.4880468
v -0.2786141 2.705705 0.749769
v -0.5830916 2.851538 0.05409062
v 0.08361256 2.851538 0.4880468
v -0.2666648 3.410367 -0.03967624
v 0.3819473 2.994975 0.3723174
v 0.3750039 1.610494 -0.6775926
v 0.4424784 2.289038 -0.8583306
v -0.1879269 2.289038 -0.7960571
v -0.1761778 1.726538 -0.8543137
v -0.1879269 2.289038 -0.7960571
v -0.6994657 2.289038 -0.4962396
v -0.1879269 2.289038 -0.7960571
v -0.5266165 2.705705 -0.3837324
v -0.6994657 2.289038 -0.4962396
v -0.5266165 2.705705 -0.3837324
v -0.1879269 2.289038 -0.7960571
v -0.1491355 2.851538 -0.6126135
v -0.1491355 2.851538 -0.6126135
v -0.1879269 2.289038 -0.7960571
v 0.2886875 2.705705 -0.5561384
v -0.7645999 1.943911 -0.4318595
v -0.6994657 2.289038 -0.4962396
v -0.7665351 2.289038 0.09288193
v -0.4667177 2.289038 0.6044207
v -0.5830916 1.726538 0.05409052
v -0.7665351 2.289038 0.09288193
v -0.5830916 1.726538 0.05409052
v -0.4667177 2.289038 0.6044207
v -0.3542105 1.872371 0.4315715
v -0.2786141 2.705705 0.749769
v -0.4667177 2.289038 0.6044207
v -0.7665351 2.289038 0.09288193
v -0.6994657 2.289038 -0.4962396
v -0.5830916 2.851538 0.05409062
v -0.7665351 2.289038 0.09288193
v -0.5830916 2.851538 0.05409062
v -0.6994657 2.289038 -0.4962396
v -0.5266165 2.705705 -0.3837324
v 0.1224039 2.289038 0.6714901
v -0.3542105 1.872371 0.4315715
v -0.4667177 2.289038 0.6044207
v -0.3542105 1.872371 0.4315715
v 0.1224039 2.289038 0.6714901
v 0.08361256 1.726538 0.4880467
v 0.08361256 1.726538 0.4880467
v 0.1224039 2.289038 0.6714901
v 0.734312 1.889968 0.5678964
v 0.3819473 2.994975 0.3723174
v 0.6339427 2.289038 0.3716727
v 0.08361256 2.851538 0.4880468
v 0.08361256 2.851538 0.4880468
v 0.1224039 2.289038 0.6714901
v -0.2786141 2.705705 0.749769
v 0.734312 1.889968 0.5678964
v 0.6339427 2.289038 0.3716727
v 0.7010121 2.289038 -0.2174489
v 0.5175688 2.851538 -0.1786575
v 0.5175688 1.726538 -0.1786575
v 0.7010121 2.289038 -0.2174489
v 0.3750039 1.610494 -0.6775926
v 0.734312 1.889968 0.5678964
v 0.2886875 2.705705 -0.5561384
v 0.4424784 2.289038 -0.8583306
v 0.7010121 2.289038 -0.2174489
v 0.5175688 2.851538 -0.1786575
v 0.6339427 2.289038 0.3716727
v 0.3819473 2.994975 0.3723174
v -0.7645999 1.943911 -0.4318595
v -0.7665351 2.289038 0.09288193
v -0.5830916 1.726538 0.05409052
v 0.2886875 2.705705 -0.5561384
v -0.1879269 2.289038 -0.7960571
v 0.4424784 2.289038 -0.8583306
v 0.2886875 2.705705 -0.5561384
v 0.7010121 2.289038 -0.2174489
v 0.5175688 2.851538 -0.1786575
v 0.08361256 2.851538 0.4880468
v -0.3947099 3.089963 0.01425502
v -0.2666648 3.410367 -0.03967624
v -0.1761778 1.726538 -0.8543137
v -0.6994657 2.289038 -0.4962396
v -0.7645999 1.943911 -0.4318595
v 0.3750039 1.610494 -0.6775926
v -0.1879269 2.289038 -0.7960571
v -0.1761778 1.726538 -0.8543137
v 0.3750039 1.610494 -0.6775926
v 0.7010121 2.289038 -0.2174489
v 0.4424784 2.289038 -0.8583306
v -0.2786141 2.705705 0.749769
v 0.1224039 2.289038 0.6714901
v -0.4667177 2.289038 0.6044207
v -0.2786141 2.705705 0.749769
v -0.7665351 2.289038 0.09288193
v -0.5830916 2.851538 0.05409062
v 0.08361256 2.851538 0.4880468
v 0.6339427 2.289038 0.3716727
v 0.1224039 2.289038 0.6714901
v 0.3819473 2.994975 0.3723174
v 0.1510899 3.319315 -0.1308263
v 0.5175688 2.851538 -0.1786575
v 0.734312 1.889968 0.5678964
v 0.1224039 2.289038 0.6714901
v 0.6339427 2.289038 0.3716727
v -0.5830916 2.851538 0.05409062
v -0.1491355 2.851538 -0.6126135
v -0.3947099 3.089963 0.01425502
v -0.1491355 2.851538 -0.6126135
v -0.5830916 2.851538 0.05409062
v -0.5266165 2.705705 -0.3837324
v -0.3947099 3.089963 0.01425502
v 0.08361256 2.851538 0.4880468
v -0.5830916 2.851538 0.05409062
v -0.1491355 2.851538 -0.6126135
v 0.1510899 3.319315 -0.1308263
v -0.2666648 3.410367 -0.03967624
v 0.1510899 3.319315 -0.1308263
v 0.3819473 2.994975 0.3723174
v -0.2666648 3.410367 -0.03967624
vt 0.1986214 0.3305121
vt 0.04074808 0.4521649
vt 0.1986214 0.4521649
vt 0.04074808 0.3305121
vt 0.3140093 0.831491
vt 0.4718826 0.9531438
vt 0.4718826 0.831491
vt 0.3140093 0.9531438
vt 0.4584874 0.9094601
vt 0.3006141 0.8988276
vt 0.3006141 0.9094601
vt 0.4584874 0.8988276
vt 0.4584874 0.9094601
vt 0.3006141 0.8988276
vt 0.3006141 0.9094601
vt 0.4584874 0.8988276
vt 0.4584874 0.9094601
vt 0.3006141 0.8988276
vt 0.3006141 0.9094601
vt 0.4584874 0.8988276
vt 0.4584874 0.9094601
vt 0.3006141 0.8988276
vt 0.3006141 0.9094601
vt 0.4584874 0.8988276
vt 0.04074808 0.4521649
vt 0.1986214 0.3305121
vt 0.1986214 0.4521649
vt 0.04074808 0.3305121
vt 0.04074808 0.4521649
vt 0.1986214 0.4521649
vt 0.1986214 0.4521649
vt 0.04074808 0.4521649
vt 0.04074808 0.4521649
vt 0.1986214 0.4521649
vt 0.04074808 0.3305121
vt 0.04074808 0.4521649
vt 0.1986214 0.4521649
vt 0.04074808 0.4521649
vt 0.1986214 0.3305121
vt 0.04074808 0.4521649
vt 0.04074808 0.3305121
vt 0.1986214 0.4521649
vt 0.1986214 0.4521649
vt 0.04074808 0.4325925
vt 0.04074808 0.4521649
vt 0.1986214 0.4325925
vt 0.04074808 0.3305121
vt 0.1986214 0.42196
vt 0.1986214 0.3305121
vt 0.04074808 0.42196
vt 0.1986214 0.4521649
vt 0.04074808 0.4325925
vt 0.04074808 0.4521649
vt 0.1986214 0.4325925
vt 0.04074808 0.3305121
vt 0.1986214 0.42196
vt 0.1986214 0.3305121
vt 0.04074808 0.42196
vt 0.1986214 0.4521649
vt 0.04074808 0.4325925
vt 0.04074808 0.4521649
vt 0.1986214 0.4325925
vt 0.04074808 0.3305121
vt 0.1986214 0.42196
vt 0.1986214 0.3305121
vt 0.04074808 0.42196
vt 0.1986214 0.4521649
vt 0.04074808 0.4325925
vt 0.04074808 0.4521649
vt 0.1986214 0.4325925
vt 0.04074808 0.3305121
vt 0.1986214 0.42196
vt 0.1986214 0.3305121
vt 0.04074808 0.42196
vt 0.6501312 0.321098
vt 0.7116791 0.2986926
vt 0.6501312 0.2986926
vt 0.7116791 0.2986926
vt 0.6501312 0.321098
vt 0.7116791 0.321098
vt 0.6501312 0.3435034
vt 0.7116791 0.321098
vt 0.6501312 0.321098
vt 0.7116791 0.321098
vt 0.6501312 0.3435034
vt 0.7116791 0.3435034
vt 0.6501312 0.321098
vt 0.5885832 0.3435034
vt 0.6501312 0.3435034
vt 0.5885832 0.3435034
vt 0.6501312 0.321098
vt 0.5885832 0.321098
vt 0.6501312 0.2986926
vt 0.5885832 0.321098
vt 0.6501312 0.321098
vt 0.5885832 0.321098
vt 0.6501312 0.2986926
vt 0.5885832 0.2986926
vt 0.5885832 0.2986926
vt 0.6133692 0.321098
vt 0.6501312 0.2986926
vt 0.6133692 0.321098
vt 0.5885832 0.2986926
vt 0.5885832 0.321098
vt 0.6501312 0.2986926
vt 0.6501312 0.321098
vt 0.6906108 0.321098
vt 0.6501312 0.3435034
vt 0.7116791 0.3435034
vt 0.7116791 0.321098
vt 0.6501312 0.3435034
vt 0.6501312 0.321098
vt 0.5885832 0.3435034
vt 0.5885832 0.2986926
vt 0.5885832 0.321098
vt 0.6501312 0.321098
vt 0.6501312 0.2986926
vt 0.6501312 0.321098
vt 0.7116791 0.321098
vt 0.6501312 0.321098
vt 0.7116791 0.3435034
vt 0.7116791 0.321098
vt 0.7116791 0.3435034
vt 0.6501312 0.321098
vt 0.6501312 0.3435034
vt 0.6501312 0.3435034
vt 0.6501312 0.321098
vt 0.5885832 0.3435034
vt 0.5885832 0.2986926
vt 0.5885832 0.321098
vt 0.6501312 0.321098
vt 0.7116791 0.321098
vt 0.6501312 0.2986926
vt 0.6501312 0.321098
vt 0.6501312 0.2986926
vt 0.7116791 0.321098
vt 0.7116791 0.2986926
vt 0.7116791 0.3435034
vt 0.7116791 0.321098
vt 0.6501312 0.321098
vt 0.5885832 0.321098
vt 0.6501312 0.3435034
vt 0.6501312 0.321098
vt 0.6501312 0.3435034
vt 0.5885832 0.321098
vt 0.5885832 0.3435034
vt 0.6501312 0.321098
vt 0.5885832 0.2986926
vt 0.5885832 0.321098
vt 0.5885832 0.2986926
vt 0.6501312 0.321098
vt 0.6501312 0.2986926
vt 0.6501312 0.2986926
vt 0.6501312 0.321098
vt 0.7116791 0.2986926
vt 0.7116791 0.3435034
vt 0.7116791 0.321098
vt 0.6501312 0.3435034
vt 0.6501312 0.3435034
vt 0.6501312 0.321098
vt 0.5885832 0.3435034
vt 0.5885832 0.2986926
vt 0.5885832 0.321098
vt 0.6501312 0.321098
vt 0.6501312 0.3435034
vt 0.6501312 0.2986926
vt 0.6501312 0.321098
vt 0.7116791 0.2986926
vt 0.5885832 0.2986926
vt 0.7116791 0.3435034
vt 0.7116791 0.321098
vt 0.6501312 0.321098
vt 0.6501312 0.3435034
vt 0.5885832 0.321098
vt 0.5885832 0.3435034
vt 0.5885832 0.2986926
vt 0.6501312 0.321098
vt 0.6501312 0.2986926
vt 0.5885832 0.3435034
vt 0.6501312 0.321098
vt 0.5885832 0.321098
vt 0.7116791 0.3435034
vt 0.6501312 0.321098
vt 0.6501312 0.3435034
vt 0.6501312 0.3435034
vt 0.6906108 0.321098
vt 0.6501312 0.321098
vt 0.6501312 0.2986926
vt 0.7116791 0.321098
vt 0.7116791 0.2986926
vt 0.5885832 0.2986926
vt 0.6501312 0.321098
vt 0.6501312 0.2986926
vt 0.7116791 0.2986926
vt 0.6501312 0.321098
vt 0.7116791 0.321098
vt 0.5885832 0.3435034
vt 0.6501312 0.321098
vt 0.5885832 0.321098
vt 0.7116791 0.3435034
vt 0.6501312 0.321098
vt 0.6501312 0.3435034
vt 0.6501312 0.3435034
vt 0.7116791 0.321098
vt 0.6501312 0.321098
vt 0.5885832 0.3435034
vt 0.6133692 0.321098
vt 0.5885832 0.321098
vt 0.7116791 0.2986926
vt 0.6501312 0.321098
vt 0.7116791 0.321098
vt 0.7116791 0.321098
vt 0.6501312 0.2986926
vt 0.6906108 0.321098
vt 0.6501312 0.2986926
vt 0.7116791 0.321098
vt 0.7116791 0.2986926
vt 0.6906108 0.321098
vt 0.6501312 0.3435034
vt 0.7116791 0.321098
vt 0.6501312 0.2986926
vt 0.6133692 0.321098
vt 0.6501312 0.321098
vt 0.6133692 0.321098
vt 0.5885832 0.3435034
vt 0.6501312 0.321098
vn 0 -1 0
vn 0 -1 0
vn 0 -1 0
vn 0 -1 0
vn 0 1 0
vn 0 1 0
vn 0 1 0
vn 0 1 0
vn 0 0 1
vn 0 0 1
vn 0 0 1
vn 0 0 1
vn 1 0 0
vn 1 0 0
vn 1 0 0
vn 1 0 0
vn 0 0 -1
vn 0 0 -1
vn 0 0 -1
vn 0 0 -1
vn -1 0 0
vn -1 0 0
vn -1 0 0
vn -1 0 0
vn 0 1 0
vn 0 1 0
vn 0 1 0
vn 0 1 0
vn 0 1 0
vn 0 1 0
vn 0 1 0
vn 0 1 0
vn 0 1 0
vn 0 1 0
vn 0 1 0
vn 0 1 0
vn 0 1 0
vn 0 1 0
vn 0 1 0
vn 0 1 0
vn 0 1 0
vn 0 1 0
vn 0 0 1
vn 0 0 1
vn 0 0 1
vn 0 0 1
vn 0 0 1
vn 0 0 1
vn 0 0 1
vn 0 0 1
vn 1 0 0
vn 1 0 0
vn 1 0 0
vn 1 0 0
vn 1 0 0
vn 1 0 0
vn 1 0 0
vn 1 0 0
vn 0 0 -1
vn 0 0 -1
vn 0 0 -1
vn 0 0 -1
vn 0 0 -1
vn 0 0 -1
vn 0 0 -1
vn 0 0 -1
vn -1 0 0
vn -1 0 0
vn -1 0 0
vn -1 0 0
vn -1 0 0
vn -1 0 0
vn -1 0 0
vn -1 0 0
vn -0.1385098 -0.969054 -0.2043268
vn -0.1385098 -0.969054 -0.2043269
vn -0.1385098 -0.969054 -0.2043269
vn 0.3426401 -0.9319195 0.1188437
vn 0.3426402 -0.9319195 0.1188437
vn 0.3426402 -0.9319195 0.1188437
vn 0.3573669 -0.904534 0.2326093
vn 0.3573669 -0.904534 0.2326093
vn 0.3573669 -0.904534 0.2326093
vn 0.2241132 -0.9635839 0.1458748
vn 0.2241132 -0.9635839 0.1458748
vn 0.2241132 -0.9635839 0.1458748
vn -0.336239 -0.8674725 0.3666536
vn -0.336239 -0.8674725 0.3666536
vn -0.336239 -0.8674725 0.3666536
vn -0.1991494 -0.8674725 0.4558849
vn -0.1991494 -0.8674725 0.4558848
vn -0.1991494 -0.8674725 0.4558848
vn -0.3479299 -0.9244753 -0.155853
vn -0.3479299 -0.9244753 -0.155853
vn -0.34793 -0.9244753 -0.155853
vn -0.4676231 -0.85875 -0.2094687
vn -0.467623 -0.85875 -0.2094687
vn -0.467623 -0.85875 -0.2094687
vn 0.2931383 0.5881733 -0.7537388
vn 0.2931383 0.5881732 -0.7537388
vn 0.2931383 0.5881732 -0.7537388
vn 0.6119387 0.5386394 -0.5791361
vn 0.6119387 0.5386394 -0.5791361
vn 0.6119387 0.5386394 -0.5791361
vn -0.8576478 0.2689743 -0.4382842
vn -0.8576478 0.2689743 -0.4382842
vn -0.8576478 0.2689744 -0.4382842
vn -0.1801026 0.9439284 0.2766988
vn -0.1801026 0.9439284 0.2766988
vn -0.1801026 0.9439285 0.2766987
vn -0.03750051 0.6735743 0.7381676
vn -0.03750052 0.6735742 0.7381676
vn -0.03750051 0.6735742 0.7381676
vn -0.09524983 -0.2473621 -0.96423
vn -0.09524982 -0.2473621 -0.96423
vn -0.09524982 -0.2473621 -0.96423
vn -0.5040944 0.07854598 -0.8600694
vn -0.5040944 0.07854598 -0.8600694
vn -0.5040944 0.07854597 -0.8600694
vn -0.4623704 0.4048206 -0.7888814
vn -0.4623704 0.4048206 -0.7888814
vn -0.4623704 0.4048206 -0.7888814
vn -0.5755308 0.2891578 -0.7649523
vn -0.5755309 0.2891578 -0.7649523
vn -0.5755309 0.2891578 -0.7649523
vn 0.216593 0.2891578 -0.9324566
vn 0.216593 0.2891578 -0.9324566
vn 0.216593 0.2891578 -0.9324566
vn -0.9801033 0.1641558 -0.1115813
vn -0.9801033 0.1641558 -0.1115813
vn -0.9801033 0.1641558 -0.1115813
vn -0.8225853 -0.3015115 0.4821246
vn -0.8225854 -0.3015115 0.4821246
vn -0.8225853 -0.3015115 0.4821246
vn -0.6897455 -0.4283929 0.5837213
vn -0.6897455 -0.4283929 0.5837213
vn -0.6897455 -0.4283929 0.5837213
vn -0.8437905 0.2084101 0.4945531
vn -0.8437905 0.2084101 0.4945531
vn -0.8437905 0.2084101 0.4945531
vn -0.9473431 0.3015114 -0.1078517
vn -0.9473431 0.3015114 -0.1078517
vn -0.9473431 0.3015114 -0.1078517
vn -0.8670036 0.428393 -0.2545278
vn -0.8670035 0.428393 -0.2545277
vn -0.8670035 0.428393 -0.2545277
vn -0.1034326 -0.4048203 0.9085275
vn -0.1034326 -0.4048203 0.9085275
vn -0.1034327 -0.4048203 0.9085276
vn -0.2165931 -0.2891575 0.9324566
vn -0.2165931 -0.2891575 0.9324566
vn -0.2165931 -0.2891575 0.9324566
vn -0.03948017 -0.3073467 0.9507782
vn -0.03948017 -0.3073467 0.9507782
vn -0.03948017 -0.3073466 0.9507782
vn 0.3126982 0.110761 0.9433726
vn 0.3126982 0.110761 0.9433726
vn 0.3126982 0.110761 0.9433726
vn 0.4753245 0.3022427 0.8262663
vn 0.4753245 0.3022426 0.8262663
vn 0.4753245 0.3022427 0.8262663
vn 0.9502249 0.2921813 0.1081797
vn 0.9502249 0.2921813 0.1081797
vn 0.9502249 0.2921813 0.1081797
vn 0.9473432 0.3015112 0.1078516
vn 0.9290684 -0.3162245 -0.1919219
vn 0.9290684 -0.3162245 -0.1919219
vn 0.9290684 -0.3162245 -0.1919219
vn 0.9273605 -0.3162253 -0.2000102
vn 0.7904356 0.523008 -0.3188642
vn 0.7904356 0.523008 -0.3188642
vn 0.7904356 0.523008 -0.3188642
vn 0.9321759 0.3326246 0.1428603
vn 0.9321759 0.3326246 0.1428603
vn 0.9321759 0.3326246 0.1428603
vn -0.92637 -0.3162165 0.2045622
vn -0.92637 -0.3162165 0.2045622
vn -0.92637 -0.3162165 0.2045622
vn -0.08108428 0.565388 -0.8208299
vn -0.08108428 0.565388 -0.8208299
vn -0.08108427 0.565388 -0.8208299
vn 0.7649523 0.2891574 -0.5755311
vn 0.7649523 0.2891574 -0.575531
vn 0.7649523 0.2891574 -0.5755311
vn -0.564621 0.3513519 0.74683
vn -0.564621 0.3513519 0.74683
vn -0.564621 0.3513519 0.74683
vn -0.5920987 -0.03841147 -0.8049495
vn -0.5920987 -0.03841147 -0.8049495
vn -0.5920987 -0.03841147 -0.8049495
vn 0.3234709 0.1041602 -0.9404877
vn 0.323471 0.1041602 -0.9404877
vn 0.3234709 0.1041602 -0.9404877
vn 0.9107717 -0.1884306 -0.3674082
vn 0.9107717 -0.1884306 -0.3674082
vn 0.9107717 -0.1884306 -0.3674082
vn -0.1084778 -0.2834136 0.9528428
vn -0.1084778 -0.2834136 0.9528428
vn -0.1084778 -0.2834136 0.9528428
vn -0.8468671 0.3061687 0.4348297
vn -0.8468671 0.3061686 0.4348296
vn -0.8468671 0.3061687 0.4348297
vn 0.4821247 0.3015112 0.8225854
vn 0.4821247 0.3015112 0.8225854
vn 0.4821247 0.3015112 0.8225854
vn 0.7884182 0.6141896 0.03417397
vn 0.7884182 0.6141896 0.03417397
vn 0.7884182 0.6141896 0.03417397
vn 0.4428051 0.48285 0.7554995
vn 0.4428051 0.4828499 0.7554996
vn 0.4428051 0.4828499 0.7554996
vn -0.7277942 0.4958885 -0.4737195
vn -0.7277942 0.4958885 -0.4737195
vn -0.7277942 0.4958885 -0.4737195
vn -0.5077536 0.7955872 -0.3304956
vn -0.5077535 0.7955872 -0.3304955
vn -0.5077535 0.7955872 -0.3304955
vn -0.4737196 0.4958885 0.7277942
vn -0.4737195 0.4958885 0.7277942
vn -0.4737196 0.4958885 0.7277942
vn 0.003851169 0.7162555 -0.6978275
vn 0.003851169 0.7162555 -0.6978276
vn 0.003851169 0.7162555 -0.6978276
vn 0.2804119 0.8602347 0.4258701
vn 0.2804119 0.8602347 0.4258701
vn 0.2804119 0.8602347 0.4258702
g M_SA_Botany_01_0
f 3/3/3 2/2/2 1/1/1
f 4/4/4 1/1/1 2/2/2
f 7/7/7 6/6/6 5/5/5
f 8/8/8 5/5/5 6/6/6
f 11/11/11 10/10/10 9/9/9
f 12/12/12 9/9/9 10/10/10
f 15/15/15 14/14/14 13/13/13
f 16/16/16 13/13/13 14/14/14
f 19/19/19 18/18/18 17/17/17
f 20/20/20 17/17/17 18/18/18
f 23/23/23 22/22/22 21/21/21
f 24/24/24 21/21/21 22/22/22
f 27/27/27 26/26/26 25/25/25
f 28/28/28 25/25/25 26/26/26
f 31/31/31 30/30/30 29/29/29
f 30/30/30 33/33/33 32/32/32
f 34/34/34 32/32/32 33/33/33
f 32/32/32 36/36/36 35/35/35
f 39/39/39 38/38/38 37/37/37
f 42/42/42 41/41/41 40/40/40
f 45/45/45 44/44/44 43/43/43
f 46/46/46 43/43/43 44/44/44
f 49/49/49 48/48/48 47/47/47
f 50/50/50 47/47/47 48/48/48
f 53/53/53 52/52/52 51/51/51
f 54/54/54 51/51/51 52/52/52
f 57/57/57 56/56/56 55/55/55
f 58/58/58 55/55/55 56/56/56
f 61/61/61 60/60/60 59/59/59
f 62/62/62 59/59/59 60/60/60
f 65/65/65 64/64/64 63/63/63
f 66/66/66 63/63/63 64/64/64
f 69/69/69 68/68/68 67/67/67
f 70/70/70 67/67/67 68/68/68
f 73/73/73 72/72/72 71/71/71
f 74/74/74 71/71/71 72/72/72
f 77/77/77 76/76/76 75/75/75
f 80/80/80 79/79/79 78/78/78
f 83/83/83 82/82/82 81/81/81
f 86/86/86 85/85/85 84/84/84
f 89/89/89 88/88/88 87/87/87
f 92/92/92 91/91/91 90/90/90
f 95/95/95 94/94/94 93/93/93
f 98/98/98 97/97/97 96/96/96
f 101/101/101 100/100/100 99/99/99
f 104/104/104 103/103/103 102/102/102
f 107/107/107 106/106/106 105/105/105
f 110/110/110 109/109/109 108/108/108
f 113/113/113 112/112/112 111/111/111
f 116/116/116 115/115/115 114/114/114
f 119/119/119 118/118/118 117/117/117
f 122/122/122 121/121/121 120/120/120
f 125/125/125 124/124/124 123/123/123
f 128/128/128 127/127/127 126/126/126
f 131/131/131 130/130/130 129/129/129
f 134/134/134 133/133/133 132/132/132
f 137/137/137 136/136/136 135/135/135
f 140/140/140 139/139/139 138/138/138
f 143/143/143 142/142/142 141/141/141
f 146/146/146 145/145/145 144/144/144
f 149/149/149 148/148/148 147/147/147
f 152/152/152 151/151/151 150/150/150
f 155/155/155 154/154/154 153/153/153
f 158/158/158 157/157/157 156/156/156
f 161/161/161 160/160/160 159/159/159
f 164/164/164 163/163/163 162/162/162
f 164/164/164 165/165/165 163/163/163
f 168/168/168 167/167/167 166/166/166
f 166/166/166 167/167/167 169/169/169
f 172/172/172 171/171/171 170/170/170
f 175/175/175 174/174/174 173/173/173
f 178/178/178 177/177/177 176/176/176
f 181/181/181 180/180/180 179/179/179
f 184/184/184 183/183/183 182/182/182
f 187/187/187 186/186/186 185/185/185
f 190/190/190 189/189/189 188/188/188
f 193/193/193 192/192/192 191/191/191
f 196/196/196 195/195/195 194/194/194
f 199/199/199 198/198/198 197/197/197
f 202/202/202 201/201/201 200/200/200
f 205/205/205 204/204/204 203/203/203
f 208/208/208 207/207/207 206/206/206
f 211/211/211 210/210/210 209/209/209
f 214/214/214 213/213/213 212/212/212
f 217/217/217 216/216/216 215/215/215
f 220/220/220 219/219/219 218/218/218
f 223/223/223 222/222/222 221/221/221
f 226/226/226 225/225/225 224/224/224
