g M_SA_Painting_08
v -0.3 5.1881E-09 -0.03184433
v -0.3 0.6 0.03184443
v -0.3 -5.1881E-09 0.03184433
v -0.3 0.6 -0.03184423
v -0.3 0.6 -0.03184423
v 0.3 0.6 0.03184443
v -0.3 0.6 0.03184443
v 0.3 0.6 -0.03184423
v 0.3 0.6 -0.03184423
v 0.3 -5.1881E-09 0.03184433
v 0.3 0.6 0.03184443
v 0.3 5.1881E-09 -0.03184433
v 0.3 5.1881E-09 -0.03184433
v -0.3 -5.1881E-09 0.03184433
v 0.3 -5.1881E-09 0.03184433
v -0.3 5.1881E-09 -0.03184433
v 0.3 5.1881E-09 -0.03184433
v -0.3 0.6 -0.03184423
v -0.3 5.1881E-09 -0.03184433
v 0.3 0.6 -0.03184423
v -0.3 -5.1881E-09 0.03184433
v 0.2556381 0.04436198 0.03184434
v 0.3 -5.1881E-09 0.03184433
v -0.2556381 0.04436198 0.03184434
v 0.2556381 0.555638 0.03184442
v 0.3 0.6 0.03184443
v -0.2556381 0.555638 0.03184442
v -0.3 0.6 0.03184443
v -0.2556381 0.04436198 0.03184434
v 0.2344791 0.06552075 0.001392865
v 0.2556381 0.04436198 0.03184434
v -0.2344791 0.06552075 0.001392865
v 0.2556381 0.04436198 0.03184434
v 0.2344791 0.5344792 0.001392941
v 0.2556381 0.555638 0.03184442
v 0.2344791 0.422481 0.001392923
v 0.2344791 0.2763629 0.001392899
v 0.2344791 0.06552075 0.001392865
v 0.2556381 0.555638 0.03184442
v -0.2344791 0.5344792 0.001392941
v -0.2556381 0.555638 0.03184442
v -0.08397617 0.5344793 0.001392941
v 0.2344791 0.5344792 0.001392941
v -0.2556381 0.555638 0.03184442
v -0.2344791 0.06552075 0.001392865
v -0.2556381 0.04436198 0.03184434
v -0.2344785 0.2182974 0.001392891
v -0.2344785 0.2763629 0.0013929
v -0.2344791 0.5344792 0.001392941
v -0.1826952 0.3411859 0.001392687
v -0.2344785 0.2763629 0.0013929
v -0.2344791 0.5344792 0.001392941
v -0.1731108 0.2763629 0.001392677
v -0.1650398 0.3411859 0.001392687
v -0.09783496 0.3594348 0.00139269
v -0.112833 0.3913452 0.001392696
v -0.09779891 0.4104192 0.001392699
v -0.06930599 0.4171836 0.0013927
v -0.07323818 0.3952484 0.001392696
v 0.03302536 0.4001772 0.001392697
v -0.05356807 0.4139832 0.001392699
v -0.009492301 0.3856542 0.001392695
v -0.01142235 0.3522226 0.001392689
v -0.03639908 0.3720522 0.001392693
v 0.01216164 0.5044973 0.001392711
v -0.08397617 0.5344793 0.001392941
v 0.1054476 0.3561234 0.00139269
v 0.06172771 0.3814452 0.001392694
v 0.07413425 0.3555119 0.00139269
v 0.1977917 0.341186 0.001392687
v 0.1429556 0.4978794 0.00139271
v 0.2167482 0.44106 0.001392819
v 0.2344791 0.2763629 0.001392899
v 0.2344791 0.422481 0.001392923
v 0.1742151 0.2763629 0.001392677
v 0.1125921 0.3453595 0.001392688
v 0.1788397 0.3411859 0.001392687
v 0.1126173 0.1881651 0.001392663
v -0.1364382 0.1604741 0.001392707
v -0.1078468 0.1881651 0.001392663
v 0.09475536 0.112791 0.001392647
v -0.05987205 0.1074222 0.001392646
v 0.2344791 0.06552075 0.001392865
v -0.1566999 0.226623 0.001392669
v -0.2344785 0.2763629 0.0013929
v -0.2344785 0.2182974 0.001392891
v -0.1731108 0.2763629 0.001392677
v 0.1581379 0.226623 0.001392669
v 0.1742151 0.2763629 0.001392677
v 0.2344791 0.2763629 0.001392899
v 0.1191828 0.2757018 0.001392677
v 0.1788397 0.3411859 0.001392687
v 0.1977917 0.341186 0.001392687
v 0.1338243 0.3133704 0.001392683
v 0.1039352 0.2949018 0.00139268
v -0.09024925 0.2949018 0.00139268
v -0.09433936 0.273159 0.001392676
v 0.03721904 0.2949018 0.00139268
v -0.005358124 0.2949018 0.00139268
v -0.02740974 0.2949018 0.00139268
v -0.1826952 0.3411859 0.001392687
v -0.09024925 0.2949018 0.00139268
v -0.1365068 0.3235283 0.00139268
v -0.1650398 0.3411859 0.001392687
v -0.03016491 0.3157376 0.001392683
v -0.06820049 0.3544992 0.00139269
v -0.03454914 0.3488946 0.001392689
v -0.02740974 0.2949018 0.00139268
v -0.1072351 0.3507066 0.001392689
v -0.09783496 0.3594348 0.00139269
v -0.1365068 0.3235283 0.00139268
v -0.09024925 0.2949018 0.00139268
v 0.1338243 0.3133704 0.001392683
v 0.1054476 0.3561234 0.00139269
v 0.1125921 0.3453595 0.001392688
v 0.07413425 0.3555119 0.00139269
v 0.06787433 0.3553896 0.00139269
v 0.05293064 0.3417624 0.001392688
v 0.04200382 0.3317981 0.001392686
v 0.03721904 0.2949018 0.00139268
v 0.1039352 0.2949018 0.00139268
v -0.03639908 0.3720522 0.001392693
v -0.06930599 0.4171836 0.0013927
v -0.05356807 0.4139832 0.001392699
v -0.07323818 0.3952484 0.001392696
v -0.01142235 0.3522226 0.001392689
v 0.005104064 0.3391013 0.001392687
v -0.03454914 0.3488946 0.001392689
v -0.06820049 0.3544992 0.00139269
v -0.07587718 0.3805289 0.001392694
v -0.005358124 0.2949018 0.00139268
v -0.03016491 0.3157376 0.001392683
v 0.04200382 0.3317981 0.001392686
v 0.03721904 0.2949018 0.00139268
v 0.05293064 0.3417624 0.001392688
v -0.09779891 0.4104192 0.001392699
v -0.09783496 0.3594348 0.00139269
v -0.112833 0.3913452 0.001392696
v -0.07587718 0.3805289 0.001392694
v -0.06820049 0.3544992 0.00139269
v -0.07323818 0.3952484 0.001392696
v -0.005358124 0.2949018 0.00139268
v -0.02740974 0.2949018 0.00139268
v -0.03016491 0.3157376 0.001392683
v 0.1788397 0.3411859 0.001392687
v 0.1338243 0.3133704 0.001392683
v 0.1125921 0.3453595 0.001392688
v 0.06172771 0.3814452 0.001392694
v -0.009492301 0.3856542 0.001392695
v 0.03302536 0.4001772 0.001392697
v 0.06787433 0.3553896 0.00139269
v 0.005104064 0.3391013 0.001392687
v -0.01142235 0.3522226 0.001392689
v 0.05293064 0.3417624 0.001392688
v 0.07413425 0.3555119 0.00139269
v -0.1650398 0.3411859 0.001392687
v -0.09783496 0.3594348 0.00139269
v -0.1072351 0.3507066 0.001392689
v -0.1072351 0.3507066 0.001392689
v -0.1365068 0.3235283 0.00139268
v -0.1650398 0.3411859 0.001392687
v -0.1078468 0.1881651 0.001392663
v 0.1581379 0.226623 0.001392669
v 0.1126173 0.1881651 0.001392663
v -0.1731108 0.2763629 0.001392677
v -0.1566999 0.226623 0.001392669
v 0.1742151 0.2763629 0.001392677
v 0.1191828 0.2757018 0.001392677
v 0.1977917 0.341186 0.001392687
v 0.1581379 0.226623 0.001392669
v -0.09433936 0.273159 0.001392676
v -0.09433936 0.273159 0.001392676
v -0.1731108 0.2763629 0.001392677
v -0.1826952 0.3411859 0.001392687
v 0.1581379 0.226623 0.001392669
v -0.1364382 0.1604741 0.001392707
v -0.2344791 0.06552075 0.001392865
v -0.2344785 0.2182974 0.001392891
v -0.05987205 0.1074222 0.001392646
v 0.09475536 0.112791 0.001392647
v 0.2344791 0.06552075 0.001392865
v 0.2167482 0.44106 0.001392819
v 0.2344791 0.5344792 0.001392941
v 0.2344791 0.422481 0.001392923
v 0.1429556 0.4978794 0.00139271
v 0.01216164 0.5044973 0.001392711
v -0.08397617 0.5344793 0.001392941
vt 0.1745017 0.4006119
vt 0.1745016 0.400612
vt 0.1745016 0.4006119
vt 0.1745017 0.400612
vt 0.2352642 0.400612
vt 0.2352641 0.400612
vt 0.2352641 0.400612
vt 0.2352642 0.400612
vt 0.1745017 0.400612
vt 0.1745016 0.4006119
vt 0.1745016 0.400612
vt 0.1745017 0.4006119
vt 0.1402003 0.4006119
vt 0.1402002 0.4006119
vt 0.1402002 0.4006119
vt 0.1402003 0.4006119
vt 0.2009627 0.4006119
vt 0.2009628 0.400612
vt 0.2009628 0.4006119
vt 0.2009627 0.400612
vt 0.2009627 0.4006119
vt 0.2009627 0.4006119
vt 0.2009627 0.4006119
vt 0.2009627 0.4006119
vt 0.2009627 0.400612
vt 0.2009627 0.400612
vt 0.2009627 0.400612
vt 0.2009627 0.400612
vt 0.1720001 0.4006119
vt 0.1720001 0.4006119
vt 0.1720001 0.4006119
vt 0.1720001 0.4006119
vt 0.1720001 0.4006119
vt 0.1720001 0.400612
vt 0.1720001 0.400612
vt 0.1720001 0.400612
vt 0.1720001 0.4006119
vt 0.1720001 0.4006119
vt 0.1720001 0.400612
vt 0.1720001 0.400612
vt 0.1720001 0.400612
vt 0.1720001 0.4006119
vt 0.1720001 0.400612
vt 0.2009627 0.400612
vt 0.2009627 0.4006119
vt 0.2009627 0.4006119
vt 0.2009627 0.4006119
vt 0.2009627 0.400612
vt 0.2009627 0.400612
vt 0.1965132 0.4436156
vt 0.1965132 0.4436156
vt 0.1965132 0.4436156
vt 0.1965132 0.4436155
vt 0.1965132 0.4436155
vt 0.1965132 0.4436155
vt 0.1965132 0.4436155
vt 0.1965132 0.4436155
vt 0.1965132 0.4436156
vt 0.1965132 0.4436156
vt 0.1965132 0.4436156
vt 0.1965132 0.4436156
vt 0.1965132 0.4436155
vt 0.1965132 0.4436156
vt 0.1965132 0.4436155
vt 0.1965132 0.4436156
vt 0.1965132 0.4436156
vt 0.1965132 0.4436156
vt 0.1965132 0.4436156
vt 0.1965132 0.4436155
vt 0.1965132 0.4436156
vt 0.1965132 0.4436156
vt 0.1965132 0.4436156
vt 0.1965132 0.4436155
vt 0.1965132 0.4436156
vt 0.1965132 0.4436156
vt 0.1965132 0.4436156
vt 0.1965132 0.4436155
vt 0.1028084 0.4436155
vt 0.1028084 0.4436155
vt 0.1028084 0.4436155
vt 0.1028084 0.4436155
vt 0.1028084 0.4436155
vt 0.1028084 0.4436155
vt 0.1028084 0.4436155
vt 0.1028084 0.4436156
vt 0.1028084 0.4436156
vt 0.1028084 0.4436155
vt 0.1028084 0.4436155
vt 0.1028084 0.4436156
vt 0.1028084 0.4436155
vt 0.1992894 0.04625636
vt 0.1992894 0.04625639
vt 0.1992894 0.04625642
vt 0.1992894 0.04625636
vt 0.1992894 0.04625636
vt 0.1992894 0.04625636
vt 0.1992894 0.04625636
vt 0.1992894 0.04625636
vt 0.1992894 0.04625636
vt 0.1992894 0.04625636
vt 0.1992894 0.04625642
vt 0.1992894 0.04625636
vt 0.1992894 0.04625636
vt 0.1992894 0.04625639
vt 0.17068 0.3755263
vt 0.17068 0.3755263
vt 0.17068 0.3755263
vt 0.17068 0.3755263
vt 0.17068 0.3755263
vt 0.17068 0.3755263
vt 0.17068 0.3755263
vt 0.17068 0.3755263
vt 0.1742415 0.4186245
vt 0.1742415 0.4186245
vt 0.1742415 0.4186245
vt 0.1742415 0.4186245
vt 0.1742415 0.4186245
vt 0.1742415 0.4186245
vt 0.1742415 0.4186245
vt 0.1742415 0.4186245
vt 0.1742415 0.4186245
vt 0.171709 0.2203777
vt 0.171709 0.2203777
vt 0.171709 0.2203777
vt 0.171709 0.2203777
vt 0.171709 0.2203777
vt 0.171709 0.2203777
vt 0.171709 0.2203777
vt 0.171709 0.2203777
vt 0.171709 0.2203777
vt 0.171709 0.2203777
vt 0.171709 0.2203777
vt 0.171709 0.2203777
vt 0.171709 0.2203777
vt 0.171709 0.2203777
vt 0.1395554 0.2203777
vt 0.1395554 0.2203777
vt 0.1395554 0.2203777
vt 0.1395554 0.2203777
vt 0.1395554 0.2203777
vt 0.1395554 0.2203777
vt 0.1395554 0.2203777
vt 0.1395554 0.2203777
vt 0.1395554 0.2203777
vt 0.1125698 0.04680252
vt 0.1125698 0.04680252
vt 0.1125698 0.04680252
vt 0.17068 0.3755263
vt 0.17068 0.3755263
vt 0.17068 0.3755263
vt 0.17068 0.3755263
vt 0.17068 0.3755263
vt 0.17068 0.3755263
vt 0.17068 0.3755263
vt 0.17068 0.3755263
vt 0.1965132 0.4436155
vt 0.1965132 0.4436155
vt 0.1965132 0.4436155
vt 0.1125698 0.04680252
vt 0.1125698 0.04680252
vt 0.1125698 0.04680252
vt 0.140905 0.04624882
vt 0.140905 0.04624885
vt 0.140905 0.04624882
vt 0.140905 0.04624885
vt 0.140905 0.04624882
vt 0.140905 0.04624887
vt 0.140905 0.04624882
vt 0.140905 0.04624888
vt 0.140905 0.04624885
vt 0.140905 0.04624882
vt 0.140905 0.04624882
vt 0.140905 0.04624885
vt 0.140905 0.04624888
vt 0.140905 0.04624885
vt 0.07616687 0.4436155
vt 0.07616687 0.4436155
vt 0.07616687 0.4436156
vt 0.07616686 0.4436155
vt 0.07616686 0.4436155
vt 0.07616687 0.4436155
vt 0.1698716 0.4436156
vt 0.1698716 0.4436156
vt 0.1698716 0.4436156
vt 0.1698716 0.4436156
vt 0.1698716 0.4436156
vt 0.1698716 0.4436156
vn -1 0 0
vn -1 0 0
vn -1 0 0
vn -1 0 0
vn 0 1 0
vn 0 1 0
vn 0 1 0
vn 0 1 0
vn 1 0 0
vn 1 0 0
vn 1 0 0
vn 1 0 0
vn 0 -1 0
vn 0 -1 0
vn 0 -1 0
vn 0 -1 0
vn 0 0 -1
vn 0 0 -1
vn 0 0 -1
vn 0 0 -1
vn 0 0 1
vn 0 0 1
vn 0 0 1
vn 0 0 1
vn 0 0 1
vn 0 0 1
vn 0 0 1
vn 0 0 1
vn 0 0.8212193 0.5706127
vn 0 0.8212194 0.5706126
vn 0 0.8212193 0.5706127
vn 0 0.8212194 0.5706126
vn -0.8212167 0 0.5706164
vn -0.8212167 0 0.5706164
vn -0.8212167 0 0.5706164
vn -0.8212166 0 0.5706165
vn -0.8212166 0 0.5706165
vn -0.8212167 0 0.5706164
vn 0 -0.8212161 0.5706173
vn 0 -0.8212209 0.5706105
vn 0 -0.8212161 0.5706173
vn 0 -0.8212209 0.5706105
vn 0 -0.8212209 0.5706105
vn 0.8212116 0 0.5706238
vn 0.8212132 0 0.5706214
vn 0.8212116 0 0.5706238
vn 0.821212 0 0.5706232
vn 0.821212 0 0.5706232
vn 0.8212132 0 0.5706214
vn 0 0 1
vn 0 0 1
vn 0 0 1
vn 0 0 1
vn 0 0 1
vn 0 0 1
vn 0 0 1
vn 0 0 1
vn 0 0 1
vn 0 0 1
vn 0 0 1
vn 0 0 1
vn 0 0 1
vn 0 0 1
vn 0 0 1
vn 0 0 1
vn 0 0 1
vn 0 0 1
vn 0 0 1
vn 0 0 1
vn 0 0 1
vn 0 0 1
vn 0 0 1
vn 0 0 1
vn 0 0 1
vn 0 0 1
vn 0 0 1
vn 0 0 1
vn 0 0 1
vn 0 0 1
vn 0 0 1
vn 0 0 1
vn 0 0 1
vn 0 0 1
vn 0 0 1
vn 0 0 1
vn 0 0 1
vn 0 0 1
vn 0 0 1
vn 0 0 1
vn 0 0 1
vn 0 0 1
vn 0 0 1
vn 0 0 1
vn 0 0 1
vn 0 0 1
vn 0 0 1
vn 0 0 1
vn 0 0 1
vn 0 0 1
vn 0 0 1
vn 0 0 1
vn 0 0 1
vn 0 0 1
vn 0 0 1
vn 0 0 1
vn 0 0 1
vn 0 0 1
vn 0 0 1
vn 0 0 1
vn 0 0 1
vn 0 0 1
vn 0 0 1
vn 0 0 1
vn 0 0 1
vn 0 0 1
vn 0 0 1
vn 0 0 1
vn 0 0 1
vn 0 0 1
vn 0 0 1
vn 0 0 1
vn 0 0 1
vn 0 0 1
vn 0 0 1
vn 0 0 1
vn 0 0 1
vn 0 0 1
vn 0 0 1
vn 0 0 1
vn 0 0 1
vn 0 0 1
vn 0 0 1
vn 0 0 1
vn 0 0 1
vn 0 0 1
vn 0 0 1
vn 0 0 1
vn 0 0 1
vn 0 0 1
vn 0 0 1
vn 0 0 1
vn 0 0 1
vn 0 0 1
vn 0 0 1
vn 0 0 1
vn 0 0 1
vn 0 0 1
vn 0 0 1
vn 0 0 1
vn 0 0 1
vn 0 0 1
vn 0 0 1
vn 0 0 1
vn 0 0 1
vn 0 0 1
vn 0 0 1
vn 0 0 1
vn 0 0 1
vn 0 0 1
vn 0 0 1
vn 0 0 1
vn 0 0 1
vn 0 0 1
vn 0 0 1
vn 0 0 1
vn 0 0 1
vn 0 0 1
vn 0 0 1
vn 0 0 1
vn 0 0 1
vn 0 0 1
vn 0 0 1
vn 0 0 1
vn 0 0 1
vn 0 0 1
vn 0 0 1
vn 0 0 1
vn 0 0 1
vn 0 0 1
vn 0 0 1
vn 0 0 1
vn 0 0 1
vn 0 0 1
vn 0 0 1
vn 0 0 1
vn 0 0 1
vn 0 0 1
g M_SA_Painting_08_0
f 3/3/3 2/2/2 1/1/1
f 4/4/4 1/1/1 2/2/2
f 7/7/7 6/6/6 5/5/5
f 8/8/8 5/5/5 6/6/6
f 11/11/11 10/10/10 9/9/9
f 12/12/12 9/9/9 10/10/10
f 15/15/15 14/14/14 13/13/13
f 16/16/16 13/13/13 14/14/14
f 19/19/19 18/18/18 17/17/17
f 20/20/20 17/17/17 18/18/18
f 23/23/23 22/22/22 21/21/21
f 24/24/24 21/21/21 22/22/22
f 22/22/22 23/23/23 25/25/25
f 26/26/26 25/25/25 23/23/23
f 25/25/25 26/26/26 27/27/27
f 28/28/28 27/27/27 26/26/26
f 21/21/21 24/24/24 28/28/28
f 27/27/27 28/28/28 24/24/24
f 31/31/31 30/30/30 29/29/29
f 32/32/32 29/29/29 30/30/30
f 35/35/35 34/34/34 33/33/33
f 34/34/34 36/36/36 33/33/33
f 36/36/36 37/37/37 33/33/33
f 37/37/37 38/38/38 33/33/33
f 41/41/41 40/40/40 39/39/39
f 40/40/40 42/42/42 39/39/39
f 42/42/42 43/43/43 39/39/39
f 46/46/46 45/45/45 44/44/44
f 45/45/45 47/47/47 44/44/44
f 47/47/47 48/48/48 44/44/44
f 48/48/48 49/49/49 44/44/44
f 52/52/52 51/51/51 50/50/50
f 53/53/53 50/50/50 51/51/51
f 50/50/50 54/54/54 52/52/52
f 54/54/54 55/55/55 52/52/52
f 55/55/55 56/56/56 52/52/52
f 56/56/56 57/57/57 52/52/52
f 57/57/57 58/58/58 52/52/52
f 59/59/59 58/58/58 57/57/57
f 58/58/58 60/60/60 52/52/52
f 61/61/61 60/60/60 58/58/58
f 62/62/62 60/60/60 61/61/61
f 63/63/63 62/62/62 61/61/61
f 64/64/64 63/63/63 61/61/61
f 52/52/52 60/60/60 65/65/65
f 66/66/66 52/52/52 65/65/65
f 60/60/60 67/67/67 65/65/65
f 68/68/68 67/67/67 60/60/60
f 69/69/69 67/67/67 68/68/68
f 65/65/65 67/67/67 70/70/70
f 71/71/71 65/65/65 70/70/70
f 72/72/72 71/71/71 70/70/70
f 72/72/72 70/70/70 73/73/73
f 74/74/74 72/72/72 73/73/73
f 73/73/73 70/70/70 75/75/75
f 67/67/67 76/76/76 70/70/70
f 76/76/76 77/77/77 70/70/70
f 80/80/80 79/79/79 78/78/78
f 79/79/79 81/81/81 78/78/78
f 82/82/82 81/81/81 79/79/79
f 78/78/78 81/81/81 83/83/83
f 80/80/80 84/84/84 79/79/79
f 79/79/79 84/84/84 85/85/85
f 86/86/86 79/79/79 85/85/85
f 85/85/85 84/84/84 87/87/87
f 88/88/88 78/78/78 83/83/83
f 89/89/89 88/88/88 83/83/83
f 90/90/90 89/89/89 83/83/83
f 93/93/93 92/92/92 91/91/91
f 92/92/92 94/94/94 91/91/91
f 91/91/91 94/94/94 95/95/95
f 91/91/91 95/95/95 96/96/96
f 97/97/97 91/91/91 96/96/96
f 95/95/95 98/98/98 96/96/96
f 98/98/98 99/99/99 96/96/96
f 99/99/99 100/100/100 96/96/96
f 97/97/97 102/102/102 101/101/101
f 102/102/102 103/103/103 101/101/101
f 103/103/103 104/104/104 101/101/101
f 107/107/107 106/106/106 105/105/105
f 105/105/105 106/106/106 108/108/108
f 106/106/106 109/109/109 108/108/108
f 110/110/110 109/109/109 106/106/106
f 109/109/109 111/111/111 108/108/108
f 111/111/111 112/112/112 108/108/108
f 115/115/115 114/114/114 113/113/113
f 114/114/114 116/116/116 113/113/113
f 116/116/116 117/117/117 113/113/113
f 117/117/117 118/118/118 113/113/113
f 118/118/118 119/119/119 113/113/113
f 119/119/119 120/120/120 113/113/113
f 120/120/120 121/121/121 113/113/113
f 124/124/124 123/123/123 122/122/122
f 123/123/123 125/125/125 122/122/122
f 122/122/122 125/125/125 126/126/126
f 126/126/126 125/125/125 127/127/127
f 125/125/125 128/128/128 127/127/127
f 129/129/129 128/128/128 125/125/125
f 130/130/130 129/129/129 125/125/125
f 128/128/128 131/131/131 127/127/127
f 132/132/132 131/131/131 128/128/128
f 131/131/131 133/133/133 127/127/127
f 134/134/134 133/133/133 131/131/131
f 127/127/127 133/133/133 135/135/135
f 138/138/138 137/137/137 136/136/136
f 137/137/137 139/139/139 136/136/136
f 140/140/140 139/139/139 137/137/137
f 136/136/136 139/139/139 141/141/141
f 144/144/144 143/143/143 142/142/142
f 147/147/147 146/146/146 145/145/145
f 150/150/150 149/149/149 148/148/148
f 149/149/149 151/151/151 148/148/148
f 152/152/152 151/151/151 149/149/149
f 153/153/153 152/152/152 149/149/149
f 154/154/154 151/151/151 152/152/152
f 148/148/148 151/151/151 155/155/155
f 158/158/158 157/157/157 156/156/156
f 161/161/161 160/160/160 159/159/159
f 164/164/164 163/163/163 162/162/162
f 163/163/163 165/165/165 162/162/162
f 165/165/165 166/166/166 162/162/162
f 169/169/169 168/168/168 167/167/167
f 167/167/167 168/168/168 170/170/170
f 168/168/168 171/171/171 170/170/170
f 174/174/174 173/173/173 172/172/172
f 172/172/172 173/173/173 175/175/175
f 178/178/178 177/177/177 176/176/176
f 176/176/176 177/177/177 179/179/179
f 179/179/179 177/177/177 180/180/180
f 180/180/180 177/177/177 181/181/181
f 184/184/184 183/183/183 182/182/182
f 182/182/182 183/183/183 185/185/185
f 185/185/185 183/183/183 186/186/186
f 186/186/186 183/183/183 187/187/187
