g M_SA_Chair_03
v -0.9853974 0.2106137 0.3854762
v -0.9853974 0.4659148 0.3854763
v 0.9853974 0.4659148 0.3854763
v 0.9853974 0.2106137 0.3854762
v -0.9853974 0.4659148 0.3854763
v -0.9853974 0.4659148 -0.02651347
v 0.9853974 0.4659148 -0.02651347
v 0.9853974 0.4659148 0.3854763
v -0.9853974 1.034471 -0.1981374
v -0.9853974 1.034472 -0.385476
v 0.9853974 1.034472 -0.385476
v 0.9853974 1.034471 -0.1981374
v -0.8956663 5.708322E-08 -0.3503743
v -0.8956663 -5.708323E-08 0.3503744
v 0.8956662 -5.708323E-08 0.3503744
v 0.8956662 5.708322E-08 -0.3503743
v 0.9853974 0.2106137 0.3854762
v 0.9853974 0.4659148 0.3854763
v 0.9853974 0.4659148 -0.02651347
v 0.9853974 0.2106138 -0.3854761
v -0.9853974 0.2106138 -0.3854761
v -0.9853974 0.4659148 -0.02651347
v -0.9853974 0.4659148 0.3854763
v -0.9853974 0.2106137 0.3854762
v -0.9853974 0.4659148 -0.02651347
v -0.9853974 1.034471 -0.1981374
v 0.9853974 1.034471 -0.1981374
v 0.9853974 0.4659148 -0.02651347
v 0.9853974 0.4659148 -0.02651347
v 0.9853974 1.034471 -0.1981374
v 0.9853974 1.034472 -0.385476
v 0.9853974 0.2106138 -0.3854761
v 0.9853974 0.2106138 -0.3854761
v 0.9853974 1.034472 -0.385476
v -0.9853974 1.034472 -0.385476
v -0.9853974 0.2106138 -0.3854761
v -0.9853974 0.2106138 -0.3854761
v -0.9853974 1.034472 -0.385476
v -0.9853974 1.034471 -0.1981374
v -0.9853974 0.4659148 -0.02651347
v -0.9853974 0.2106138 -0.3854761
v -0.8956663 0.2106138 -0.3503743
v 0.8956662 0.2106138 -0.3503743
v 0.9853974 0.2106138 -0.3854761
v 0.8956662 0.2106137 0.3503744
v 0.9853974 0.2106137 0.3854762
v -0.8956663 0.2106137 0.3503744
v -0.9853974 0.2106137 0.3854762
v -0.8956663 0.2106138 -0.3503743
v -0.8956663 5.708322E-08 -0.3503743
v 0.8956662 5.708322E-08 -0.3503743
v 0.8956662 0.2106138 -0.3503743
v 0.8956662 0.2106138 -0.3503743
v 0.8956662 5.708322E-08 -0.3503743
v 0.8956662 -5.708323E-08 0.3503744
v 0.8956662 0.2106137 0.3503744
v 0.8956662 0.2106137 0.3503744
v 0.8956662 -5.708323E-08 0.3503744
v -0.8956663 -5.708323E-08 0.3503744
v -0.8956663 0.2106137 0.3503744
v -0.8956663 0.2106137 0.3503744
v -0.8956663 -5.708323E-08 0.3503744
v -0.8956663 5.708322E-08 -0.3503743
v -0.8956663 0.2106138 -0.3503743
vt 0.3930897 0.1805603
vt 0.3930897 0.1805604
vt 0.3930897 0.1805604
vt 0.3930897 0.1805603
vt 0.4235473 0.1805604
vt 0.4235473 0.1805603
vt 0.4235472 0.1805603
vt 0.4235472 0.1805604
vt 0.423457 0.1805603
vt 0.423457 0.1805603
vt 0.423457 0.1805603
vt 0.423457 0.1805603
vt 0.3140682 0.08759992
vt 0.3140682 0.08759992
vt 0.3140681 0.08759992
vt 0.3140681 0.08759992
vt 0.3633158 0.1805603
vt 0.3633158 0.1805604
vt 0.3633157 0.1805604
vt 0.3633157 0.1805603
vt 0.3633158 0.1805603
vt 0.3633158 0.1805604
vt 0.3633158 0.1805604
vt 0.3633158 0.1805603
vt 0.3930897 0.1805603
vt 0.3930897 0.1805603
vt 0.3930897 0.1805603
vt 0.3930897 0.1805603
vt 0.3606281 0.1805603
vt 0.3606281 0.1805603
vt 0.3606281 0.1805603
vt 0.3606281 0.1805603
vt 0.3930897 0.1805603
vt 0.3930897 0.1805603
vt 0.3930897 0.1805603
vt 0.3930897 0.1805603
vt 0.3606281 0.1805603
vt 0.3606281 0.1805603
vt 0.3606281 0.1805603
vt 0.3606281 0.1805603
vt 0.2298194 0.1805603
vt 0.2298194 0.1805603
vt 0.2298194 0.1805603
vt 0.2298194 0.1805603
vt 0.2298194 0.1805603
vt 0.2298194 0.1805603
vt 0.2298194 0.1805603
vt 0.2298194 0.1805603
vt 0.3727085 0.08759992
vt 0.3727085 0.08759992
vt 0.3727085 0.08759992
vt 0.3727085 0.08759992
vt 0.3454826 0.08759992
vt 0.3454826 0.08759992
vt 0.3454826 0.08759992
vt 0.3454826 0.08759992
vt 0.3727085 0.08759992
vt 0.3727085 0.08759992
vt 0.3727085 0.08759992
vt 0.3727085 0.08759992
vt 0.3454826 0.08759992
vt 0.3454826 0.08759992
vt 0.3454826 0.08759992
vt 0.3454826 0.08759992
vn 0 0 1
vn 0 0 1
vn 0 0 1
vn 0 0 1
vn 0 1 0
vn 0 1 0
vn 0 1 0
vn 0 1 0
vn 0 1 0
vn 0 1 0
vn 0 1 0
vn 0 1 0
vn 0 -1 0
vn 0 -1 0
vn 0 -1 0
vn 0 -1 0
vn 1 0 0
vn 1 0 0
vn 1 0 0
vn 1 0 0
vn -1 0 0
vn -1 0 0
vn -1 0 0
vn -1 0 0
vn 0 0.2889782 0.9573357
vn 0 0.2889873 0.957333
vn 0 0.2889873 0.957333
vn 0 0.2889782 0.9573357
vn 1 0 0
vn 1 0 0
vn 1 0 0
vn 1 0 0
vn 0 0 -1
vn 0 0 -1
vn 0 0 -1
vn 0 0 -1
vn -1 0 0
vn -1 0 0
vn -1 0 0
vn -1 0 0
vn 0 -1 0
vn 0 -1 0
vn 0 -1 0
vn 0 -1 0
vn 0 -1 0
vn 0 -1 0
vn 0 -1 0
vn 0 -1 0
vn 0 0 -1
vn 0 0 -1
vn 0 0 -1
vn 0 0 -1
vn 1 0 0
vn 1 0 0
vn 1 0 0
vn 1 0 0
vn 0 0 1
vn 0 0 1
vn 0 0 1
vn 0 0 1
vn -1 0 0
vn -1 0 0
vn -1 0 0
vn -1 0 0
g M_SA_Chair_03_0
f 3/3/3 2/2/2 1/1/1
f 4/4/4 3/3/3 1/1/1
f 7/7/7 6/6/6 5/5/5
f 8/8/8 7/7/7 5/5/5
f 11/11/11 10/10/10 9/9/9
f 12/12/12 11/11/11 9/9/9
f 15/15/15 14/14/14 13/13/13
f 16/16/16 15/15/15 13/13/13
f 19/19/19 18/18/18 17/17/17
f 20/20/20 19/19/19 17/17/17
f 23/23/23 22/22/22 21/21/21
f 24/24/24 23/23/23 21/21/21
f 27/27/27 26/26/26 25/25/25
f 28/28/28 27/27/27 25/25/25
f 31/31/31 30/30/30 29/29/29
f 32/32/32 31/31/31 29/29/29
f 35/35/35 34/34/34 33/33/33
f 36/36/36 35/35/35 33/33/33
f 39/39/39 38/38/38 37/37/37
f 40/40/40 39/39/39 37/37/37
f 43/43/43 42/42/42 41/41/41
f 44/44/44 43/43/43 41/41/41
f 45/45/45 43/43/43 44/44/44
f 46/46/46 45/45/45 44/44/44
f 47/47/47 45/45/45 46/46/46
f 48/48/48 47/47/47 46/46/46
f 42/42/42 47/47/47 48/48/48
f 41/41/41 42/42/42 48/48/48
f 51/51/51 50/50/50 49/49/49
f 52/52/52 51/51/51 49/49/49
f 55/55/55 54/54/54 53/53/53
f 56/56/56 55/55/55 53/53/53
f 59/59/59 58/58/58 57/57/57
f 60/60/60 59/59/59 57/57/57
f 63/63/63 62/62/62 61/61/61
f 64/64/64 63/63/63 61/61/61
