g M_SA_ground_02
v 0.500004 0.002107172 -0.4999999
v -0.5000037 0.002107049 0.4999999
v -0.5000038 0.002107172 -0.5
v 0.5000038 0.002107049 0.4999999
v 0.5000038 0.002107049 0.4999999
v -0.5000037 2.407469E-07 0.4999999
v -0.5000037 0.002107049 0.4999999
v 0.5000038 2.407469E-07 0.4999999
v 0.500004 0.002107172 -0.4999999
v 0.5000038 2.407469E-07 0.4999999
v 0.5000038 0.002107049 0.4999999
v 0.500004 3.636815E-07 -0.4999999
v -0.5000037 0.002107049 0.4999999
v -0.5000038 3.636815E-07 -0.5
v -0.5000038 0.002107172 -0.5
v -0.5000037 2.407469E-07 0.4999999
v -0.5000038 0.002107172 -0.5
v 0.500004 3.636815E-07 -0.4999999
v 0.500004 0.002107172 -0.4999999
v -0.5000038 3.636815E-07 -0.5
vt 0.4624732 0.4483876
vt 0.445444 0.4444726
vt 0.445444 0.4483876
vt 0.4624732 0.4444726
vt 0.4624732 0.4444726
vt 0.445444 0.4444726
vt 0.445444 0.4444726
vt 0.4624732 0.4444726
vt 0.4624732 0.4483876
vt 0.4624732 0.4444726
vt 0.4624732 0.4444726
vt 0.4624732 0.4483876
vt 0.445444 0.4444726
vt 0.445444 0.4483876
vt 0.445444 0.4483876
vt 0.445444 0.4444726
vt 0.445444 0.4483876
vt 0.4624732 0.4483876
vt 0.4624732 0.4483876
vt 0.445444 0.4483876
vn 0 1 0
vn 0 1 0
vn 0 1 0
vn 0 1 0
vn 0 0 1
vn 0 0 1
vn 0 0 1
vn 0 0 1
vn 1 0 0
vn 1 0 0
vn 1 0 0
vn 1 0 0
vn -1 0 0
vn -1 0 0
vn -1 0 0
vn -1 0 0
vn 0 0 -1
vn 0 0 -1
vn 0 0 -1
vn 0 0 -1
g M_SA_ground_02_0
f 3/3/3 2/2/2 1/1/1
f 4/4/4 1/1/1 2/2/2
f 7/7/7 6/6/6 5/5/5
f 8/8/8 5/5/5 6/6/6
f 11/11/11 10/10/10 9/9/9
f 12/12/12 9/9/9 10/10/10
f 15/15/15 14/14/14 13/13/13
f 16/16/16 13/13/13 14/14/14
f 19/19/19 18/18/18 17/17/17
f 20/20/20 17/17/17 18/18/18
