g M_SA_Chair_P_02
v 0.2543191 0.4585236 0.3383927
v -0.2544163 0.4585236 -0.2817453
v -0.2554611 0.4585236 0.337531
v 0.2553653 0.4585236 -0.2808825
v -0.2545608 0.5639074 -0.1943531
v -0.2554611 0.4585236 0.337531
v -0.2544163 0.4585236 -0.2817453
v -0.2554611 0.5639075 0.337531
v -0.2544672 1.162283 -0.251001
v -0.2543189 1.162283 -0.3383953
v -0.2554611 0.5639075 0.337531
v 0.2543191 0.4585236 0.3383927
v -0.2554611 0.4585236 0.337531
v 0.2543191 0.5639075 0.3383928
v 0.2553653 0.4585236 -0.2808825
v 0.2553141 1.162283 -0.2501393
v 0.2554612 1.162283 -0.3375336
v 0.2552184 0.5639075 -0.1934907
v 0.2543191 0.4585236 0.3383927
v 0.2543191 0.5639075 0.3383928
v -0.2190674 7.220643E-09 -0.1976004
v -0.2349379 0.4585236 -0.2597807
v -0.2350693 0.4585236 -0.1816514
v -0.2189899 9.2199E-09 -0.2437767
v -0.2350693 0.4585236 -0.1816514
v -0.1568067 0.4585236 -0.2596479
v -0.1569387 0.4585236 -0.1815195
v -0.2349379 0.4585236 -0.2597807
v -0.1569387 0.4585236 -0.1815195
v -0.1728096 9.497478E-09 -0.2436991
v -0.1728876 7.498185E-09 -0.1975221
v -0.1568067 0.4585236 -0.2596479
v -0.1728876 7.498185E-09 -0.1975221
v -0.2189899 9.2199E-09 -0.2437767
v -0.2190674 7.220643E-09 -0.1976004
v -0.1728096 9.497478E-09 -0.2436991
v -0.2189899 9.2199E-09 -0.2437767
v -0.1568067 0.4585236 -0.2596479
v -0.2349379 0.4585236 -0.2597807
v -0.1728096 9.497478E-09 -0.2436991
v -0.1728876 7.498185E-09 -0.1975221
v -0.2350693 0.4585236 -0.1816514
v -0.1569387 0.4585236 -0.1815195
v -0.2190674 7.220643E-09 -0.1976004
v -0.2199091 -1.434258E-08 0.3004383
v -0.2357797 0.4585236 0.2382591
v -0.2359119 0.4585236 0.3163855
v -0.2198325 -1.234321E-08 0.2542593
v -0.2359119 0.4585236 0.3163855
v -0.1576483 0.4585236 0.2383908
v -0.1577803 0.4585236 0.3165178
v -0.2357797 0.4585236 0.2382591
v -0.1577803 0.4585236 0.3165178
v -0.1736501 -1.206569E-08 0.2543386
v -0.1737288 -1.406504E-08 0.3005168
v -0.1576483 0.4585236 0.2383908
v -0.1737288 -1.406504E-08 0.3005168
v -0.2198325 -1.234321E-08 0.2542593
v -0.2199091 -1.434258E-08 0.3004383
v -0.1736501 -1.206569E-08 0.2543386
v -0.2198325 -1.234321E-08 0.2542593
v -0.1576483 0.4585236 0.2383908
v -0.2357797 0.4585236 0.2382591
v -0.1736501 -1.206569E-08 0.2543386
v -0.1737288 -1.406504E-08 0.3005168
v -0.2359119 0.4585236 0.3163855
v -0.1577803 0.4585236 0.3165178
v -0.2199091 -1.434258E-08 0.3004383
v 0.1729907 -1.198104E-08 0.3011002
v 0.157121 0.4585236 0.2389213
v 0.1569887 0.4585236 0.3170503
v 0.1730682 -9.981783E-09 0.2549239
v 0.1569887 0.4585236 0.3170503
v 0.2352515 0.4585236 0.2390526
v 0.2351204 0.4585236 0.3171816
v 0.157121 0.4585236 0.2389213
v 0.2351204 0.4585236 0.3171816
v 0.2192498 -9.704227E-09 0.2550022
v 0.219172 -1.170351E-08 0.301179
v 0.2352515 0.4585236 0.2390526
v 0.219172 -1.170351E-08 0.301179
v 0.1730682 -9.981783E-09 0.2549239
v 0.1729907 -1.198104E-08 0.3011002
v 0.2192498 -9.704227E-09 0.2550022
v 0.1730682 -9.981783E-09 0.2549239
v 0.2352515 0.4585236 0.2390526
v 0.157121 0.4585236 0.2389213
v 0.2192498 -9.704227E-09 0.2550022
v 0.219172 -1.170351E-08 0.301179
v 0.1569887 0.4585236 0.3170503
v 0.2351204 0.4585236 0.3171816
v 0.1729907 -1.198104E-08 0.3011002
v 0.1738332 9.582063E-09 -0.1969357
v 0.1579625 0.4585236 -0.2591158
v 0.1578303 0.4585236 -0.180987
v 0.173911 1.158138E-08 -0.2431133
v 0.1578303 0.4585236 -0.180987
v 0.2360941 0.4585236 -0.2589834
v 0.2359618 0.4585236 -0.1808545
v 0.1579625 0.4585236 -0.2591158
v 0.2359618 0.4585236 -0.1808545
v 0.2200914 1.185893E-08 -0.2430351
v 0.2200136 9.859653E-09 -0.1968584
v 0.2360941 0.4585236 -0.2589834
v 0.2200136 9.859653E-09 -0.1968584
v 0.173911 1.158138E-08 -0.2431133
v 0.1738332 9.582063E-09 -0.1969357
v 0.2200914 1.185893E-08 -0.2430351
v 0.173911 1.158138E-08 -0.2431133
v 0.2360941 0.4585236 -0.2589834
v 0.1579625 0.4585236 -0.2591158
v 0.2200914 1.185893E-08 -0.2430351
v 0.2200136 9.859653E-09 -0.1968584
v 0.1578303 0.4585236 -0.180987
v 0.2359618 0.4585236 -0.1808545
v 0.1738332 9.582063E-09 -0.1969357
v -0.2544163 0.4585236 -0.2817453
v 0.2554612 1.162283 -0.3375336
v -0.2543189 1.162283 -0.3383953
v 0.2553653 0.4585236 -0.2808825
v 0.2554612 1.162283 -0.3375336
v -0.2544672 1.162283 -0.251001
v -0.2543189 1.162283 -0.3383953
v 0.2553141 1.162283 -0.2501393
v -0.2544672 1.162283 -0.251001
v 0.2552184 0.5639075 -0.1934907
v -0.2545608 0.5639074 -0.1943531
v 0.2553141 1.162283 -0.2501393
v -0.2554611 0.5639075 0.337531
v 0.2552184 0.5639075 -0.1934907
v 0.2543191 0.5639075 0.3383928
v -0.2545608 0.5639074 -0.1943531
vt 0.1098823 0.04641151
vt 0.1098823 0.04641151
vt 0.1098823 0.04641151
vt 0.1098823 0.04641151
vt 0.1409587 0.04641151
vt 0.1409587 0.04641151
vt 0.1409587 0.04641151
vt 0.1409587 0.04641151
vt 0.1409587 0.04641151
vt 0.1409587 0.04641151
vt 0.1715632 0.04641151
vt 0.1715632 0.04641151
vt 0.1715632 0.04641151
vt 0.1715632 0.04641151
vt 0.1409587 0.04641151
vt 0.1409587 0.04641151
vt 0.1409587 0.04641151
vt 0.1409587 0.04641151
vt 0.1409587 0.04641151
vt 0.1409587 0.04641151
vt 0.1098823 0.04641151
vt 0.1098823 0.04641151
vt 0.1098823 0.04641151
vt 0.1098823 0.04641151
vt 0.1098823 0.04641151
vt 0.1098823 0.04641151
vt 0.1098823 0.04641151
vt 0.1098823 0.04641151
vt 0.1098823 0.04641151
vt 0.1098823 0.04641151
vt 0.1098823 0.04641151
vt 0.1098823 0.04641151
vt 0.1098823 0.04641151
vt 0.1098823 0.04641151
vt 0.1098823 0.04641151
vt 0.1098823 0.04641151
vt 0.1715632 0.04641151
vt 0.1715632 0.04641151
vt 0.1715632 0.04641151
vt 0.1715632 0.04641151
vt 0.1715632 0.04641151
vt 0.1715632 0.04641151
vt 0.1715632 0.04641151
vt 0.1715632 0.04641151
vt 0.1098823 0.04641151
vt 0.1098823 0.04641151
vt 0.1098823 0.04641151
vt 0.1098823 0.04641151
vt 0.1098823 0.04641151
vt 0.1098823 0.04641151
vt 0.1098823 0.04641151
vt 0.1098823 0.04641151
vt 0.1098823 0.04641151
vt 0.1098823 0.04641151
vt 0.1098823 0.04641151
vt 0.1098823 0.04641151
vt 0.1098823 0.04641151
vt 0.1098823 0.04641151
vt 0.1098823 0.04641151
vt 0.1098823 0.04641151
vt 0.1715632 0.04641151
vt 0.1715632 0.04641151
vt 0.1715632 0.04641151
vt 0.1715632 0.04641151
vt 0.1715632 0.04641151
vt 0.1715632 0.04641151
vt 0.1715632 0.04641151
vt 0.1715632 0.04641151
vt 0.1098823 0.04641151
vt 0.1098823 0.04641151
vt 0.1098823 0.04641151
vt 0.1098823 0.04641151
vt 0.1098823 0.04641151
vt 0.1098823 0.04641151
vt 0.1098823 0.04641151
vt 0.1098823 0.04641151
vt 0.1098823 0.04641151
vt 0.1098823 0.04641151
vt 0.1098823 0.04641151
vt 0.1098823 0.04641151
vt 0.1098823 0.04641151
vt 0.1098823 0.04641151
vt 0.1098823 0.04641151
vt 0.1098823 0.04641151
vt 0.1715632 0.04641151
vt 0.1715632 0.04641151
vt 0.1715632 0.04641151
vt 0.1715632 0.04641151
vt 0.1715632 0.04641151
vt 0.1715632 0.04641151
vt 0.1715632 0.04641151
vt 0.1715632 0.04641151
vt 0.1098823 0.04641151
vt 0.1098823 0.04641151
vt 0.1098823 0.04641151
vt 0.1098823 0.04641151
vt 0.1098823 0.04641151
vt 0.1098823 0.04641151
vt 0.1098823 0.04641151
vt 0.1098823 0.04641151
vt 0.1098823 0.04641151
vt 0.1098823 0.04641151
vt 0.1098823 0.04641151
vt 0.1098823 0.04641151
vt 0.1098823 0.04641151
vt 0.1098823 0.04641151
vt 0.1098823 0.04641151
vt 0.1098823 0.04641151
vt 0.1715632 0.04641151
vt 0.1715632 0.04641151
vt 0.1715632 0.04641151
vt 0.1715632 0.04641151
vt 0.1715632 0.04641151
vt 0.1715632 0.04641151
vt 0.1715632 0.04641151
vt 0.1715632 0.04641151
vt 0.1715632 0.04641151
vt 0.1715632 0.04641151
vt 0.1715632 0.04641151
vt 0.1715632 0.04641151
vt 0.2628813 0.04641151
vt 0.2628813 0.04641151
vt 0.2628813 0.04641151
vt 0.2628813 0.04641151
vt 0.2034005 0.04641151
vt 0.2034005 0.04641151
vt 0.2034005 0.04641151
vt 0.2034005 0.04641151
vt 0.2628813 0.04641151
vt 0.2628813 0.04641151
vt 0.2628813 0.04641151
vt 0.2628813 0.04641151
vn 0 -1 0
vn 0 -1 0
vn 0 -1 0
vn 0 -1 0
vn -0.9999986 0 -0.001681342
vn -0.9999986 1.986824E-05 -0.001693768
vn -0.9999986 1.490118E-05 -0.001683834
vn -0.9999986 0 -0.001693768
vn -0.9999986 0 -0.0016739
vn -0.9999986 0 -0.001673908
vn -0.001693759 0 0.9999986
vn -0.001688792 0 0.9999986
vn -0.001693759 0 0.9999986
vn -0.001688801 0 0.9999986
vn 0.9999986 0 0.001683834
vn 0.9999986 0 0.001693768
vn 0.9999986 0 0.001693768
vn 0.9999986 0 0.001691284
vn 0.9999986 0 0.001698726
vn 0.9999986 0 0.001693759
vn -0.9993922 -0.03481879 -0.001686312
vn -0.9993922 -0.03481891 -0.001683825
vn -0.9993922 -0.034819 -0.001688796
vn -0.9993922 -0.0348188 -0.001686312
vn 0 1 0
vn 0 1 0
vn 0 1 0
vn 0 1 0
vn 0.9993922 -0.034819 0.001688796
vn 0.9993922 -0.03482074 0.0016888
vn 0.9993922 -0.03482065 0.001686312
vn 0.9993922 -0.03481891 0.001688792
vn 0 -1 0
vn 0 -1 0
vn 0 -1 0
vn 0 -1 0
vn 0.001691279 -0.03482094 -0.9993921
vn 0.0016888 -0.03481909 -0.9993922
vn 0.001686317 -0.03481909 -0.9993922
vn 0.001688796 -0.03482094 -0.9993921
vn -0.001686312 -0.03482104 0.9993922
vn -0.0016888 -0.03481909 0.9993922
vn -0.001691279 -0.034819 0.9993922
vn -0.001691284 -0.03482112 0.9993921
vn -0.9993922 -0.0348185 -0.001688796
vn -0.9993922 -0.034819 -0.001686312
vn -0.9993922 -0.034819 -0.001688796
vn -0.9993922 -0.03481841 -0.001683825
vn 0 1 0
vn 0 1 0
vn 0 1 0
vn 0 1 0
vn 0.9993922 -0.03481909 0.0016888
vn 0.9993922 -0.03481856 0.001683833
vn 0.9993922 -0.03481857 0.0016888
vn 0.9993922 -0.03481909 0.001683833
vn 0 -1 0
vn 0 -1 0
vn 0 -1 0
vn 0 -1 0
vn 0.001691284 -0.03481637 -0.9993923
vn 0.00169128 -0.03481404 -0.9993923
vn 0.001693767 -0.03481413 -0.9993923
vn 0.001691276 -0.0348162 -0.9993923
vn -0.001691276 -0.03481593 0.9993923
vn -0.001691284 -0.03481413 0.9993923
vn -0.001691275 -0.03481891 0.9993922
vn -0.0016888 -0.0348161 0.9993923
vn -0.9993922 -0.03481876 -0.001678858
vn -0.9993922 -0.034819 -0.001681345
vn -0.9993922 -0.034819 -0.001688796
vn -0.9993922 -0.03481875 -0.001683825
vn 0 1 0
vn 0 1 0
vn 0 1 0
vn 0 1 0
vn 0.9993922 -0.034819 0.001688796
vn 0.9993922 -0.03481868 0.0016888
vn 0.9993922 -0.03481851 0.001688792
vn 0.9993922 -0.03481883 0.001686304
vn 0 -1 0
vn 0 -1 0
vn 0 -1 0
vn 0 -1 0
vn 0.001688796 -0.03482096 -0.9993921
vn 0.001691279 -0.034819 -0.9993922
vn 0.0016888 -0.03481909 -0.9993922
vn 0.001686317 -0.03482105 -0.9993922
vn -0.001686317 -0.03482105 0.9993922
vn -0.001691284 -0.03481909 0.9993922
vn -0.0016888 -0.03481909 0.9993922
vn -0.001691275 -0.03482088 0.9993921
vn -0.9993922 -0.03481933 -0.0016888
vn -0.9993922 -0.03481909 -0.0016888
vn -0.9993922 -0.03481909 -0.001683833
vn -0.9993922 -0.03481926 -0.001686312
vn 0 1 0
vn 0 1 0
vn 0 1 0
vn 0 1 0
vn 0.9993922 -0.03481909 0.0016888
vn 0.9993922 -0.0348185 0.0016888
vn 0.9993922 -0.03481841 0.001691279
vn 0.9993922 -0.03481909 0.0016888
vn 0 -1 0
vn 0 -1 0
vn 0 -1 0
vn 0 -1 0
vn 0.001688796 -0.0348209 -0.9993922
vn 0.001688792 -0.03481891 -0.9993922
vn 0.001688792 -0.03481891 -0.9993922
vn 0.001688796 -0.0348209 -0.9993922
vn -0.001688796 -0.03482103 0.9993921
vn -0.001688796 -0.034819 0.9993922
vn -0.001688796 -0.034819 0.9993922
vn -0.001691284 -0.03482112 0.9993921
vn 0.001684951 -0.08023684 -0.9967744
vn 0.001684951 -0.08023683 -0.9967744
vn 0.001684951 -0.08023683 -0.9967744
vn 0.00168716 -0.08023841 -0.9967743
vn 0 1 0
vn 0 1 0
vn 0 1 0
vn 0 1 0
vn -0.001684095 0.09424819 0.9955473
vn -0.001684095 0.09424819 0.9955473
vn -0.001684095 0.0942482 0.9955473
vn -0.001682698 0.09424938 0.9955472
vn 0 1 0
vn 0 1 0
vn 0 1 0
vn 0 1 0
g M_SA_Chair_P_02_0
f 3/3/3 2/2/2 1/1/1
f 4/4/4 1/1/1 2/2/2
f 7/7/7 6/6/6 5/5/5
f 8/8/8 5/5/5 6/6/6
f 5/5/5 9/9/9 7/7/7
f 10/10/10 7/7/7 9/9/9
f 13/13/13 12/12/12 11/11/11
f 14/14/14 11/11/11 12/12/12
f 17/17/17 16/16/16 15/15/15
f 18/18/18 15/15/15 16/16/16
f 15/15/15 18/18/18 19/19/19
f 20/20/20 19/19/19 18/18/18
f 23/23/23 22/22/22 21/21/21
f 24/24/24 21/21/21 22/22/22
f 27/27/27 26/26/26 25/25/25
f 28/28/28 25/25/25 26/26/26
f 31/31/31 30/30/30 29/29/29
f 32/32/32 29/29/29 30/30/30
f 35/35/35 34/34/34 33/33/33
f 36/36/36 33/33/33 34/34/34
f 39/39/39 38/38/38 37/37/37
f 40/40/40 37/37/37 38/38/38
f 43/43/43 42/42/42 41/41/41
f 44/44/44 41/41/41 42/42/42
f 47/47/47 46/46/46 45/45/45
f 48/48/48 45/45/45 46/46/46
f 51/51/51 50/50/50 49/49/49
f 52/52/52 49/49/49 50/50/50
f 55/55/55 54/54/54 53/53/53
f 56/56/56 53/53/53 54/54/54
f 59/59/59 58/58/58 57/57/57
f 60/60/60 57/57/57 58/58/58
f 63/63/63 62/62/62 61/61/61
f 64/64/64 61/61/61 62/62/62
f 67/67/67 66/66/66 65/65/65
f 68/68/68 65/65/65 66/66/66
f 71/71/71 70/70/70 69/69/69
f 72/72/72 69/69/69 70/70/70
f 75/75/75 74/74/74 73/73/73
f 76/76/76 73/73/73 74/74/74
f 79/79/79 78/78/78 77/77/77
f 80/80/80 77/77/77 78/78/78
f 83/83/83 82/82/82 81/81/81
f 84/84/84 81/81/81 82/82/82
f 87/87/87 86/86/86 85/85/85
f 88/88/88 85/85/85 86/86/86
f 91/91/91 90/90/90 89/89/89
f 92/92/92 89/89/89 90/90/90
f 95/95/95 94/94/94 93/93/93
f 96/96/96 93/93/93 94/94/94
f 99/99/99 98/98/98 97/97/97
f 100/100/100 97/97/97 98/98/98
f 103/103/103 102/102/102 101/101/101
f 104/104/104 101/101/101 102/102/102
f 107/107/107 106/106/106 105/105/105
f 108/108/108 105/105/105 106/106/106
f 111/111/111 110/110/110 109/109/109
f 112/112/112 109/109/109 110/110/110
f 115/115/115 114/114/114 113/113/113
f 116/116/116 113/113/113 114/114/114
f 119/119/119 118/118/118 117/117/117
f 120/120/120 117/117/117 118/118/118
f 123/123/123 122/122/122 121/121/121
f 124/124/124 121/121/121 122/122/122
f 127/127/127 126/126/126 125/125/125
f 128/128/128 125/125/125 126/126/126
f 131/131/131 130/130/130 129/129/129
f 132/132/132 129/129/129 130/130/130
