g M_SA_Sofa_02
v -1.098894 0.724299 -0.5748918
v -0.7476 9.366178E-08 -0.5748919
v -0.7476 0.724299 -0.5748918
v -1.098894 9.366178E-08 -0.5748919
v 0.7475994 9.366174E-08 -0.5748916
v 0.7475994 0.724299 -0.5748915
v 1.098895 0.724299 -0.5748915
v 1.098895 9.366174E-08 -0.5748916
v 0.01771302 0.9254583 -0.5748917
v 0.7475994 0.9254583 -0.5748914
v -0.01771302 0.9254583 -0.5748917
v -0.7476 0.9254583 -0.5748917
v -1.098894 0.724299 -0.5748918
v -0.7476 0.724299 -0.5748918
v -0.7476 0.7242989 -0.2266351
v -0.7476 0.7242988 0.4905474
v -1.098894 0.7242988 0.4905474
v -1.098894 -7.992029E-08 0.4905472
v -1.098894 0.7242988 0.4905474
v -0.7476 0.2099524 0.4905473
v -0.7476 0.4199048 0.4905473
v -0.7476 0.7242988 0.4905474
v -0.01771302 0.2099524 0.4905473
v 0.01771302 0.2099524 0.4905473
v 1.098895 -7.992029E-08 0.4905472
v 0.7475994 0.2099524 0.4905473
v 1.098895 0.7242988 0.4905474
v 0.7475994 0.4199048 0.4905473
v 0.7475994 0.7242988 0.4905474
v -0.7476 9.366178E-08 -0.5748919
v -1.098894 9.366178E-08 -0.5748919
v -1.098894 -7.992029E-08 0.4905472
v 1.098895 9.366174E-08 -0.5748916
v 1.098895 0.7242988 0.4905474
v 1.098895 0.724299 -0.5748915
v 1.098895 -7.992029E-08 0.4905472
v 1.098895 9.366174E-08 -0.5748916
v 0.7475994 9.366174E-08 -0.5748916
v 1.098895 -7.992029E-08 0.4905472
v -0.7476 9.366178E-08 -0.5748919
v -1.098894 -7.992029E-08 0.4905472
v 0.7475994 0.7242989 -0.2266348
v 0.7475994 0.724299 -0.5748915
v 1.098895 0.724299 -0.5748915
v 1.098895 0.7242988 0.4905474
v 0.7475994 0.7242988 0.4905474
v 0.01771302 0.9254582 -0.2266351
v 0.7475994 0.9254583 -0.5748914
v 0.7475994 0.9254582 -0.2266348
v 0.01771302 0.9254583 -0.5748917
v -1.098894 0.724299 -0.5748918
v -1.098894 -7.992029E-08 0.4905472
v -1.098894 9.366178E-08 -0.5748919
v -1.098894 0.7242988 0.4905474
v 0.7475994 0.4199049 -0.2266348
v 0.01771302 0.4199048 0.5748914
v 0.01771302 0.4199049 -0.2266351
v 0.7475994 0.4199048 0.4905473
v 0.7475994 0.4199048 0.574892
v 0.7475994 0.4199049 -0.2266348
v 0.01771302 0.9254582 -0.2266351
v 0.7475994 0.7242989 -0.2266348
v 0.01771302 0.4199049 -0.2266351
v 0.7475994 0.9254582 -0.2266348
v 0.7475994 0.4199048 0.4905473
v 0.7475994 0.7242989 -0.2266348
v 0.7475994 0.7242988 0.4905474
v 0.7475994 0.4199049 -0.2266348
v -0.7476 0.4199049 -0.2266351
v -0.7476 0.7242988 0.4905474
v -0.7476 0.7242989 -0.2266351
v -0.7476 0.4199048 0.4905473
v -0.7476 0.7242989 -0.2266351
v -0.7476 0.9254583 -0.5748917
v -0.7476 0.9254582 -0.2266351
v -0.7476 0.724299 -0.5748918
v 0.7475994 0.724299 -0.5748915
v 0.7475994 0.9254582 -0.2266348
v 0.7475994 0.9254583 -0.5748914
v 0.7475994 0.7242989 -0.2266348
v -0.7476 0.9254582 -0.2266351
v -0.01771302 0.9254583 -0.5748917
v -0.01771302 0.9254582 -0.2266351
v -0.7476 0.9254583 -0.5748917
v -0.01771302 0.4199048 0.5748914
v -0.7476 0.4199049 -0.2266351
v -0.01771302 0.4199049 -0.2266351
v -0.7476 0.4199048 0.4905473
v -0.7476 0.4199048 0.5160441
v -0.7475999 0.4199048 0.5748914
v -0.01771302 0.9254582 -0.2266351
v -0.7476 0.4199049 -0.2266351
v -0.7476 0.7242989 -0.2266351
v -0.01771302 0.4199049 -0.2266351
v -0.7476 0.9254582 -0.2266351
v -0.01771302 0.9254582 -0.2266351
v 0.01771302 0.9254583 -0.5748917
v 0.01771302 0.9254582 -0.2266351
v -0.01771302 0.9254583 -0.5748917
v -0.01771302 0.4199049 -0.2266351
v 0.01771302 0.4199048 0.5748914
v -0.01771302 0.4199048 0.5748914
v 0.01771302 0.4199049 -0.2266351
v 0.01771302 0.4199049 -0.2266351
v -0.01771302 0.9254582 -0.2266351
v 0.01771302 0.9254582 -0.2266351
v -0.01771302 0.4199049 -0.2266351
v -0.01771302 0.4199048 0.5748914
v 0.01771302 0.2099524 0.5748914
v -0.01771302 0.2099524 0.5748914
v 0.01771302 0.4199048 0.5748914
v 0.01771302 0.4199048 0.5748914
v 0.7475994 0.2099524 0.574892
v 0.01771302 0.2099524 0.5748914
v 0.7475994 0.4199048 0.574892
v 0.01771302 0.2099524 0.4905473
v -0.01771302 0.2099524 0.5748914
v 0.01771302 0.2099524 0.5748914
v -0.01771302 0.2099524 0.4905473
v 0.7475994 0.4199048 0.4905473
v 0.7475994 0.2099524 0.574892
v 0.7475994 0.4199048 0.574892
v 0.7475994 0.2099524 0.4905473
v 0.7475994 0.2099524 0.4905473
v 0.01771302 0.2099524 0.5748914
v 0.7475994 0.2099524 0.574892
v 0.01771302 0.2099524 0.4905473
v -0.01771302 0.2099524 0.4905473
v -0.7476 0.2099524 0.5748914
v -0.01771302 0.2099524 0.5748914
v -0.7476 0.2099524 0.4905473
v -0.01771302 0.2099524 0.5748914
v -0.7475999 0.4199048 0.5748914
v -0.01771302 0.4199048 0.5748914
v -0.7476 0.2099524 0.5748914
v -0.7476 0.2099524 0.4905473
v -0.7475999 0.4199048 0.5748914
v -0.7476 0.2099524 0.5748914
v -0.7476 0.4199048 0.5160441
v -0.7476 0.4199048 0.4905473
vt 0.244216 0.2643484
vt 0.244216 0.2643484
vt 0.244216 0.2643484
vt 0.244216 0.2643484
vt 0.244216 0.2643484
vt 0.244216 0.2643484
vt 0.244216 0.2643484
vt 0.244216 0.2643484
vt 0.244216 0.2643484
vt 0.244216 0.2643484
vt 0.244216 0.2643484
vt 0.244216 0.2643484
vt 0.3372683 0.2643484
vt 0.3372683 0.2643484
vt 0.3372683 0.2643484
vt 0.3372683 0.2643484
vt 0.3372683 0.2643484
vt 0.244216 0.2643484
vt 0.244216 0.2643484
vt 0.244216 0.2643484
vt 0.244216 0.2643484
vt 0.244216 0.2643484
vt 0.244216 0.2643484
vt 0.244216 0.2643484
vt 0.244216 0.2643484
vt 0.244216 0.2643484
vt 0.244216 0.2643484
vt 0.244216 0.2643484
vt 0.244216 0.2643484
vt 0.1519623 0.2643484
vt 0.1519623 0.2643484
vt 0.1519623 0.2643484
vt 0.1825667 0.2643484
vt 0.1825667 0.2643484
vt 0.1825667 0.2643484
vt 0.1825667 0.2643484
vt 0.1159501 0.2643484
vt 0.1159501 0.2643484
vt 0.1159501 0.2643484
vt 0.1159501 0.2643484
vt 0.1159501 0.2643484
vt 0.3372683 0.2643484
vt 0.3372683 0.2643484
vt 0.3372683 0.2643484
vt 0.3372683 0.2643484
vt 0.3372683 0.2643484
vt 0.3372683 0.2643484
vt 0.3372683 0.2643484
vt 0.3372683 0.2643484
vt 0.3372683 0.2643484
vt 0.1825667 0.2643484
vt 0.1825667 0.2643484
vt 0.1825667 0.2643484
vt 0.1825667 0.2643484
vt 0.3372683 0.2643484
vt 0.3372683 0.2643484
vt 0.3372683 0.2643484
vt 0.3372683 0.2643484
vt 0.3372683 0.2643484
vt 0.244216 0.2643484
vt 0.244216 0.2643484
vt 0.244216 0.2643484
vt 0.244216 0.2643484
vt 0.244216 0.2643484
vt 0.214404 0.2643484
vt 0.214404 0.2643484
vt 0.214404 0.2643484
vt 0.214404 0.2643485
vt 0.214404 0.2643484
vt 0.214404 0.2643484
vt 0.214404 0.2643484
vt 0.214404 0.2643484
vt 0.1825667 0.2643484
vt 0.1825667 0.2643484
vt 0.1825667 0.2643484
vt 0.1825667 0.2643484
vt 0.1825667 0.2643484
vt 0.1825667 0.2643484
vt 0.1825667 0.2643484
vt 0.1825667 0.2643484
vt 0.3372683 0.2643484
vt 0.3372683 0.2643484
vt 0.3372683 0.2643484
vt 0.3372683 0.2643484
vt 0.3372683 0.2643484
vt 0.3372683 0.2643484
vt 0.3372683 0.2643484
vt 0.3372683 0.2643484
vt 0.3372683 0.2643484
vt 0.3372683 0.2643484
vt 0.244216 0.2643484
vt 0.244216 0.2643484
vt 0.244216 0.2643484
vt 0.244216 0.2643484
vt 0.244216 0.2643484
vt 0.2738849 0.2643484
vt 0.2738849 0.2643484
vt 0.2738849 0.2643484
vt 0.2738849 0.2643484
vt 0.2738849 0.2643484
vt 0.2738849 0.2643484
vt 0.2738849 0.2643484
vt 0.2738849 0.2643484
vt 0.1825667 0.2643484
vt 0.1825667 0.2643484
vt 0.1825667 0.2643484
vt 0.1825667 0.2643484
vt 0.1825667 0.2643484
vt 0.1825667 0.2643484
vt 0.1825667 0.2643484
vt 0.1825667 0.2643484
vt 0.2738849 0.2643484
vt 0.2738849 0.2643484
vt 0.2738849 0.2643484
vt 0.2738849 0.2643484
vt 0.1825667 0.2643484
vt 0.1825667 0.2643484
vt 0.1825667 0.2643484
vt 0.1825667 0.2643484
vt 0.1825667 0.2643484
vt 0.1825667 0.2643484
vt 0.1825667 0.2643484
vt 0.1825667 0.2643484
vt 0.214404 0.2643484
vt 0.214404 0.2643484
vt 0.214404 0.2643484
vt 0.214404 0.2643484
vt 0.214404 0.2643484
vt 0.214404 0.2643484
vt 0.214404 0.2643484
vt 0.214404 0.2643484
vt 0.2738849 0.2643484
vt 0.2738849 0.2643484
vt 0.2738849 0.2643484
vt 0.2738849 0.2643484
vt 0.1825667 0.2643484
vt 0.1825667 0.2643484
vt 0.1825667 0.2643484
vt 0.1825667 0.2643484
vt 0.1825667 0.2643484
vn 0 0 -1
vn 0 0 -1
vn 0 0 -1
vn 0 0 -1
vn 0 0 -1
vn 0 0 -1
vn 0 0 -1
vn 0 0 -1
vn 0 0 -1
vn 0 0 -1
vn 0 0 -1
vn 0 0 -1
vn 0 1 0
vn 0 1 0
vn 0 1 0
vn 0 1 0
vn 0 1 0
vn 0 0 1
vn 0 0 1
vn 0 0 1
vn 0 0 1
vn 0 0 1
vn 0 0 1
vn 0 0 1
vn 0 0 1
vn 0 0 1
vn 0 0 1
vn 0 0 1
vn 0 0 1
vn 0 -1 0
vn 0 -1 0
vn 0 -1 0
vn 1 0 0
vn 1 0 0
vn 1 0 0
vn 1 0 0
vn 0 -1 0
vn 0 -1 0
vn 0 -1 0
vn 0 -1 0
vn 0 -1 0
vn 0 1 0
vn 0 1 0
vn 0 1 0
vn 0 1 0
vn 0 1 0
vn 0 1 0
vn 0 1 0
vn 0 1 0
vn 0 1 0
vn -1 0 0
vn -1 0 0
vn -1 0 0
vn -1 0 0
vn 0 1 0
vn 0 1 0
vn 0 1 0
vn 0 1 0
vn 0 1 0
vn 0 0 1
vn 0 0 1
vn 0 0 1
vn 0 0 1
vn 0 0 1
vn -1 0 0
vn -1 0 0
vn -1 0 0
vn -1 0 0
vn 1 0 0
vn 1 0 0
vn 1 0 0
vn 1 0 0
vn -1 0 0
vn -1 0 0
vn -1 0 0
vn -1 0 0
vn 1 0 0
vn 1 0 0
vn 1 0 0
vn 1 0 0
vn 0 1 0
vn 0 1 0
vn 0 1 0
vn 0 1 0
vn 0 1 0
vn 0 1 0
vn 0 1 0
vn 0 1 0
vn 0 1 0
vn 0 1 0
vn 0 0 1
vn 0 0 1
vn 0 0 1
vn 0 0 1
vn 0 0 1
vn 0 1 0
vn 0 1 0
vn 0 1 0
vn 0 1 0
vn 0 1 0
vn 0 1 0
vn 0 1 0
vn 0 1 0
vn 0 0 1
vn 0 0 1
vn 0 0 1
vn 0 0 1
vn 0 0 1
vn 0 0 1
vn 0 0 1
vn 0 0 1
vn 0 0 1
vn 0 0 1
vn 0 0 1
vn 0 0 1
vn 0 -1 0
vn 0 -1 0
vn 0 -1 0
vn 0 -1 0
vn 1 0 0
vn 1 0 0
vn 1 0 0
vn 1 0 0
vn 0 -1 0
vn 0 -1 0
vn 0 -1 0
vn 0 -1 0
vn 0 -1 0
vn 0 -1 0
vn 0 -1 0
vn 0 -1 0
vn 0 0 1
vn 0 0 1
vn 0 0 1
vn 0 0 1
vn -1 0 0
vn -1 0 0
vn -1 0 0
vn -1 0 0
vn -1 0 0
g M_SA_Sofa_02_0
f 3/3/3 2/2/2 1/1/1
f 4/4/4 1/1/1 2/2/2
f 2/2/2 3/3/3 5/5/5
f 6/6/6 5/5/5 3/3/3
f 6/6/6 7/7/7 5/5/5
f 8/8/8 5/5/5 7/7/7
f 6/6/6 3/3/3 9/9/9
f 9/9/9 10/10/10 6/6/6
f 11/11/11 9/9/9 3/3/3
f 12/12/12 11/11/11 3/3/3
f 15/15/15 14/14/14 13/13/13
f 15/15/15 13/13/13 16/16/16
f 17/17/17 16/16/16 13/13/13
f 20/20/20 19/19/19 18/18/18
f 21/21/21 19/19/19 20/20/20
f 21/21/21 22/22/22 19/19/19
f 18/18/18 23/23/23 20/20/20
f 23/23/23 18/18/18 24/24/24
f 25/25/25 24/24/24 18/18/18
f 26/26/26 24/24/24 25/25/25
f 27/27/27 26/26/26 25/25/25
f 27/27/27 28/28/28 26/26/26
f 27/27/27 29/29/29 28/28/28
f 32/32/32 31/31/31 30/30/30
f 35/35/35 34/34/34 33/33/33
f 36/36/36 33/33/33 34/34/34
f 39/39/39 38/38/38 37/37/37
f 38/38/38 39/39/39 40/40/40
f 41/41/41 40/40/40 39/39/39
f 44/44/44 43/43/43 42/42/42
f 44/44/44 42/42/42 45/45/45
f 46/46/46 45/45/45 42/42/42
f 49/49/49 48/48/48 47/47/47
f 50/50/50 47/47/47 48/48/48
f 53/53/53 52/52/52 51/51/51
f 54/54/54 51/51/51 52/52/52
f 57/57/57 56/56/56 55/55/55
f 58/58/58 55/55/55 56/56/56
f 59/59/59 58/58/58 56/56/56
f 62/62/62 61/61/61 60/60/60
f 63/63/63 60/60/60 61/61/61
f 64/64/64 61/61/61 62/62/62
f 67/67/67 66/66/66 65/65/65
f 68/68/68 65/65/65 66/66/66
f 71/71/71 70/70/70 69/69/69
f 72/72/72 69/69/69 70/70/70
f 75/75/75 74/74/74 73/73/73
f 76/76/76 73/73/73 74/74/74
f 79/79/79 78/78/78 77/77/77
f 80/80/80 77/77/77 78/78/78
f 83/83/83 82/82/82 81/81/81
f 84/84/84 81/81/81 82/82/82
f 87/87/87 86/86/86 85/85/85
f 86/86/86 88/88/88 85/85/85
f 88/88/88 89/89/89 85/85/85
f 89/89/89 90/90/90 85/85/85
f 93/93/93 92/92/92 91/91/91
f 94/94/94 91/91/91 92/92/92
f 95/95/95 93/93/93 91/91/91
f 98/98/98 97/97/97 96/96/96
f 99/99/99 96/96/96 97/97/97
f 102/102/102 101/101/101 100/100/100
f 103/103/103 100/100/100 101/101/101
f 106/106/106 105/105/105 104/104/104
f 107/107/107 104/104/104 105/105/105
f 110/110/110 109/109/109 108/108/108
f 111/111/111 108/108/108 109/109/109
f 114/114/114 113/113/113 112/112/112
f 115/115/115 112/112/112 113/113/113
f 118/118/118 117/117/117 116/116/116
f 119/119/119 116/116/116 117/117/117
f 122/122/122 121/121/121 120/120/120
f 123/123/123 120/120/120 121/121/121
f 126/126/126 125/125/125 124/124/124
f 127/127/127 124/124/124 125/125/125
f 130/130/130 129/129/129 128/128/128
f 131/131/131 128/128/128 129/129/129
f 134/134/134 133/133/133 132/132/132
f 135/135/135 132/132/132 133/133/133
f 138/138/138 137/137/137 136/136/136
f 137/137/137 139/139/139 136/136/136
f 139/139/139 140/140/140 136/136/136
