g M_SA_Chair_01
v -1.1125 1.436461 1.25
v 1.1125 1.436461 1.25
v 1.1125 1.436461 -1.25
v -1.1125 1.436461 -1.25
v -1.1125 1.686461 1.25
v -1.1125 1.686461 -1.25
v 1.1125 1.686461 -1.25
v 1.1125 1.686461 1.25
v -1.1125 1.436461 1.25
v -1.1125 1.686461 1.25
v 1.1125 1.686461 1.25
v 1.1125 1.436461 1.25
v 1.1125 1.436461 1.25
v 1.1125 1.686461 1.25
v 1.1125 1.686461 -1.25
v 1.1125 1.436461 -1.25
v 1.1125 1.436461 -1.25
v 1.1125 1.686461 -1.25
v -1.1125 1.686461 -1.25
v -1.1125 1.436461 -1.25
v -1.1125 1.436461 -1.25
v -1.1125 1.686461 -1.25
v -1.1125 1.686461 1.25
v -1.1125 1.436461 1.25
v -0.790739 1.488419 -1.129634
v 0.8140545 1.488419 -1.129634
v 0.8140545 3.255719 -1.95374
v -0.790739 3.255719 -1.95374
v -0.790739 1.594073 -0.9030572
v -0.790739 3.361373 -1.727163
v 0.8140545 3.361373 -1.727163
v 0.8140545 1.594073 -0.9030572
v -0.790739 1.488419 -1.129634
v -0.790739 1.594073 -0.9030572
v 0.8140545 1.594073 -0.9030572
v 0.8140545 1.488419 -1.129634
v 0.8140545 1.488419 -1.129634
v 0.8140545 1.594073 -0.9030572
v 0.8140545 3.361373 -1.727163
v 0.8140545 3.255719 -1.95374
v 0.8140545 3.255719 -1.95374
v 0.8140545 3.361373 -1.727163
v -0.790739 3.361373 -1.727163
v -0.790739 3.255719 -1.95374
v -0.790739 3.255719 -1.95374
v -0.790739 3.361373 -1.727163
v -0.790739 1.594073 -0.9030572
v -0.790739 1.488419 -1.129634
v -0.125 0.01287713 0.125
v 0.125 0.01287713 0.125
v 0.125 0.01287714 -0.125
v -0.125 0.01287714 -0.125
v -0.125 1.512877 0.1250001
v -0.125 1.512877 -0.1249999
v 0.125 1.512877 -0.1249999
v 0.125 1.512877 0.1250001
v -0.125 0.01287713 0.125
v -0.125 1.512877 0.1250001
v 0.125 1.512877 0.1250001
v 0.125 0.01287713 0.125
v 0.125 0.01287713 0.125
v 0.125 1.512877 0.1250001
v 0.125 1.512877 -0.1249999
v 0.125 0.01287714 -0.125
v 0.125 0.01287714 -0.125
v 0.125 1.512877 -0.1249999
v -0.125 1.512877 -0.1249999
v -0.125 0.01287714 -0.125
v -0.125 0.01287714 -0.125
v -0.125 1.512877 -0.1249999
v -0.125 1.512877 0.1250001
v -0.125 0.01287713 0.125
v -0.7499999 -1.224876E-06 0.7499999
v 0.7499999 -1.224876E-06 0.7499999
v 0.7499999 -1.159309E-06 -0.7499999
v -0.7499999 -1.159309E-06 -0.7499999
v -0.7499999 0.04999873 0.7499999
v -0.7499999 0.04999879 -0.7499999
v 0.7499999 0.04999879 -0.7499999
v 0.7499999 0.04999873 0.7499999
v -0.7499999 -1.224876E-06 0.7499999
v -0.7499999 0.04999873 0.7499999
v 0.7499999 0.04999873 0.7499999
v 0.7499999 -1.224876E-06 0.7499999
v 0.7499999 -1.224876E-06 0.7499999
v 0.7499999 0.04999873 0.7499999
v 0.7499999 0.04999879 -0.7499999
v 0.7499999 -1.159309E-06 -0.7499999
v 0.7499999 -1.159309E-06 -0.7499999
v 0.7499999 0.04999879 -0.7499999
v -0.7499999 0.04999879 -0.7499999
v -0.7499999 -1.159309E-06 -0.7499999
v -0.7499999 -1.159309E-06 -0.7499999
v -0.7499999 0.04999879 -0.7499999
v -0.7499999 0.04999873 0.7499999
v -0.7499999 -1.224876E-06 0.7499999
vt 0.8781041 0.1636888
vt 0.6303761 0.1636888
vt 0.6303761 0.3452447
vt 0.8781041 0.3452447
vt 0.6303761 0.1636888
vt 0.6303761 0.3452447
vt 0.8781041 0.3452447
vt 0.8781041 0.1636888
vt 0.6303761 0.1636888
vt 0.6303761 0.3452447
vt 0.8781041 0.3452447
vt 0.8781041 0.1636888
vt 0.6303761 0.1636888
vt 0.6303761 0.3452447
vt 0.8781041 0.3452447
vt 0.8781041 0.1636888
vt 0.6303761 0.1636888
vt 0.6303761 0.3452447
vt 0.8781041 0.3452447
vt 0.8781041 0.1636888
vt 0.6303761 0.1636888
vt 0.6303761 0.3452447
vt 0.8781041 0.3452447
vt 0.8781041 0.1636888
vt 0.8781041 0.1636888
vt 0.6303761 0.1636888
vt 0.6303761 0.3452447
vt 0.8781041 0.3452447
vt 0.6303761 0.1636888
vt 0.6303761 0.3452447
vt 0.8781041 0.3452447
vt 0.8781041 0.1636888
vt 0.6303761 0.1636888
vt 0.6303761 0.3452447
vt 0.8781041 0.3452447
vt 0.8781041 0.1636888
vt 0.6303761 0.1636888
vt 0.6303761 0.3452447
vt 0.8781041 0.3452447
vt 0.8781041 0.1636888
vt 0.6303761 0.1636888
vt 0.6303761 0.3452447
vt 0.8781041 0.3452447
vt 0.8781041 0.1636888
vt 0.6303761 0.1636888
vt 0.6303761 0.3452447
vt 0.8781041 0.3452447
vt 0.8781041 0.1636888
vt 0.369624 0.1636888
vt 0.121896 0.1636888
vt 0.121896 0.3452447
vt 0.369624 0.3452447
vt 0.121896 0.1636888
vt 0.121896 0.3452447
vt 0.369624 0.3452447
vt 0.369624 0.1636888
vt 0.121896 0.1636888
vt 0.121896 0.3452447
vt 0.369624 0.3452447
vt 0.369624 0.1636888
vt 0.121896 0.1636888
vt 0.121896 0.3452447
vt 0.369624 0.3452447
vt 0.369624 0.1636888
vt 0.121896 0.1636888
vt 0.121896 0.3452447
vt 0.369624 0.3452447
vt 0.369624 0.1636888
vt 0.121896 0.1636888
vt 0.121896 0.3452447
vt 0.369624 0.3452447
vt 0.369624 0.1636888
vt 0.369624 0.1636888
vt 0.121896 0.1636888
vt 0.121896 0.3452447
vt 0.369624 0.3452447
vt 0.121896 0.1636888
vt 0.121896 0.3452447
vt 0.369624 0.3452447
vt 0.369624 0.1636888
vt 0.121896 0.1636888
vt 0.121896 0.3452447
vt 0.369624 0.3452447
vt 0.369624 0.1636888
vt 0.121896 0.1636888
vt 0.121896 0.3452447
vt 0.369624 0.3452447
vt 0.369624 0.1636888
vt 0.121896 0.1636888
vt 0.121896 0.3452447
vt 0.369624 0.3452447
vt 0.369624 0.1636888
vt 0.121896 0.1636888
vt 0.121896 0.3452447
vt 0.369624 0.3452447
vt 0.369624 0.1636888
vn 0 -1 0
vn 0 -1 0
vn 0 -1 0
vn 0 -1 0
vn 0 1 0
vn 0 1 0
vn 0 1 0
vn 0 1 0
vn 0 0 1
vn 0 0 1
vn 0 0 1
vn 0 0 1
vn 1 0 0
vn 1 0 0
vn 1 0 0
vn 1 0 0
vn 0 0 -1
vn 0 0 -1
vn 0 0 -1
vn 0 0 -1
vn -1 0 0
vn -1 0 0
vn -1 0 0
vn -1 0 0
vn 0 -0.4226183 -0.9063078
vn 0 -0.4226183 -0.9063078
vn 0 -0.4226183 -0.9063078
vn 0 -0.4226183 -0.9063078
vn 0 0.4226182 0.9063078
vn 0 0.4226182 0.9063078
vn 0 0.4226182 0.9063078
vn 0 0.4226182 0.9063078
vn 0 -0.9063079 0.4226181
vn 0 -0.9063079 0.4226181
vn 0 -0.9063079 0.4226181
vn 0 -0.9063079 0.4226181
vn 1 0 0
vn 1 0 0
vn 1 0 0
vn 1 0 0
vn 0 0.9063079 -0.4226181
vn 0 0.9063079 -0.4226181
vn 0 0.9063079 -0.4226181
vn 0 0.9063079 -0.4226181
vn -1 0 0
vn -1 0 0
vn -1 0 0
vn -1 0 0
vn 0 -1 0
vn 0 -1 0
vn 0 -1 0
vn 0 -1 0
vn 0 1 0
vn 0 1 0
vn 0 1 0
vn 0 1 0
vn 0 0 1
vn 0 0 1
vn 0 0 1
vn 0 0 1
vn 1 0 0
vn 1 0 0
vn 1 0 0
vn 1 0 0
vn 0 0 -1
vn 0 0 -1
vn 0 0 -1
vn 0 0 -1
vn -1 0 0
vn -1 0 0
vn -1 0 0
vn -1 0 0
vn 0 -1 0
vn 0 -1 0
vn 0 -1 0
vn 0 -1 0
vn 0 1 0
vn 0 1 0
vn 0 1 0
vn 0 1 0
vn 0 0 1
vn 0 0 1
vn 0 0 1
vn 0 0 1
vn 1 0 0
vn 1 0 0
vn 1 0 0
vn 1 0 0
vn 0 0 -1
vn 0 0 -1
vn 0 0 -1
vn 0 0 -1
vn -1 0 0
vn -1 0 0
vn -1 0 0
vn -1 0 0
g M_SA_Chair_01_0
f 3/3/3 2/2/2 1/1/1
f 4/4/4 3/3/3 1/1/1
f 7/7/7 6/6/6 5/5/5
f 8/8/8 7/7/7 5/5/5
f 11/11/11 10/10/10 9/9/9
f 12/12/12 11/11/11 9/9/9
f 15/15/15 14/14/14 13/13/13
f 16/16/16 15/15/15 13/13/13
f 19/19/19 18/18/18 17/17/17
f 20/20/20 19/19/19 17/17/17
f 23/23/23 22/22/22 21/21/21
f 24/24/24 23/23/23 21/21/21
f 27/27/27 26/26/26 25/25/25
f 28/28/28 27/27/27 25/25/25
f 31/31/31 30/30/30 29/29/29
f 32/32/32 31/31/31 29/29/29
f 35/35/35 34/34/34 33/33/33
f 36/36/36 35/35/35 33/33/33
f 39/39/39 38/38/38 37/37/37
f 40/40/40 39/39/39 37/37/37
f 43/43/43 42/42/42 41/41/41
f 44/44/44 43/43/43 41/41/41
f 47/47/47 46/46/46 45/45/45
f 48/48/48 47/47/47 45/45/45
f 51/51/51 50/50/50 49/49/49
f 52/52/52 51/51/51 49/49/49
f 55/55/55 54/54/54 53/53/53
f 56/56/56 55/55/55 53/53/53
f 59/59/59 58/58/58 57/57/57
f 60/60/60 59/59/59 57/57/57
f 63/63/63 62/62/62 61/61/61
f 64/64/64 63/63/63 61/61/61
f 67/67/67 66/66/66 65/65/65
f 68/68/68 67/67/67 65/65/65
f 71/71/71 70/70/70 69/69/69
f 72/72/72 71/71/71 69/69/69
f 75/75/75 74/74/74 73/73/73
f 76/76/76 75/75/75 73/73/73
f 79/79/79 78/78/78 77/77/77
f 80/80/80 79/79/79 77/77/77
f 83/83/83 82/82/82 81/81/81
f 84/84/84 83/83/83 81/81/81
f 87/87/87 86/86/86 85/85/85
f 88/88/88 87/87/87 85/85/85
f 91/91/91 90/90/90 89/89/89
f 92/92/92 91/91/91 89/89/89
f 95/95/95 94/94/94 93/93/93
f 96/96/96 95/95/95 93/93/93
