g M_SA_wall_door_in_01
v 2.499997 -2.384186E-07 0.4999998
v 2.499997 5 -0.4999999
v 2.499997 5 0.5000005
v 2.499997 5.204754E-17 -0.5000005
v 3.5 -2.384186E-07 0.4999998
v 2.499997 5.204754E-17 -0.5000005
v 2.499997 -2.384186E-07 0.4999998
v 3.5 2.384186E-07 -0.5000005
v 3.5 5 0.5000005
v 3.5 2.384186E-07 -0.5000005
v 3.5 -2.384186E-07 0.4999998
v 3.5 5 -0.4999999
v -3.5 -9.184817E-18 0.4999998
v -3.5 5 -0.4999999
v -3.5 5 0.5000005
v -3.5 5.204754E-17 -0.5000005
v -2.499997 -9.184817E-18 0.4999998
v -3.5 5.204754E-17 -0.5000005
v -3.5 -9.184817E-18 0.4999998
v -2.499997 5.204754E-17 -0.5000005
v -2.499997 5 0.5000005
v -2.499997 5.204754E-17 -0.5000005
v -2.499997 -9.184817E-18 0.4999998
v -2.499997 5 -0.4999999
v 2.499997 5 -0.4999999
v 3.5 2.384186E-07 -0.5000005
v 3.5 5 -0.4999999
v 2.499997 5.204754E-17 -0.5000005
v -2.499997 5 -0.4999999
v -3.5 5.204754E-17 -0.5000005
v -2.499997 5.204754E-17 -0.5000005
v -3.5 5 -0.4999999
v -3.5 -9.184817E-18 0.4999998
v -2.499997 5 0.5000005
v -2.499997 -9.184817E-18 0.4999998
v -3.5 5 0.5000005
v 2.499997 5 0.5000005
v 3.5 -2.384186E-07 0.4999998
v 2.499997 -2.384186E-07 0.4999998
v 3.5 5 0.5000005
v 3.5 5 0.5000005
v 2.499997 5 -0.4999999
v 3.5 5 -0.4999999
v 2.499997 5 0.5000005
v -3.5 5 -0.4999999
v -2.499997 5 0.5000005
v -3.5 5 0.5000005
v -2.499997 5 -0.4999999
vt 0.458679 0.5639179
vt 0.458679 0.6753896
vt 0.458679 0.6753896
vt 0.458679 0.5639179
vt 0.4612199 0.5639179
vt 0.458679 0.5639179
vt 0.458679 0.5639179
vt 0.4612199 0.5639179
vt 0.4612199 0.6765156
vt 0.4612199 0.5639179
vt 0.4612199 0.5639179
vt 0.4612199 0.6765156
vt 0.3440948 0.5639179
vt 0.3440948 0.6765156
vt 0.3440948 0.6765156
vt 0.3440948 0.5639179
vt 0.3466358 0.5639179
vt 0.3440948 0.5639179
vt 0.3440948 0.5639179
vt 0.3466358 0.5639179
vt 0.3466358 0.6753896
vt 0.3466358 0.5639179
vt 0.3466358 0.5639179
vt 0.3466358 0.6753896
vt 0.458679 0.6753896
vt 0.4612199 0.5639179
vt 0.4612199 0.6765156
vt 0.458679 0.5639179
vt 0.3466358 0.6753896
vt 0.3440948 0.5639179
vt 0.3466358 0.5639179
vt 0.3440948 0.6765156
vt 0.3440948 0.5639179
vt 0.3466358 0.6753896
vt 0.3466358 0.5639179
vt 0.3440948 0.6765156
vt 0.458679 0.6753896
vt 0.4612199 0.5639179
vt 0.458679 0.5639179
vt 0.4612199 0.6765156
vt 0.4543059 0.6262395
vt 0.451765 0.6251136
vt 0.4543059 0.6262395
vt 0.451765 0.6251136
vt 0.3371808 0.6262395
vt 0.3397218 0.6251136
vt 0.3371808 0.6262395
vt 0.3397218 0.6251136
vn -1 0 0
vn -1 0 0
vn -1 0 0
vn -1 0 0
vn 0 -1 0
vn 0 -1 0
vn 0 -1 0
vn 0 -1 0
vn 1 0 0
vn 1 0 0
vn 1 0 0
vn 1 0 0
vn -1 0 0
vn -1 0 0
vn -1 0 0
vn -1 0 0
vn 0 -1 0
vn 0 -1 0
vn 0 -1 0
vn 0 -1 0
vn 1 0 0
vn 1 0 0
vn 1 0 0
vn 1 0 0
vn 0 0 -1
vn 0 0 -1
vn 0 0 -1
vn 0 0 -1
vn 0 0 -1
vn 0 0 -1
vn 0 0 -1
vn 0 0 -1
vn 0 0 1
vn 0 0 1
vn 0 0 1
vn 0 0 1
vn 0 0 1
vn 0 0 1
vn 0 0 1
vn 0 0 1
vn 0 1 0
vn 0 1 0
vn 0 1 0
vn 0 1 0
vn 0 1 0
vn 0 1 0
vn 0 1 0
vn 0 1 0
g M_SA_wall_door_in_01_0
f 3/3/3 2/2/2 1/1/1
f 4/4/4 1/1/1 2/2/2
f 7/7/7 6/6/6 5/5/5
f 8/8/8 5/5/5 6/6/6
f 11/11/11 10/10/10 9/9/9
f 12/12/12 9/9/9 10/10/10
f 15/15/15 14/14/14 13/13/13
f 16/16/16 13/13/13 14/14/14
f 19/19/19 18/18/18 17/17/17
f 20/20/20 17/17/17 18/18/18
f 23/23/23 22/22/22 21/21/21
f 24/24/24 21/21/21 22/22/22
f 27/27/27 26/26/26 25/25/25
f 28/28/28 25/25/25 26/26/26
f 31/31/31 30/30/30 29/29/29
f 32/32/32 29/29/29 30/30/30
f 35/35/35 34/34/34 33/33/33
f 36/36/36 33/33/33 34/34/34
f 39/39/39 38/38/38 37/37/37
f 40/40/40 37/37/37 38/38/38
f 43/43/43 42/42/42 41/41/41
f 44/44/44 41/41/41 42/42/42
f 47/47/47 46/46/46 45/45/45
f 48/48/48 45/45/45 46/46/46
