g M_SA_Shelf_Bottles_01
v -0.6079301 0.9355424 0.1807763
v -0.6079306 0.9355425 -0.148294
v 0.6079285 0.9355425 -0.148294
v 0.6079291 0.9355424 0.1807763
v -0.6079301 0.8975762 0.1807763
v 0.6079291 0.8975762 0.1807763
v 0.6079285 0.8975762 -0.148294
v -0.6079306 0.8975762 -0.148294
v -0.6079301 0.8975762 0.1807763
v -0.6079301 0.9355424 0.1807763
v 0.6079291 0.9355424 0.1807763
v 0.6079291 0.8975762 0.1807763
v 0.6079291 0.8975762 0.1807763
v 0.6079291 0.9355424 0.1807763
v 0.6079285 0.9355425 -0.148294
v 0.6079285 0.8975762 -0.148294
v 0.6079285 0.8975762 -0.148294
v 0.6079285 0.9355425 -0.148294
v -0.6079306 0.9355425 -0.148294
v -0.6079306 0.8975762 -0.148294
v -0.6079306 0.8975762 -0.148294
v -0.6079306 0.9355425 -0.148294
v -0.6079301 0.9355424 0.1807763
v -0.6079301 0.8975762 0.1807763
v -0.6079301 1.39187 0.1807763
v -0.6079306 1.39187 -0.1482939
v 0.6079285 1.39187 -0.1482939
v 0.6079291 1.39187 0.1807763
v -0.6079301 1.353903 0.1807763
v 0.6079291 1.353903 0.1807763
v 0.6079285 1.353904 -0.1482939
v -0.6079306 1.353904 -0.1482939
v -0.6079301 1.353903 0.1807763
v -0.6079301 1.39187 0.1807763
v 0.6079291 1.39187 0.1807763
v 0.6079291 1.353903 0.1807763
v 0.6079291 1.353903 0.1807763
v 0.6079291 1.39187 0.1807763
v 0.6079285 1.39187 -0.1482939
v 0.6079285 1.353904 -0.1482939
v 0.6079285 1.353904 -0.1482939
v 0.6079285 1.39187 -0.1482939
v -0.6079306 1.39187 -0.1482939
v -0.6079306 1.353904 -0.1482939
v -0.6079306 1.353904 -0.1482939
v -0.6079306 1.39187 -0.1482939
v -0.6079301 1.39187 0.1807763
v -0.6079301 1.353903 0.1807763
v -0.6780897 1.616959 0.2160127
v -0.6780897 0.003067743 0.2160125
v -0.6780892 0.003067813 -0.2160134
v -0.6780892 1.976043 -0.2160131
v -0.6780897 1.976043 -0.1482526
v 0.6780882 0.003067813 -0.2160134
v 0.6780877 0.003067743 0.2160125
v 0.6780877 1.616959 0.2160127
v 0.6780882 1.976043 -0.2160131
v 0.67809 1.976043 -0.1482938
v 0.6780882 0.003067813 -0.2160134
v -0.6780892 0.003067813 -0.2160134
v -0.6780897 0.003067743 0.2160125
v 0.6780877 0.003067743 0.2160125
v -0.6079306 0.4643596 -0.1482941
v -0.6079306 1.976041 -0.1482938
v 0.6079285 1.976041 -0.1482938
v 0.6079285 0.4643596 -0.1482941
v 0.6780882 0.003067813 -0.2160134
v 0.6780882 1.976043 -0.2160131
v -0.6780892 1.976043 -0.2160131
v -0.6780892 0.003067813 -0.2160134
v -0.6780897 0.003067743 0.2160125
v -0.6079306 0.4643596 0.2160126
v 0.6079285 0.4643596 0.2160126
v 0.6780877 0.003067743 0.2160125
v 0.6079285 1.616957 0.2160127
v 0.6780877 1.616959 0.2160127
v -0.6780897 1.616959 0.2160127
v -0.6079306 1.616957 0.2160127
v -0.6079306 0.4643596 0.2160126
v -0.6079306 0.4643596 -0.1482941
v 0.6079285 0.4643596 -0.1482941
v 0.6079285 0.4643596 0.2160126
v 0.6079285 0.4643596 0.2160126
v 0.6079285 0.4643596 -0.1482941
v 0.6079285 1.976041 -0.1482938
v 0.6079285 1.616957 0.2160127
v -0.6079306 1.616957 0.2160127
v -0.6079306 1.976041 -0.1482938
v -0.6079306 0.4643596 -0.1482941
v -0.6079306 0.4643596 0.2160126
v -0.6079306 1.976041 -0.1482938
v -0.6079306 1.616957 0.2160127
v -0.6780897 1.616959 0.2160127
v -0.6780897 1.976043 -0.1482526
v 0.6780882 1.976043 -0.2160131
v 0.6079285 1.976041 -0.1482938
v -0.6079306 1.976041 -0.1482938
v -0.6780892 1.976043 -0.2160131
v 0.67809 1.976043 -0.1482938
v -0.6780897 1.976043 -0.1482526
v 0.67809 1.976043 -0.1482938
v 0.6780877 1.616959 0.2160127
v 0.6079285 1.616957 0.2160127
v 0.6079285 1.976041 -0.1482938
vt 0.422111 0.06020802
vt 0.422111 0.06020802
vt 0.422111 0.06020802
vt 0.422111 0.06020802
vt 0.3277583 0.06020802
vt 0.3277583 0.06020802
vt 0.3277583 0.06020802
vt 0.3277583 0.06020802
vt 0.3804848 0.06018224
vt 0.3804848 0.06018224
vt 0.3804848 0.06018224
vt 0.3804848 0.06018224
vt 0.3804848 0.06018224
vt 0.3804848 0.06018224
vt 0.3804848 0.06018224
vt 0.3804848 0.06018224
vt 0.3804848 0.06018224
vt 0.3804848 0.06018224
vt 0.3804848 0.06018224
vt 0.3804848 0.06018224
vt 0.3804848 0.06018224
vt 0.3804848 0.06018224
vt 0.3804848 0.06018224
vt 0.3804848 0.06018224
vt 0.422111 0.06020802
vt 0.422111 0.06020802
vt 0.422111 0.06020802
vt 0.422111 0.06020802
vt 0.3277583 0.06020802
vt 0.3277583 0.06020802
vt 0.3277583 0.06020802
vt 0.3277583 0.06020802
vt 0.3804848 0.06018224
vt 0.3804848 0.06018224
vt 0.3804848 0.06018224
vt 0.3804848 0.06018224
vt 0.3804848 0.06018224
vt 0.3804848 0.06018224
vt 0.3804848 0.06018224
vt 0.3804848 0.06018224
vt 0.3804848 0.06018224
vt 0.3804848 0.06018224
vt 0.3804848 0.06018224
vt 0.3804848 0.06018224
vt 0.3804848 0.06018224
vt 0.3804848 0.06018224
vt 0.3804848 0.06018224
vt 0.3804848 0.06018224
vt 0.3240581 0.06015646
vt 0.3240581 0.06015646
vt 0.3240581 0.06015646
vt 0.3240581 0.06015646
vt 0.3240581 0.06015646
vt 0.3240581 0.06015646
vt 0.3240581 0.06015646
vt 0.3240581 0.06015646
vt 0.3240581 0.06015646
vt 0.3240581 0.06015646
vt 0.3804848 0.06018224
vt 0.3804848 0.06018224
vt 0.3804848 0.06018224
vt 0.3804848 0.06018224
vt 0.3610592 0.06015646
vt 0.3610592 0.06015646
vt 0.3610592 0.06015646
vt 0.3610592 0.06015646
vt 0.3804848 0.06018224
vt 0.3804848 0.06018224
vt 0.3804848 0.06018224
vt 0.3804848 0.06018224
vt 0.3804848 0.06018224
vt 0.3804848 0.06018224
vt 0.3804848 0.06018224
vt 0.3804848 0.06018224
vt 0.3804848 0.06018224
vt 0.3804848 0.06018224
vt 0.3804848 0.06018224
vt 0.3804848 0.06018224
vt 0.422111 0.06020802
vt 0.422111 0.06020802
vt 0.422111 0.06020802
vt 0.422111 0.06020802
vt 0.3240581 0.06015646
vt 0.3240581 0.06015646
vt 0.3240581 0.06015646
vt 0.3240581 0.06015646
vt 0.3240581 0.06015646
vt 0.3240581 0.06015646
vt 0.3240581 0.06015646
vt 0.3240581 0.06015646
vt 0.4573409 0.05984342
vt 0.4573409 0.05984342
vt 0.4573409 0.05984342
vt 0.4573409 0.05984342
vt 0.4918303 0.06011802
vt 0.4918303 0.06011802
vt 0.4918306 0.06011802
vt 0.4918306 0.06011802
vt 0.4918303 0.06011802
vt 0.4918306 0.06011802
vt 0.4573412 0.05984342
vt 0.4573412 0.05984342
vt 0.4573412 0.05984342
vt 0.4573412 0.05984342
vn 0 1 0
vn 0 1 0
vn 0 1 0
vn 0 1 0
vn 0 -1 0
vn 0 -1 0
vn 0 -1 0
vn 0 -1 0
vn 0 0 1
vn 0 0 1
vn 0 0 1
vn 0 0 1
vn 1 0 0
vn 1 0 0
vn 1 0 0
vn 1 0 0
vn 0 0 -1
vn 0 0 -1
vn 0 0 -1
vn 0 0 -1
vn -1 0 0
vn -1 0 0
vn -1 0 0
vn -1 0 0
vn 0 1 0
vn 0 1 0
vn 0 1 0
vn 0 1 0
vn 0 -1 0
vn 0 -1 0
vn 0 -1 0
vn 0 -1 0
vn 0 0 1
vn 0 0 1
vn 0 0 1
vn 0 0 1
vn 1 0 0
vn 1 0 0
vn 1 0 0
vn 1 0 0
vn 0 0 -1
vn 0 0 -1
vn 0 0 -1
vn 0 0 -1
vn -1 0 0
vn -1 0 0
vn -1 0 0
vn -1 0 0
vn -1 0 0
vn -1 0 0
vn -1 0 0
vn -1 0 0
vn -1 0 0
vn 1 0 0
vn 1 0 0
vn 1 0 0
vn 1 0 0
vn 1 0 0
vn 0 -1 0
vn 0 -1 0
vn 0 -1 0
vn 0 -1 0
vn 0 0 1
vn 0 0 1
vn 0 0 1
vn 0 0 1
vn 0 0 -1
vn 0 0 -1
vn 0 0 -1
vn 0 0 -1
vn 0 0 1
vn 0 0 1
vn 0 0 1
vn 0 0 1
vn 0 0 1
vn 0 0 1
vn 0 0 1
vn 0 0 1
vn 0 1 0
vn 0 1 0
vn 0 1 0
vn 0 1 0
vn -1 0 0
vn -1 0 0
vn -1 0 0
vn -1 0 0
vn 1 0 0
vn 1 0 0
vn 1 0 0
vn 1 0 0
vn 0.0002284832 0.7121722 0.7020047
vn 0.0002284842 0.7121753 0.7020016
vn 0.0002185501 0.7121753 0.7020016
vn 0.0002185499 0.7121748 0.7020022
vn 0 1 2.980211E-05
vn 0 1 2.980211E-05
vn 0 1 2.980211E-05
vn 0 1 2.980211E-05
vn -2.980211E-05 1 0
vn 2.980211E-05 1 0
vn -2.980225E-05 0.7121944 0.7019822
vn -1.986791E-05 0.7122049 0.7019717
vn -2.483524E-05 0.7121951 0.7019816
vn -2.483521E-05 0.7121944 0.7019822
g M_SA_Shelf_Bottles_01_0
f 3/3/3 2/2/2 1/1/1
f 4/4/4 3/3/3 1/1/1
f 7/7/7 6/6/6 5/5/5
f 8/8/8 7/7/7 5/5/5
f 11/11/11 10/10/10 9/9/9
f 12/12/12 11/11/11 9/9/9
f 15/15/15 14/14/14 13/13/13
f 16/16/16 15/15/15 13/13/13
f 19/19/19 18/18/18 17/17/17
f 20/20/20 19/19/19 17/17/17
f 23/23/23 22/22/22 21/21/21
f 24/24/24 23/23/23 21/21/21
f 27/27/27 26/26/26 25/25/25
f 28/28/28 27/27/27 25/25/25
f 31/31/31 30/30/30 29/29/29
f 32/32/32 31/31/31 29/29/29
f 35/35/35 34/34/34 33/33/33
f 36/36/36 35/35/35 33/33/33
f 39/39/39 38/38/38 37/37/37
f 40/40/40 39/39/39 37/37/37
f 43/43/43 42/42/42 41/41/41
f 44/44/44 43/43/43 41/41/41
f 47/47/47 46/46/46 45/45/45
f 48/48/48 47/47/47 45/45/45
f 51/51/51 50/50/50 49/49/49
f 49/49/49 52/52/52 51/51/51
f 49/49/49 53/53/53 52/52/52
f 56/56/56 55/55/55 54/54/54
f 54/54/54 57/57/57 56/56/56
f 57/57/57 58/58/58 56/56/56
f 61/61/61 60/60/60 59/59/59
f 62/62/62 61/61/61 59/59/59
f 65/65/65 64/64/64 63/63/63
f 66/66/66 65/65/65 63/63/63
f 69/69/69 68/68/68 67/67/67
f 70/70/70 69/69/69 67/67/67
f 73/73/73 72/72/72 71/71/71
f 74/74/74 73/73/73 71/71/71
f 75/75/75 73/73/73 74/74/74
f 76/76/76 75/75/75 74/74/74
f 71/71/71 72/72/72 77/77/77
f 72/72/72 78/78/78 77/77/77
f 81/81/81 80/80/80 79/79/79
f 82/82/82 81/81/81 79/79/79
f 85/85/85 84/84/84 83/83/83
f 86/86/86 85/85/85 83/83/83
f 89/89/89 88/88/88 87/87/87
f 90/90/90 89/89/89 87/87/87
f 93/93/93 92/92/92 91/91/91
f 94/94/94 93/93/93 91/91/91
f 97/97/97 96/96/96 95/95/95
f 98/98/98 97/97/97 95/95/95
f 96/96/96 99/99/99 95/95/95
f 98/98/98 100/100/100 97/97/97
f 103/103/103 102/102/102 101/101/101
f 104/104/104 103/103/103 101/101/101
