g M_SA_Fence_column_01
v -1.273223 0.02999926 -4.321337E-07
v -1.303271 4.920498 -0.1121429
v -1.303271 0.02999926 -0.1121438
v -1.273223 4.920498 4.321337E-07
v -1.385367 4.920498 -0.1942376
v -1.385366 0.02999926 -0.1942383
v -1.49751 4.920498 -0.2242862
v -1.49751 0.02999926 -0.2242871
v -1.303272 0.02999926 0.1121431
v -1.303272 4.920498 0.1121438
v -1.385366 0.02999926 0.1942376
v -1.385367 4.920498 0.1942384
v -1.49751 0.02999926 0.2242863
v -1.49751 4.920498 0.224287
v -1.609653 0.02999926 0.1942375
v -1.609653 4.920498 0.1942383
v -1.691748 0.02999926 0.1121429
v -1.691748 4.920498 0.1121436
v -1.721796 0.02999926 -4.693866E-07
v -1.721796 4.920498 3.948808E-07
v -1.691747 0.02999926 -0.1121438
v -1.691747 4.920498 -0.1121429
v -1.609653 0.02999926 -0.1942383
v -1.609653 4.920498 -0.1942376
v -1.49751 0.02999926 -0.2242871
v -1.49751 4.920498 -0.2242862
v -1.385366 0.02999926 0.1942376
v -1.609653 0.02999926 0.1942375
v -1.49751 0.02999926 0.2242863
v -1.273223 0.02999926 -4.321337E-07
v -1.609653 0.02999926 -0.1942383
v -1.721796 0.02999926 -4.693866E-07
v -1.691748 0.02999926 0.1121429
v -1.691747 0.02999926 -0.1121438
v -1.385366 0.02999926 -0.1942383
v -1.49751 0.02999926 -0.2242871
v -1.303271 0.02999926 -0.1121438
v -1.303272 0.02999926 0.1121431
v -1.303271 4.920498 -0.1121429
v -1.49751 4.920498 -0.2242862
v -1.385367 4.920498 -0.1942376
v -1.303272 4.920498 0.1121438
v -1.691748 4.920498 0.1121436
v -1.691747 4.920498 -0.1121429
v -1.609653 4.920498 -0.1942376
v -1.721796 4.920498 3.948808E-07
v -1.49751 4.920498 0.224287
v -1.609653 4.920498 0.1942383
v -1.385367 4.920498 0.1942384
v -1.273223 4.920498 4.321337E-07
v 0.239283 0.02999926 -4.321337E-07
v 0.2092345 4.920498 -0.1121429
v 0.2092345 0.02999926 -0.1121438
v 0.239283 4.920498 4.321337E-07
v 0.1271394 4.920498 -0.1942376
v 0.1271394 0.02999926 -0.1942383
v 0.01499629 4.920498 -0.2242862
v 0.01499629 0.02999926 -0.2242871
v 0.2092339 0.02999926 0.1121431
v 0.2092339 4.920498 0.1121438
v 0.1271394 0.02999926 0.1942376
v 0.1271394 4.920498 0.1942384
v 0.01499629 0.02999926 0.2242863
v 0.01499629 4.920498 0.224287
v -0.09714758 0.02999926 0.1942375
v -0.09714758 4.920498 0.1942383
v -0.179242 0.02999926 0.1121429
v -0.179242 4.920498 0.1121436
v -0.2092906 0.02999926 -4.693866E-07
v -0.2092906 4.920498 3.948808E-07
v -0.1792417 0.02999926 -0.1121438
v -0.1792417 4.920498 -0.1121429
v -0.09714687 0.02999926 -0.1942383
v -0.09714687 4.920498 -0.1942376
v 0.01499629 0.02999926 -0.2242871
v 0.01499629 4.920498 -0.2242862
v 0.1271394 0.02999926 0.1942376
v -0.09714758 0.02999926 0.1942375
v 0.01499629 0.02999926 0.2242863
v 0.239283 0.02999926 -4.321337E-07
v -0.09714687 0.02999926 -0.1942383
v -0.2092906 0.02999926 -4.693866E-07
v -0.179242 0.02999926 0.1121429
v -0.1792417 0.02999926 -0.1121438
v 0.1271394 0.02999926 -0.1942383
v 0.01499629 0.02999926 -0.2242871
v 0.2092345 0.02999926 -0.1121438
v 0.2092339 0.02999926 0.1121431
v 0.2092345 4.920498 -0.1121429
v 0.01499629 4.920498 -0.2242862
v 0.1271394 4.920498 -0.1942376
v 0.2092339 4.920498 0.1121438
v -0.179242 4.920498 0.1121436
v -0.1792417 4.920498 -0.1121429
v -0.09714687 4.920498 -0.1942376
v -0.2092906 4.920498 3.948808E-07
v 0.01499629 4.920498 0.224287
v -0.09714758 4.920498 0.1942383
v 0.1271394 4.920498 0.1942384
v 0.239283 4.920498 4.321337E-07
v 1.721796 0.02999926 -4.321337E-07
v 1.691747 4.920498 -0.1121429
v 1.691747 0.02999926 -0.1121438
v 1.721796 4.920498 4.321337E-07
v 1.609652 4.920498 -0.1942376
v 1.609652 0.02999926 -0.1942383
v 1.497509 4.920498 -0.2242862
v 1.497509 0.02999926 -0.2242871
v 1.691746 0.02999926 0.1121431
v 1.691746 4.920498 0.1121438
v 1.609652 0.02999926 0.1942376
v 1.609652 4.920498 0.1942384
v 1.497509 0.02999926 0.2242863
v 1.497509 4.920498 0.224287
v 1.385365 0.02999926 0.1942375
v 1.385365 4.920498 0.1942383
v 1.303271 0.02999926 0.1121429
v 1.303271 4.920498 0.1121436
v 1.273223 0.02999926 -4.693866E-07
v 1.273223 4.920498 3.948808E-07
v 1.303271 0.02999926 -0.1121438
v 1.303271 4.920498 -0.1121429
v 1.385366 0.02999926 -0.1942383
v 1.385366 4.920498 -0.1942376
v 1.497509 0.02999926 -0.2242871
v 1.497509 4.920498 -0.2242862
v 1.609652 0.02999926 0.1942376
v 1.385365 0.02999926 0.1942375
v 1.497509 0.02999926 0.2242863
v 1.721796 0.02999926 -4.321337E-07
v 1.385366 0.02999926 -0.1942383
v 1.273223 0.02999926 -4.693866E-07
v 1.303271 0.02999926 0.1121429
v 1.303271 0.02999926 -0.1121438
v 1.609652 0.02999926 -0.1942383
v 1.497509 0.02999926 -0.2242871
v 1.691747 0.02999926 -0.1121438
v 1.691746 0.02999926 0.1121431
v 1.691747 4.920498 -0.1121429
v 1.497509 4.920498 -0.2242862
v 1.609652 4.920498 -0.1942376
v 1.691746 4.920498 0.1121438
v 1.303271 4.920498 0.1121436
v 1.303271 4.920498 -0.1121429
v 1.385366 4.920498 -0.1942376
v 1.273223 4.920498 3.948808E-07
v 1.497509 4.920498 0.224287
v 1.385365 4.920498 0.1942383
v 1.609652 4.920498 0.1942384
v 1.721796 4.920498 4.321337E-07
vt 0.875694 0.8943458
vt 0.8767828 0.8993703
vt 0.8767828 0.8943458
vt 0.875694 0.8993703
vt 0.8778716 0.8993703
vt 0.8778716 0.8943458
vt 0.8789604 0.8993703
vt 0.8789604 0.8943458
vt 0.8746053 0.8943458
vt 0.8746053 0.8993703
vt 0.8735165 0.8943458
vt 0.8735165 0.8993703
vt 0.8724277 0.8943458
vt 0.8724277 0.8993703
vt 0.871339 0.8943458
vt 0.871339 0.8993703
vt 0.8702502 0.8943458
vt 0.8702502 0.8993703
vt 0.8691614 0.8943458
vt 0.8691614 0.8993703
vt 0.8680726 0.8943458
vt 0.8680726 0.8993703
vt 0.8669838 0.8943458
vt 0.8669838 0.8993703
vt 0.865895 0.8943458
vt 0.865895 0.8993703
vt 0.8780852 0.8981143
vt 0.8780852 0.8956018
vt 0.8789604 0.896858
vt 0.8724277 0.8993703
vt 0.8667703 0.8956018
vt 0.8724277 0.8943458
vt 0.875694 0.8946823
vt 0.8691614 0.8946823
vt 0.8667703 0.8981143
vt 0.865895 0.896858
vt 0.8691614 0.8990339
vt 0.875694 0.8990339
vt 0.8691614 0.8990339
vt 0.865895 0.896858
vt 0.8667703 0.8981143
vt 0.875694 0.8990339
vt 0.875694 0.8946823
vt 0.8691614 0.8946823
vt 0.8667703 0.8956018
vt 0.8724277 0.8943458
vt 0.8789604 0.896858
vt 0.8780852 0.8956018
vt 0.8780852 0.8981143
vt 0.8724277 0.8993703
vt 0.875694 0.8943458
vt 0.8767828 0.8993703
vt 0.8767828 0.8943458
vt 0.875694 0.8993703
vt 0.8778716 0.8993703
vt 0.8778716 0.8943458
vt 0.8789604 0.8993703
vt 0.8789604 0.8943458
vt 0.8746053 0.8943458
vt 0.8746053 0.8993703
vt 0.8735165 0.8943458
vt 0.8735165 0.8993703
vt 0.8724277 0.8943458
vt 0.8724277 0.8993703
vt 0.871339 0.8943458
vt 0.871339 0.8993703
vt 0.8702502 0.8943458
vt 0.8702502 0.8993703
vt 0.8691614 0.8943458
vt 0.8691614 0.8993703
vt 0.8680726 0.8943458
vt 0.8680726 0.8993703
vt 0.8669838 0.8943458
vt 0.8669838 0.8993703
vt 0.865895 0.8943458
vt 0.865895 0.8993703
vt 0.8780852 0.8981143
vt 0.8780852 0.8956018
vt 0.8789604 0.896858
vt 0.8724277 0.8993703
vt 0.8667703 0.8956018
vt 0.8724277 0.8943458
vt 0.875694 0.8946823
vt 0.8691614 0.8946823
vt 0.8667703 0.8981143
vt 0.865895 0.896858
vt 0.8691614 0.8990339
vt 0.875694 0.8990339
vt 0.8691614 0.8990339
vt 0.865895 0.896858
vt 0.8667703 0.8981143
vt 0.875694 0.8990339
vt 0.875694 0.8946823
vt 0.8691614 0.8946823
vt 0.8667703 0.8956018
vt 0.8724277 0.8943458
vt 0.8789604 0.896858
vt 0.8780852 0.8956018
vt 0.8780852 0.8981143
vt 0.8724277 0.8993703
vt 0.875694 0.8943458
vt 0.8767828 0.8993703
vt 0.8767828 0.8943458
vt 0.875694 0.8993703
vt 0.8778716 0.8993703
vt 0.8778716 0.8943458
vt 0.8789604 0.8993703
vt 0.8789604 0.8943458
vt 0.8746053 0.8943458
vt 0.8746053 0.8993703
vt 0.8735165 0.8943458
vt 0.8735165 0.8993703
vt 0.8724277 0.8943458
vt 0.8724277 0.8993703
vt 0.871339 0.8943458
vt 0.871339 0.8993703
vt 0.8702502 0.8943458
vt 0.8702502 0.8993703
vt 0.8691614 0.8943458
vt 0.8691614 0.8993703
vt 0.8680726 0.8943458
vt 0.8680726 0.8993703
vt 0.8669838 0.8943458
vt 0.8669838 0.8993703
vt 0.865895 0.8943458
vt 0.865895 0.8993703
vt 0.8780852 0.8981143
vt 0.8780852 0.8956018
vt 0.8789604 0.896858
vt 0.8724277 0.8993703
vt 0.8667703 0.8956018
vt 0.8724277 0.8943458
vt 0.875694 0.8946823
vt 0.8691614 0.8946823
vt 0.8667703 0.8981143
vt 0.865895 0.896858
vt 0.8691614 0.8990339
vt 0.875694 0.8990339
vt 0.8691614 0.8990339
vt 0.865895 0.896858
vt 0.8667703 0.8981143
vt 0.875694 0.8990339
vt 0.875694 0.8946823
vt 0.8691614 0.8946823
vt 0.8667703 0.8956018
vt 0.8724277 0.8943458
vt 0.8789604 0.896858
vt 0.8780852 0.8956018
vt 0.8780852 0.8981143
vt 0.8724277 0.8993703
vn 1 0 0
vn 0.8660251 0 -0.5000004
vn 0.866025 0 -0.5000006
vn 1 0 0
vn 0.4999983 0 -0.8660263
vn 0.4999987 0 -0.8660261
vn 0 0 -1
vn 0 0 -1
vn 0.8660249 0 0.5000008
vn 0.8660246 0 0.5000014
vn 0.5000001 0 0.8660253
vn 0.4999993 0 0.8660258
vn 0 0 1
vn 0 0 1
vn -0.5 0 0.8660254
vn -0.5 0 0.8660254
vn -0.8660257 0 0.4999995
vn -0.8660258 0 0.4999994
vn -1 0 0
vn -1 0 0
vn -0.8660246 0 -0.5000015
vn -0.8660247 0 -0.5000012
vn -0.4999998 0 -0.8660255
vn -0.4999997 0 -0.8660256
vn 0 0 -1
vn 0 0 -1
vn 0 -1 0
vn 0 -1 0
vn 0 -1 0
vn 0 -1 0
vn 0 -1 0
vn 0 -1 0
vn 0 -1 0
vn 0 -1 0
vn 0 -1 0
vn 0 -1 0
vn 0 -1 0
vn 0 -1 0
vn 0 1 0
vn 0 1 0
vn 0 1 0
vn 0 1 0
vn 0 1 0
vn 0 1 0
vn 0 1 0
vn 0 1 0
vn 0 1 0
vn 0 1 0
vn 0 1 0
vn 0 1 0
vn 1 0 0
vn 0.8660254 0 -0.5
vn 0.8660251 0 -0.5000006
vn 1 0 0
vn 0.499999 0 -0.866026
vn 0.4999989 0 -0.866026
vn 0 0 -1
vn 0 0 -1
vn 0.866025 0 0.5000008
vn 0.8660248 0 0.5000011
vn 0.5000004 0 0.8660251
vn 0.4999999 0 0.8660254
vn 0 0 1
vn 0 0 1
vn -0.5000001 0 0.8660253
vn -0.5 0 0.8660254
vn -0.866026 0 0.499999
vn -0.8660261 0 0.4999988
vn -1 0 0
vn -1 0 0
vn -0.8660247 0 -0.5000013
vn -0.8660248 0 -0.5000011
vn -0.4999996 0 -0.8660256
vn -0.4999995 0 -0.8660257
vn 0 0 -1
vn 0 0 -1
vn 0 -1 0
vn 0 -1 0
vn 0 -1 0
vn 0 -1 0
vn 0 -1 0
vn 0 -1 0
vn 0 -1 0
vn 0 -1 0
vn 0 -1 0
vn 0 -1 0
vn 0 -1 0
vn 0 -1 0
vn 0 1 0
vn 0 1 0
vn 0 1 0
vn 0 1 0
vn 0 1 0
vn 0 1 0
vn 0 1 0
vn 0 1 0
vn 0 1 0
vn 0 1 0
vn 0 1 0
vn 0 1 0
vn 1 0 0
vn 0.866024 0 -0.5000024
vn 0.8660237 0 -0.5000029
vn 1 0 0
vn 0.4999985 0 -0.8660262
vn 0.4999985 0 -0.8660263
vn 0 0 -1
vn 0 0 -1
vn 0.8660235 0 0.5000034
vn 0.8660233 0 0.5000036
vn 0.5000004 0 0.8660252
vn 0.4999999 0 0.8660255
vn 0 0 1
vn 0 0 1
vn -0.5000002 0 0.8660253
vn -0.5000001 0 0.8660253
vn -0.8660274 0 0.4999966
vn -0.8660274 0 0.4999965
vn -1 0 0
vn -1 0 0
vn -0.8660259 0 -0.499999
vn -0.8660261 0 -0.4999988
vn -0.5000002 0 -0.8660253
vn -0.4999999 0 -0.8660254
vn 0 0 -1
vn 0 0 -1
vn 0 -1 0
vn 0 -1 0
vn 0 -1 0
vn 0 -1 0
vn 0 -1 0
vn 0 -1 0
vn 0 -1 0
vn 0 -1 0
vn 0 -1 0
vn 0 -1 0
vn 0 -1 0
vn 0 -1 0
vn 0 1 0
vn 0 1 0
vn 0 1 0
vn 0 1 0
vn 0 1 0
vn 0 1 0
vn 0 1 0
vn 0 1 0
vn 0 1 0
vn 0 1 0
vn 0 1 0
vn 0 1 0
g M_SA_Fence_column_01_0
f 3/3/3 2/2/2 1/1/1
f 4/4/4 1/1/1 2/2/2
f 2/2/2 3/3/3 5/5/5
f 6/6/6 5/5/5 3/3/3
f 5/5/5 6/6/6 7/7/7
f 8/8/8 7/7/7 6/6/6
f 1/1/1 4/4/4 9/9/9
f 10/10/10 9/9/9 4/4/4
f 9/9/9 10/10/10 11/11/11
f 12/12/12 11/11/11 10/10/10
f 11/11/11 12/12/12 13/13/13
f 14/14/14 13/13/13 12/12/12
f 13/13/13 14/14/14 15/15/15
f 16/16/16 15/15/15 14/14/14
f 15/15/15 16/16/16 17/17/17
f 18/18/18 17/17/17 16/16/16
f 17/17/17 18/18/18 19/19/19
f 20/20/20 19/19/19 18/18/18
f 19/19/19 20/20/20 21/21/21
f 22/22/22 21/21/21 20/20/20
f 21/21/21 22/22/22 23/23/23
f 24/24/24 23/23/23 22/22/22
f 23/23/23 24/24/24 25/25/25
f 26/26/26 25/25/25 24/24/24
f 29/29/29 28/28/28 27/27/27
f 28/28/28 30/30/30 27/27/27
f 31/31/31 30/30/30 28/28/28
f 32/32/32 31/31/31 28/28/28
f 33/33/33 32/32/32 28/28/28
f 34/34/34 31/31/31 32/32/32
f 35/35/35 30/30/30 31/31/31
f 36/36/36 35/35/35 31/31/31
f 37/37/37 30/30/30 35/35/35
f 27/27/27 30/30/30 38/38/38
f 41/41/41 40/40/40 39/39/39
f 40/40/40 42/42/42 39/39/39
f 43/43/43 42/42/42 40/40/40
f 44/44/44 43/43/43 40/40/40
f 45/45/45 44/44/44 40/40/40
f 46/46/46 43/43/43 44/44/44
f 47/47/47 42/42/42 43/43/43
f 48/48/48 47/47/47 43/43/43
f 49/49/49 42/42/42 47/47/47
f 39/39/39 42/42/42 50/50/50
f 53/53/53 52/52/52 51/51/51
f 54/54/54 51/51/51 52/52/52
f 52/52/52 53/53/53 55/55/55
f 56/56/56 55/55/55 53/53/53
f 55/55/55 56/56/56 57/57/57
f 58/58/58 57/57/57 56/56/56
f 51/51/51 54/54/54 59/59/59
f 60/60/60 59/59/59 54/54/54
f 59/59/59 60/60/60 61/61/61
f 62/62/62 61/61/61 60/60/60
f 61/61/61 62/62/62 63/63/63
f 64/64/64 63/63/63 62/62/62
f 63/63/63 64/64/64 65/65/65
f 66/66/66 65/65/65 64/64/64
f 65/65/65 66/66/66 67/67/67
f 68/68/68 67/67/67 66/66/66
f 67/67/67 68/68/68 69/69/69
f 70/70/70 69/69/69 68/68/68
f 69/69/69 70/70/70 71/71/71
f 72/72/72 71/71/71 70/70/70
f 71/71/71 72/72/72 73/73/73
f 74/74/74 73/73/73 72/72/72
f 73/73/73 74/74/74 75/75/75
f 76/76/76 75/75/75 74/74/74
f 79/79/79 78/78/78 77/77/77
f 78/78/78 80/80/80 77/77/77
f 81/81/81 80/80/80 78/78/78
f 82/82/82 81/81/81 78/78/78
f 83/83/83 82/82/82 78/78/78
f 84/84/84 81/81/81 82/82/82
f 85/85/85 80/80/80 81/81/81
f 86/86/86 85/85/85 81/81/81
f 87/87/87 80/80/80 85/85/85
f 77/77/77 80/80/80 88/88/88
f 91/91/91 90/90/90 89/89/89
f 90/90/90 92/92/92 89/89/89
f 93/93/93 92/92/92 90/90/90
f 94/94/94 93/93/93 90/90/90
f 95/95/95 94/94/94 90/90/90
f 96/96/96 93/93/93 94/94/94
f 97/97/97 92/92/92 93/93/93
f 98/98/98 97/97/97 93/93/93
f 99/99/99 92/92/92 97/97/97
f 89/89/89 92/92/92 100/100/100
f 103/103/103 102/102/102 101/101/101
f 104/104/104 101/101/101 102/102/102
f 102/102/102 103/103/103 105/105/105
f 106/106/106 105/105/105 103/103/103
f 105/105/105 106/106/106 107/107/107
f 108/108/108 107/107/107 106/106/106
f 101/101/101 104/104/104 109/109/109
f 110/110/110 109/109/109 104/104/104
f 109/109/109 110/110/110 111/111/111
f 112/112/112 111/111/111 110/110/110
f 111/111/111 112/112/112 113/113/113
f 114/114/114 113/113/113 112/112/112
f 113/113/113 114/114/114 115/115/115
f 116/116/116 115/115/115 114/114/114
f 115/115/115 116/116/116 117/117/117
f 118/118/118 117/117/117 116/116/116
f 117/117/117 118/118/118 119/119/119
f 120/120/120 119/119/119 118/118/118
f 119/119/119 120/120/120 121/121/121
f 122/122/122 121/121/121 120/120/120
f 121/121/121 122/122/122 123/123/123
f 124/124/124 123/123/123 122/122/122
f 123/123/123 124/124/124 125/125/125
f 126/126/126 125/125/125 124/124/124
f 129/129/129 128/128/128 127/127/127
f 128/128/128 130/130/130 127/127/127
f 131/131/131 130/130/130 128/128/128
f 132/132/132 131/131/131 128/128/128
f 133/133/133 132/132/132 128/128/128
f 134/134/134 131/131/131 132/132/132
f 135/135/135 130/130/130 131/131/131
f 136/136/136 135/135/135 131/131/131
f 137/137/137 130/130/130 135/135/135
f 127/127/127 130/130/130 138/138/138
f 141/141/141 140/140/140 139/139/139
f 140/140/140 142/142/142 139/139/139
f 143/143/143 142/142/142 140/140/140
f 144/144/144 143/143/143 140/140/140
f 145/145/145 144/144/144 140/140/140
f 146/146/146 143/143/143 144/144/144
f 147/147/147 142/142/142 143/143/143
f 148/148/148 147/147/147 143/143/143
f 149/149/149 142/142/142 147/147/147
f 139/139/139 142/142/142 150/150/150
