g M_SA_Stairs_01
v -2.528915 1 -2.503146
v 2.528916 5.960464E-07 -2.503145
v 2.528916 1 -2.503146
v -2.528917 5.960464E-07 -2.503146
v -2.528915 2 -2.503146
v 2.528916 2 -2.503146
v -2.528915 3.000001 -2.503146
v 2.528917 3.000001 -2.503146
v -2.528914 4 -2.503146
v 2.528917 4 -2.503146
v -2.528915 -1.370907E-06 0.5031476
v -2.528915 0.9999995 -0.4968526
v -2.528915 0.9999992 0.5341535
v -2.528916 -7.152557E-07 -0.4968526
v -2.528915 -1.728535E-06 1.534153
v -2.528914 0.999999 1.534153
v -2.528915 0.9999998 -1.496852
v -2.528916 1.788139E-07 -1.496852
v -2.528915 2 -1.496855
v -2.528915 2 -0.4968531
v -2.528915 2 0.5031483
v -2.528915 3.000001 -1.496855
v -2.528914 3.000001 -0.4968531
v -2.528915 1 -2.503146
v -2.528917 5.960464E-07 -2.503146
v -2.528915 2 -2.503146
v -2.528915 3.000001 -2.503146
v -2.528914 4 -1.496855
v -2.528914 4 -2.503146
v 2.528917 -2.503395E-06 0.5031486
v 2.528918 0.999999 1.534153
v 2.528918 0.9999992 0.5341521
v 2.528916 -1.728535E-06 1.534153
v 2.528916 -1.251698E-06 -0.4968512
v 2.528916 0.9999994 -0.4968522
v 2.528916 -5.960464E-08 -1.496852
v 2.528916 0.9999998 -1.496853
v 2.528918 2 -0.4968531
v 2.528918 1.999999 0.5031471
v 2.528916 2 -1.496853
v 2.528918 3.000001 -0.4968531
v 2.528917 3.000001 -1.496853
v 2.528916 5.960464E-07 -2.503145
v 2.528916 1 -2.503146
v 2.528916 2 -2.503146
v 2.528917 3.000001 -2.503146
v 2.528917 4 -2.503146
v 2.528917 4 -1.496852
v -2.528915 -1.370907E-06 0.5031476
v 2.528916 -1.728535E-06 1.534153
v 2.528917 -2.503395E-06 0.5031486
v -2.528915 -1.728535E-06 1.534153
v -2.528916 -7.152557E-07 -0.4968526
v 2.528916 -1.251698E-06 -0.4968512
v -2.528916 1.788139E-07 -1.496852
v 2.528916 -5.960464E-08 -1.496852
v -2.528917 5.960464E-07 -2.503146
v 2.528916 5.960464E-07 -2.503145
v -2.528915 3.000001 -1.496855
v 2.528917 4 -1.496852
v 2.528917 3.000001 -1.496853
v -2.528914 4 -1.496855
v -2.528914 4 -1.496855
v 2.528917 4 -2.503146
v 2.528917 4 -1.496852
v -2.528914 4 -2.503146
v -2.528915 2 -0.4968531
v 2.528918 3.000001 -0.4968531
v 2.528918 2 -0.4968531
v -2.528914 3.000001 -0.4968531
v -2.528914 3.000001 -0.4968531
v 2.528917 3.000001 -1.496853
v 2.528918 3.000001 -0.4968531
v -2.528915 3.000001 -1.496855
v 2.528918 2 -0.4968531
v -2.528915 2 0.5031483
v -2.528915 2 -0.4968531
v 2.528918 1.999999 0.5031471
v 2.528918 1.999999 0.5031471
v -2.528915 0.9999992 0.5341535
v -2.528915 2 0.5031483
v 2.528918 0.9999992 0.5341521
v 2.528918 0.9999992 0.5341521
v -2.528914 0.999999 1.534153
v -2.528915 0.9999992 0.5341535
v 2.528918 0.999999 1.534153
v 2.528918 0.999999 1.534153
v -2.528915 -1.728535E-06 1.534153
v -2.528914 0.999999 1.534153
v 2.528916 -1.728535E-06 1.534153
vt 0.08762196 0.4300777
vt 0.1843937 0.4300777
vt 0.1843937 0.4300777
vt 0.08762196 0.4300777
vt 0.08762196 0.4300777
vt 0.1843937 0.4300777
vt 0.08762196 0.4300777
vt 0.1843937 0.4300777
vt 0.08762196 0.4300777
vt 0.1843937 0.4300777
vt 0.08762196 0.3522629
vt 0.08762196 0.3725584
vt 0.08762196 0.3522629
vt 0.08762196 0.3725584
vt 0.08762196 0.3319674
vt 0.08762196 0.3319674
vt 0.08762196 0.4109046
vt 0.08762196 0.4109046
vt 0.08762196 0.4109046
vt 0.08762196 0.3725584
vt 0.08762196 0.3522629
vt 0.08762196 0.4109046
vt 0.08762196 0.3725584
vt 0.08762196 0.4300777
vt 0.08762196 0.4300777
vt 0.08762196 0.4300777
vt 0.08762196 0.4300777
vt 0.08762196 0.4109046
vt 0.08762196 0.4300777
vt 0.1843937 0.3522629
vt 0.1843937 0.3319674
vt 0.1843937 0.3522629
vt 0.1843937 0.3319674
vt 0.1843937 0.3725584
vt 0.1843937 0.3725584
vt 0.1843937 0.4109046
vt 0.1843937 0.4109046
vt 0.1843937 0.3725584
vt 0.1843937 0.3522629
vt 0.1843937 0.4109046
vt 0.1843937 0.3725584
vt 0.1843937 0.4109046
vt 0.1843937 0.4300777
vt 0.1843937 0.4300777
vt 0.1843937 0.4300777
vt 0.1843937 0.4300777
vt 0.1843937 0.4300777
vt 0.1843937 0.4109046
vt 0.08762196 0.3522629
vt 0.1843937 0.3319674
vt 0.1843937 0.3522629
vt 0.08762196 0.3319674
vt 0.08762196 0.3725584
vt 0.1843937 0.3725584
vt 0.08762196 0.4109046
vt 0.1843937 0.4109046
vt 0.08762196 0.4300777
vt 0.1843937 0.4300777
vt 0.08762196 0.4109046
vt 0.1843937 0.4109046
vt 0.1843937 0.4109046
vt 0.08762196 0.4109046
vt 0.08762196 0.4109046
vt 0.1843937 0.4300777
vt 0.1843937 0.4109046
vt 0.08762196 0.4300777
vt 0.08762196 0.3725584
vt 0.1843937 0.3725584
vt 0.1843937 0.3725584
vt 0.08762196 0.3725584
vt 0.08762196 0.3725584
vt 0.1843937 0.4109046
vt 0.1843937 0.3725584
vt 0.08762196 0.4109046
vt 0.1843937 0.3725584
vt 0.08762196 0.3522629
vt 0.08762196 0.3725584
vt 0.1843937 0.3522629
vt 0.1843937 0.3522629
vt 0.08762196 0.3522629
vt 0.08762196 0.3522629
vt 0.1843937 0.3522629
vt 0.1843937 0.3522629
vt 0.08762196 0.3319674
vt 0.08762196 0.3522629
vt 0.1843937 0.3319674
vt 0.1843937 0.3319674
vt 0.08762196 0.3319674
vt 0.08762196 0.3319674
vt 0.1843937 0.3319674
vn 0 0 -1
vn 0 0 -1
vn 0 0 -1
vn 0 0 -1
vn 0 0 -1
vn 0 0 -1
vn 0 0 -1
vn 0 0 -1
vn 0 0 -1
vn 0 0 -1
vn -1 0 0
vn -1 0 0
vn -1 0 0
vn -1 0 0
vn -1 0 0
vn -1 0 0
vn -1 0 0
vn -1 0 0
vn -1 0 0
vn -1 0 0
vn -1 0 0
vn -1 0 0
vn -1 0 0
vn -1 0 0
vn -1 0 0
vn -1 0 0
vn -1 0 0
vn -1 0 0
vn -1 0 0
vn 1 0 0
vn 1 0 0
vn 1 0 0
vn 1 0 0
vn 1 0 0
vn 1 0 0
vn 1 0 0
vn 1 0 0
vn 1 0 0
vn 1 0 0
vn 1 0 0
vn 1 0 0
vn 1 0 0
vn 1 0 0
vn 1 0 0
vn 1 0 0
vn 1 0 0
vn 1 0 0
vn 1 0 0
vn 0 -1 0
vn 0 -1 0
vn 0 -1 0
vn 0 -1 0
vn 0 -1 0
vn 0 -1 0
vn 0 -1 0
vn 0 -1 0
vn 0 -1 0
vn 0 -1 0
vn 0 0 1
vn 0 0 1
vn 0 0 1
vn 0 0 1
vn 0 1 0
vn 0 1 0
vn 0 1 0
vn 0 1 0
vn 0 0 1
vn 0 0 1
vn 0 0 1
vn 0 0 1
vn 0 1 0
vn 0 1 0
vn 0 1 0
vn 0 1 0
vn 0 1 0
vn 0 1 0
vn 0 1 0
vn 0 1 0
vn 0 0.0309901 0.9995197
vn 0 0.03099026 0.9995197
vn 0 0.03099029 0.9995197
vn 0 0.03099007 0.9995197
vn 0 1 0
vn 0 1 0
vn 0 1 0
vn 0 1 0
vn 0 0 1
vn 0 0 1
vn 0 0 1
vn 0 0 1
g M_SA_Stairs_01_0
f 3/3/3 2/2/2 1/1/1
f 4/4/4 1/1/1 2/2/2
f 1/1/1 5/5/5 3/3/3
f 6/6/6 3/3/3 5/5/5
f 5/5/5 7/7/7 6/6/6
f 8/8/8 6/6/6 7/7/7
f 7/7/7 9/9/9 8/8/8
f 10/10/10 8/8/8 9/9/9
f 13/13/13 12/12/12 11/11/11
f 14/14/14 11/11/11 12/12/12
f 11/11/11 15/15/15 13/13/13
f 16/16/16 13/13/13 15/15/15
f 12/12/12 17/17/17 14/14/14
f 18/18/18 14/14/14 17/17/17
f 17/17/17 12/12/12 19/19/19
f 20/20/20 19/19/19 12/12/12
f 13/13/13 21/21/21 12/12/12
f 20/20/20 12/12/12 21/21/21
f 19/19/19 20/20/20 22/22/22
f 23/23/23 22/22/22 20/20/20
f 17/17/17 24/24/24 18/18/18
f 25/25/25 18/18/18 24/24/24
f 24/24/24 17/17/17 26/26/26
f 19/19/19 26/26/26 17/17/17
f 26/26/26 19/19/19 27/27/27
f 22/22/22 27/27/27 19/19/19
f 22/22/22 28/28/28 27/27/27
f 29/29/29 27/27/27 28/28/28
f 32/32/32 31/31/31 30/30/30
f 33/33/33 30/30/30 31/31/31
f 30/30/30 34/34/34 32/32/32
f 35/35/35 32/32/32 34/34/34
f 34/34/34 36/36/36 35/35/35
f 37/37/37 35/35/35 36/36/36
f 35/35/35 38/38/38 32/32/32
f 35/35/35 37/37/37 38/38/38
f 39/39/39 32/32/32 38/38/38
f 40/40/40 38/38/38 37/37/37
f 38/38/38 40/40/40 41/41/41
f 42/42/42 41/41/41 40/40/40
f 36/36/36 43/43/43 37/37/37
f 44/44/44 37/37/37 43/43/43
f 37/37/37 44/44/44 40/40/40
f 45/45/45 40/40/40 44/44/44
f 40/40/40 45/45/45 42/42/42
f 46/46/46 42/42/42 45/45/45
f 46/46/46 47/47/47 42/42/42
f 48/48/48 42/42/42 47/47/47
f 51/51/51 50/50/50 49/49/49
f 52/52/52 49/49/49 50/50/50
f 49/49/49 53/53/53 51/51/51
f 54/54/54 51/51/51 53/53/53
f 53/53/53 55/55/55 54/54/54
f 56/56/56 54/54/54 55/55/55
f 55/55/55 57/57/57 56/56/56
f 58/58/58 56/56/56 57/57/57
f 61/61/61 60/60/60 59/59/59
f 62/62/62 59/59/59 60/60/60
f 65/65/65 64/64/64 63/63/63
f 66/66/66 63/63/63 64/64/64
f 69/69/69 68/68/68 67/67/67
f 70/70/70 67/67/67 68/68/68
f 73/73/73 72/72/72 71/71/71
f 74/74/74 71/71/71 72/72/72
f 77/77/77 76/76/76 75/75/75
f 78/78/78 75/75/75 76/76/76
f 81/81/81 80/80/80 79/79/79
f 82/82/82 79/79/79 80/80/80
f 85/85/85 84/84/84 83/83/83
f 86/86/86 83/83/83 84/84/84
f 89/89/89 88/88/88 87/87/87
f 90/90/90 87/87/87 88/88/88
