g M_SA_Glass_Fracture_03
v 2.499999 2.227275 0.4999994
v 0.8158131 2.551995 0.4999995
v 2.499999 4.399596 0.4999999
v 2.499999 2.227275 0.4999994
v 2.499999 4.399596 -0.4999999
v 2.499999 2.227275 -0.5000004
v 2.499999 4.399596 0.4999999
v 2.499999 4.399596 -0.4999999
v 0.8158133 2.551995 -0.5000003
v 2.499999 2.227275 -0.5000004
v 2.499999 2.227275 -0.5000004
v 0.8158131 2.551995 0.4999995
v 2.499999 2.227275 0.4999994
v 0.8158133 2.551995 -0.5000003
v 0.8158133 2.551995 -0.5000003
v 2.499999 4.399596 0.4999999
v 0.8158131 2.551995 0.4999995
v 2.499999 4.399596 0.4999999
v 0.8158133 2.551995 -0.5000003
v 2.499999 4.399596 -0.4999999
vt 0.1451766 0.8805096
vt 0.1469285 0.8867855
vt 0.1415953 0.9224944
vt 0.09042775 0.9340984
vt 0.1107462 0.852445
vt 0.08081225 0.88544
vt 0.12974 0.9340985
vt 0.05012105 0.9323177
vt 0.05012104 0.9219816
vt 0.05012105 0.9258752
vt 0.08081225 0.88544
vt 0.05012105 0.9323177
vt 0.05012105 0.9258752
vt 0.1107462 0.852445
vt 0.1107462 0.852445
vt 0.1451766 0.8805096
vt 0.05012105 0.9323177
vt 0.1451766 0.8805096
vt 0.1107462 0.852445
vt 0.09042775 0.9340984
vn 0 0 1
vn 0 0 1
vn 0 0 1
vn 1 0 0
vn 1 0 0
vn 1 0 0
vn 1 0 0
vn 0 0 -1
vn 0 0 -1
vn 0 0 -1
vn -0.1893187 -0.9819157 0
vn -0.1893187 -0.9819157 0
vn -0.1893187 -0.9819157 0
vn -0.1893187 -0.9819157 0
vn -0.7390339 0.6736682 0
vn -0.7390339 0.6736682 0
vn -0.7390339 0.6736681 0
vn -0.7390339 0.6736682 0
vn -0.7390339 0.6736682 0
vn -0.7390339 0.6736682 0
g M_SA_Glass_Fracture_03_0
f 3/3/3 2/2/2 1/1/1
f 6/6/6 5/5/5 4/4/4
f 7/7/7 4/4/4 5/5/5
f 10/10/10 9/9/9 8/8/8
f 13/13/13 12/12/12 11/11/11
f 14/14/14 11/11/11 12/12/12
f 17/17/17 16/16/16 15/15/15
f 20/20/20 19/19/19 18/18/18
