g M_SA_wall_in_01
v -0.5 5.960464E-08 -0.5000004
v 0.5 1.152343 -0.5000003
v -0.5 1.152343 -0.5000003
v 0.5 5.960464E-08 -0.5000004
v -0.5 0 0.4999999
v -0.5 1.152343 -0.5000003
v -0.5 1.152343 0.4999999
v -0.5 5.960464E-08 -0.5000004
v 0.5 0 0.4999999
v -0.5 1.152343 0.4999999
v 0.5 1.152343 0.4999999
v -0.5 0 0.4999999
v 0.5 5.960464E-08 -0.5000004
v 0.5 1.152343 0.4999999
v 0.5 1.152343 -0.5000003
v 0.5 0 0.4999999
v 0.5 5 -0.5000001
v -0.5 5 0.5000002
v -0.5 5 -0.5000001
v 0.5 5 0.5000002
v -0.5 5 -0.5000001
v 0.5 1.152343 -0.5000003
v 0.5 5 -0.5000001
v -0.5 1.152343 -0.5000003
v -0.5 5 0.5000002
v -0.5 1.152343 -0.5000003
v -0.5 5 -0.5000001
v -0.5 1.152343 0.4999999
v 0.5 5 0.5000002
v -0.5 1.152343 0.4999999
v -0.5 5 0.5000002
v 0.5 1.152343 0.4999999
v 0.5 5 -0.5000001
v 0.5 1.152343 0.4999999
v 0.5 5 0.5000002
v 0.5 1.152343 -0.5000003
vt 0.3353118 0.5712931
vt 0.4472127 0.5712931
vt 0.3353118 0.5712931
vt 0.4472127 0.5712931
vt 0.3373726 0.5246987
vt 0.3373726 0.6331169
vt 0.3373726 0.5246987
vt 0.3373726 0.6331169
vt 0.4586088 0.6452139
vt 0.2875013 0.6452139
vt 0.4586088 0.6452139
vt 0.2875013 0.6452139
vt 0.4492735 0.6331169
vt 0.4492735 0.5246987
vt 0.4492735 0.6331169
vt 0.4492735 0.5246987
vt 0.1606593 0.4566923
vt 0.06965483 0.3656878
vt 0.06965483 0.4566923
vt 0.1606593 0.3656878
vt 0.5537559 0.6970015
vt 0.6656568 0.6970015
vt 0.6656568 0.6970015
vt 0.5537559 0.6970015
vt 0.5537559 0.5885834
vt 0.5537559 0.6970015
vt 0.5537559 0.6970015
vt 0.5537559 0.5885834
vt 0.7038432 0.6328491
vt 0.5327357 0.6328491
vt 0.5327357 0.6328491
vt 0.7038432 0.6328491
vt 0.6656568 0.6970015
vt 0.6656568 0.5885834
vt 0.6656568 0.5885834
vt 0.6656568 0.6970015
vn 0 0 -1
vn 0 0 -1
vn 0 0 -1
vn 0 0 -1
vn -1 0 0
vn -1 0 0
vn -1 0 0
vn -1 0 0
vn 0 0 1
vn 0 0 1
vn 0 0 1
vn 0 0 1
vn 1 0 0
vn 1 0 0
vn 1 0 0
vn 1 0 0
vn 0 1 0
vn 0 1 0
vn 0 1 0
vn 0 1 0
vn 0 0 -1
vn 0 0 -1
vn 0 0 -1
vn 0 0 -1
vn -1 0 0
vn -1 0 0
vn -1 0 0
vn -1 0 0
vn 0 0 1
vn 0 0 1
vn 0 0 1
vn 0 0 1
vn 1 0 0
vn 1 0 0
vn 1 0 0
vn 1 0 0
g M_SA_wall_in_01_0
f 3/3/3 2/2/2 1/1/1
f 4/4/4 1/1/1 2/2/2
f 7/7/7 6/6/6 5/5/5
f 8/8/8 5/5/5 6/6/6
f 11/11/11 10/10/10 9/9/9
f 12/12/12 9/9/9 10/10/10
f 15/15/15 14/14/14 13/13/13
f 16/16/16 13/13/13 14/14/14
f 19/19/19 18/18/18 17/17/17
f 20/20/20 17/17/17 18/18/18
f 23/23/23 22/22/22 21/21/21
f 24/24/24 21/21/21 22/22/22
f 27/27/27 26/26/26 25/25/25
f 28/28/28 25/25/25 26/26/26
f 31/31/31 30/30/30 29/29/29
f 32/32/32 29/29/29 30/30/30
f 35/35/35 34/34/34 33/33/33
f 36/36/36 33/33/33 34/34/34
